<svg height='300px' width='300px'  xmlns="http://www.w3.org/2000/svg" xmlns:xlink="http://www.w3.org/1999/xlink" version="1.1" x="0px" y="0px" viewBox="0 0 100 100" enable-background="new 0 0 100 100" xml:space="preserve"><g><g><path d="M68.4,13.9c-1.5-1.9-3.2-3-4.6-3.5C62.7,9,60.8,7.1,58,5.6c-3.3-1.9-7-2.9-11.1-2.9c-0.7,0-1.4,0-2.1,0.1    c-1.8,0.1-3.6,0.4-5.4,1c0,0,0,0,0,0c-1.9,0.7-3.9,1.6-5.7,2.9c-2,1.3-3.9,2.8-5.6,4.6c-3.2,3.3-5.3,7.1-6.3,11.1    c-0.8,3-0.8,6.3-0.1,10.2c-0.1,0.1-0.2,0.2-0.3,0.4c-2.4,3.2-1.5,7.7-0.6,10.9c0.6,2,1.6,5.7,4,8c1.8,6.7,7,14.4,15.4,17.3    c2,0.7,4.1,1.1,6.2,1.1c2.2,0,4.3-0.4,6.3-1.1c8.4-3,13.6-10.7,15.4-17.3c2.4-2.2,3.4-6,4-8c0.9-3.2,1.8-7.7-0.6-10.9    c-0.1-0.1-0.2-0.2-0.3-0.4C72.5,24.3,71.6,17.9,68.4,13.9z M67.6,42.6c-1.4,4.9-2.7,6.3-3.6,6.3c-0.9,5.8-5.5,13.2-12.8,15.8    c-1.5,0.5-3.1,0.8-4.7,0.8c-1.6,0-3.2-0.3-4.7-0.8C34.4,62.2,29.9,54.8,29,49c-1-0.1-2.3-1.4-3.6-6.3c-1.8-6.3-0.1-7.5,1.5-7.5    c0.1,0,0.2,0,0.3,0v0c0,0,1.4-19.4,17.1-12.7c8.2,3.5,14.3,3.3,18.2,2.4c5,3.4,3.5,9.2,3.2,10.1c0,0,0,0.1,0,0.1    c0.1,0,0.2,0,0.3,0C67.7,35.1,69.3,36.3,67.6,42.6z"></path></g><g><path d="M57.9,71.9c-1.1,0.6-2.4,1.2-3.7,1.6c-2.5,0.9-5.2,1.4-7.9,1.4c-2.7,0-5.3-0.4-7.8-1.3c-5.2-1.8-9.2-5-12.2-8.7    C22.2,67.2,14.7,71.4,7,77.1c8.9,12.2,23.2,20.2,39.5,20.2c5.1,0,10.1-0.8,14.7-2.3c-3.3-3.7-5.4-8.6-5.4-13.9    C55.8,77.8,56.6,74.7,57.9,71.9z"></path></g><g><path d="M76.7,64.7c-9,0-16.3,7.3-16.3,16.3c0,9,7.3,16.3,16.3,16.3c9,0,16.3-7.3,16.3-16.3C93,72,85.7,64.7,76.7,64.7z     M86.2,83.2l-11.3,0l4.1,4.1l-3,3L66.7,81l9.3-9.3l3,3l-4.1,4.1l11.3,0V83.2z"></path></g></g></svg>