<svg xmlns="http://www.w3.org/2000/svg" viewBox="0 0 482.97 435.68"><g id="Capa_2" data-name="Capa 2"><g id="Capa_4" data-name="Capa 4"><path d="M130.54,244.69a4.72,4.72,0,0,1,.61,1.05c1,3.86,3.63,6.55,6.66,8.87a34.05,34.05,0,0,0,9.5,5.14c4.57,1.59,9.17,3.06,13.8,4.45a38.19,38.19,0,0,0,6.28,1.27c6.08.75,12.13,1.81,18.3,1.7,3-.05,6,.42,9,.35,5.13-.12,10.27-.31,15.38-.78,3.75-.34,7.44-1.24,11.17-1.8a81.15,81.15,0,0,0,12.23-3,49.34,49.34,0,0,0,15.46-7.44c3.11-2.36,5.73-5.14,6.54-9.18,0-.12.18-.21.47-.55a9.45,9.45,0,0,1,1.52.72c5,3.31,9.83,6.77,14.89,9.92a107.58,107.58,0,0,0,10.37,5.44c3.39,1.62,6.86,3.07,10.33,4.53a46.74,46.74,0,0,0,4.62,1.61c2,.59,2.18,1.19.82,2.72a23.14,23.14,0,0,0-6.06,16,22.31,22.31,0,0,0,3.76,11.87c.75,1.17,1,1.95-.09,2.89-.09.08-.11.25-.15.39s0,.13.06.36l1.75-.4c.13.06.3.08.38.18.52.63,1.47,1.23.79,2.16-.55.76-1.47.67-2.34.36a1.48,1.48,0,0,0-1.13,0,2.41,2.41,0,0,1-2.86.24,32.07,32.07,0,0,1-3.72,2.25,22.14,22.14,0,0,0-11.09,10.45,21,21,0,0,0-2.61,9.59q-.09,13,0,25.92a21.31,21.31,0,0,0,2.63,9.38,22.68,22.68,0,0,0,9.13,9.58,25.59,25.59,0,0,0,9.67,3.1c.43.06.86,0,1.29.09,1.61.2,2,.93,1.07,2.28a65.44,65.44,0,0,0-3.62,5.52c-2.38,4.58-3.5,9.36-2.41,14.63a24.5,24.5,0,0,0,7.19,13.24c3,2.89,6,5.9,8.92,8.86,1.15,1.15,2.28,2.31,3.41,3.48.86.89.54,1.83-.77,2.14-1.73.41-3.47.81-5.22,1.14-3,.55-6,1-9,1.55-3.37.61-6.72,1.26-10.08,1.89-.42.08-.84.18-1.26.24l-12.3,1.58c-5.23.67-10.46,1.36-15.7,2-2.33.27-4.68.4-7,.56-6.19.45-12.39.74-18.56,1.35-7.46.73-14.94.9-22.43.93-9.85,0-19.7.21-29.55.21q-8.78,0-17.54-.41-10.16-.47-20.27-1.29c-6.82-.58-13.62-1.33-20.41-2.13-5.45-.63-10.87-1.44-16.31-2.18-3.74-.52-7.48-1-11.21-1.6-3.5-.57-7-1.29-10.48-2-2.23-.44-4.45-.94-6.67-1.42-4.25-.91-8.51-1.77-12.74-2.76-2.35-.56-4.64-1.34-7-2-1.7-.5-3.41-1-5.1-1.52q-7.49-2.44-14.95-4.95a1.8,1.8,0,0,1-1.07-.9,2,2,0,0,0-2.35-1.39c-2.58.18-4.64-1.06-6.75-2.25-2.47-1.41-5-2.63-7.47-4.11-5.11-3.11-10-6.56-13.82-11.26a25.22,25.22,0,0,1-5.32-9.62A28.53,28.53,0,0,1,.2,373.07a23.19,23.19,0,0,0,.24-2.34c.16-7.06.1-14.13.49-21.18.32-5.68,1.12-11.35,1.82-17,.44-3.61,1-7.19,1.68-10.77.41-2.23,1-4.45,1.58-6.64s1.28-4.06,2-6.08a47.79,47.79,0,0,1,11.36-19.29,34.77,34.77,0,0,1,12.59-8.22c2.94-1.07,5.85-2.24,8.83-3.15,2.37-.72,4.85-1.11,7.28-1.64l9.17-2c.35-.08.68-.21,1-.27,3-.52,5.92-.92,8.83-1.58,4.23-1,8.41-2.1,12.61-3.18,2.07-.53,4.13-1,6.18-1.62a38.17,38.17,0,0,0,4-1.33c4.39-1.81,8.75-3.7,13.13-5.54,6.58-2.77,12.59-6.55,18.58-10.35,2.76-1.74,5.32-3.79,8-5.69A9,9,0,0,1,130.54,244.69Z"/><path d="M192.37,242.46a74.6,74.6,0,0,1-13.29-2.18,68.48,68.48,0,0,1-17.53-7.55,76.05,76.05,0,0,1-11.66-8.57c-2.75-2.47-5.57-4.88-8.13-7.54A125.57,125.57,0,0,1,126,196.54c-2.81-4.45-5.6-8.92-8-13.57s-4.54-9.78-6.75-14.7c-.5-1.1-.82-2.27-1.32-3.37a5.24,5.24,0,0,0-2.59-2.87,16.65,16.65,0,0,1-6.79-6.92,57.26,57.26,0,0,1-5.42-13.37,67.72,67.72,0,0,1-2-25.64,17.55,17.55,0,0,1,3.38-9.32,7.87,7.87,0,0,1,2.33-2.09,2.59,2.59,0,0,0,1.5-2.58c0-1.21.16-2.43.12-3.63a128.5,128.5,0,0,1,1-16.64c.42-4.4.76-8.82,1.53-13.17s1.93-8.6,3.09-12.86c.74-2.73,1.72-5.4,2.71-8.06a58.64,58.64,0,0,1,7.78-14.37,41.41,41.41,0,0,1,15-13c5.66-2.77,10.39-7,16-9.71,3.31-1.62,6.67-3.18,10.1-4.51,3.24-1.25,6.59-2.25,9.94-3.19a52.23,52.23,0,0,1,7.12-1.45C178.94.94,183.19.34,187.45.18c6.84-.24,13.7-.45,20.5.82,3.5.66,7.07.94,10.54,1.7a81.06,81.06,0,0,1,9.41,2.75,67.92,67.92,0,0,1,12,5.5,69.07,69.07,0,0,1,6.71,4.1A84.33,84.33,0,0,0,256,20.88a46.69,46.69,0,0,1,16.71,16.39,59.65,59.65,0,0,1,5.56,11.24,79.86,79.86,0,0,1,4.22,14.74c.52,3.23,1.25,6.43,1.85,9.66.18,1,.29,2,.38,3,.5,5.68,1,11.36,1.49,17,.3,3.4.64,6.81,1,10.2a2.56,2.56,0,0,0,.86,1.57c3.34,2.61,4.58,6.33,5.17,10.22a60.48,60.48,0,0,1,.66,10.24,67.75,67.75,0,0,1-2.59,17.29,57.28,57.28,0,0,1-4.05,10.5c-1.8,3.51-3.95,6.72-7.45,8.86a5.84,5.84,0,0,0-2.07,2.61c-1.49,3.37-2.72,6.87-4.25,10.23s-3.21,6.64-4.94,9.9a157,157,0,0,1-10.94,17.53,124.29,124.29,0,0,1-16.23,18.66,86.78,86.78,0,0,1-18.66,13.76A77.89,77.89,0,0,1,212.65,239,62.8,62.8,0,0,1,192.37,242.46Z"/><path d="M482.93,325.91a8.07,8.07,0,0,0-5.89-7.32c-4.32-.93-8.66-1.7-13-2.34-2.92-.43-3.54-.88-4.54-3.67s-2.07-5.28-3.25-7.86a3,3,0,0,1,.19-3.53c2.48-3.29,4.86-6.66,7.2-10.06a11,11,0,0,0,1.8-3.58,9.54,9.54,0,0,0-2.84-9.54c-3.22-3.11-6.33-6.33-9.48-9.5l-6.18-6.17a9.86,9.86,0,0,0-12.7-1c-3,2.18-6,4.28-9,6.53-1.83,1.39-3.55,2.46-5.66.57-.14-.13-.4-.13-.6-.21-2.82-1.18-5.63-2.37-8.45-3.53a2,2,0,0,1-1.4-1.71c-.44-2.89-.91-5.77-1.39-8.66-.28-1.68-.52-3.38-.91-5-1.11-4.71-4.14-7-9-7.07-3.28,0-6.56-.09-9.85-.1-4.71,0-9.42,0-14.13,0a8.46,8.46,0,0,0-7.76,5.44,58,58,0,0,0-1.4,7.13c-.2,1-.38,2.09-.56,3.14a24.35,24.35,0,0,0-.62,4,3,3,0,0,1-2.34,3.33c-.41.13-.79.32-1.19.48-2.68,1.12-5.38,2.17-8,3.38a2.89,2.89,0,0,1-3.34-.22c-3.31-2.47-6.69-4.83-10.08-7.18a9.6,9.6,0,0,0-3.37-1.77c-3.74-.7-7.14,0-10,2.88-4.35,4.49-8.86,8.83-13.27,13.27-1.65,1.66-3.44,3.21-4.36,5.46a9.1,9.1,0,0,0,.11,7.81c.57,1.14,1.94,1.71,2.27,2.66.66,1.85,2,2.71,3.91,3.6-1,1-.74,1.71,0,2.54.88,1,1.52,2.23,2.34,3.31a2.74,2.74,0,0,1,.24,3c-.77,1.75-1.55,3.5-2.3,5.25q-1,2.36-2,4.73a2.64,2.64,0,0,1-2.46,1.75c-1.28.11-2.56.23-3.82.42-2,.31-4.09.62-6.1,1.06a21.87,21.87,0,0,0-5.74,1.59,8.08,8.08,0,0,0-4.54,7.65c.08,6,0,12,0,18,0,2.43.06,4.85.06,7.28a7.4,7.4,0,0,0,2.12,4.76c2,2.42,4.88,2.81,7.65,3.33,3.57.66,7.18,1.11,10.77,1.6a2,2,0,0,1,1.81,1.26c.28.66.61,1.29.89,2,1.18,2.81,2.34,5.64,3.54,8.44a2.77,2.77,0,0,1-.28,3.17c-1.32,1.67-2.55,3.42-3.76,5.18-1.64,2.4-3.39,4.76-4.8,7.3a8.88,8.88,0,0,0,1.41,9.56c5.88,5.88,11.72,11.79,17.66,17.61a6.74,6.74,0,0,0,3.28,1.84c2.91.5,5.78.39,8.35-1.56,3.35-2.52,6.87-4.81,10.23-7.33a3,3,0,0,1,3.52-.26c1.52.76,3.11,1.39,4.67,2.05,1.83.78,3.7,1.47,5.5,2.32a2.25,2.25,0,0,1,1.14,1.36c.52,2.65.89,5.33,1.35,8a51.26,51.26,0,0,0,1.35,7.13c1,3.17,3.24,5.63,6.73,5.7,9,.2,18,.08,27,.06,1.82,0,3.18-1,4.53-2.14,2.47-2.08,2.77-5,3.3-7.88.64-3.43,1.09-6.9,1.58-10.36a2.24,2.24,0,0,1,1.36-2c.66-.28,1.29-.61,1.95-.88,2.74-1.15,5.5-2.23,8.21-3.44a3,3,0,0,1,3.36.27c3.37,2.5,6.79,4.92,10.24,7.31s7.18,2.7,10.8.4a24.43,24.43,0,0,0,3.9-3.59c4.89-4.87,9.77-9.74,14.6-14.66a7.65,7.65,0,0,0,2.05-4.13,9.66,9.66,0,0,0-1.85-7.67c-2.45-3.4-4.84-6.85-7.32-10.24a2.81,2.81,0,0,1-.18-3.35c.75-1.44,1.35-3,2-4.47.79-1.89,1.55-3.8,2.32-5.71a1.87,1.87,0,0,1,1.6-1.23c3.24-.47,6.49-.92,9.72-1.46a47.15,47.15,0,0,0,5.63-1.25,8.19,8.19,0,0,0,5.48-7.88c.05-6.64,0-13.28,0-19.92C483,329.48,483,327.7,482.93,325.91Zm-58.18,14.82a41.33,41.33,0,0,1-1.94,10,38.83,38.83,0,0,1-20.06,23,36,36,0,0,1-9.93,3.11,39.13,39.13,0,0,1-7.85.65,32.65,32.65,0,0,1-10-1.86c-2.79-1-5.54-2.13-8.62-3.32a6.34,6.34,0,0,1-.56.58c-.09.08-.27.07-.64.16,0-.07-.24-.27-.22-.44a2.9,2.9,0,0,0-1.7-2.9,11.73,11.73,0,0,1-1.2-.9c-2.12-1.66-2.12-1.66-4.6-1.08,0-.33-.24-.79-.1-.94,1.1-1.17.41-2.06-.37-3a37.5,37.5,0,0,1-5-7.41,34.61,34.61,0,0,1-3.26-9.19,37.92,37.92,0,0,1-1.06-7.6,38.93,38.93,0,0,1,10.11-26.49,38.07,38.07,0,0,1,13.21-9.49,37.21,37.21,0,0,1,32.73,1,39.68,39.68,0,0,1,9.18,6.51,32.85,32.85,0,0,1,7.27,9.62c.86,1.86,2,3.61,2.83,5.47a11.48,11.48,0,0,1,.59,2.65A47.32,47.32,0,0,1,424.75,340.73Z"/></g></g></svg>