<svg xmlns="http://www.w3.org/2000/svg" viewBox="0 0 97.99 124.25"><g id="Capa_2" data-name="Capa 2"><g id="Capa_1-2" data-name="Capa 1"><path d="M87.36.67c-2.47,11.68-5,23.35-7.52,35.51H98V45.6c-5.24,0-10.5.15-15.75-.05-3.16-.13-4.72.66-5.34,4.14C75.25,59,73.12,68.25,71.05,78.15H93.79V88c-7,0-13.8.14-20.59-.06-3.25-.1-4.55.88-5.2,4.27-2,10.61-4.54,21.12-6.89,31.81H51.67c2.45-12,4.84-23.59,7.39-36-10.25,0-20.18-.09-30.11.16-.93,0-2.32,2.08-2.62,3.39-1.87,8.28-3.48,16.61-5.21,24.92s-1.75,8.33-11.06,7.33c2.39-11.7,4.76-23.37,7.29-35.77H0V78.4H19.48c2.31-11,4.52-21.54,6.88-32.74h-22V36.39H28.25c2.67-12.12,5.27-24,7.92-36h9.49c-2.5,11.86-5,23.5-7.49,35.52h32c2-9.26,4-18.65,6-28.07C77.9-.59,78.06-.74,87.36.67ZM36.22,45.87,29.34,78h32l6.72-32.14Z"/></g></g></svg>