<svg xmlns="http://www.w3.org/2000/svg" viewBox="0 0 980 653.4"><g id="Capa_2" data-name="Capa 2"><g id="Capa_2-2" data-name="Capa 2"><path d="M963.9,16.2C953.1,5.4,940.3,0,925.6,0H54.5C39.7,0,27,5.4,16.2,16.2S0,39.8,0,54.5V598.9c0,14.8,5.3,27.5,16.1,38.3s23.6,16.2,38.3,16.2H925.5c14.8,0,27.5-5.4,38.3-16.2S980,613.6,980,598.9V54.5C980,39.7,974.6,27,963.9,16.2ZM542.1,185.13h21.83v98.55H542.1Zm-201.73.33h75.9v19.08H363.41v18.54H416v20.17H374.11c-11.44,0-11,0-11.57,11.12-.42,7.86,1.88,10.7,10.06,10.34,14.32-.63,28.68-.18,44-.18v19.15h-76.2Zm-86.45,99c-5.29.16-9.71.41-12.4-6.29-8.41-21-17.69-41.67-26.67-62.45a15.06,15.06,0,0,0-4.92-6.71v75.37c-15.24,0-29.78.27-44.28-.33-1.94-.09-4.29-4.38-5.46-7.14-6.17-14.56-6.06-14.61-21.6-14.6-9.13,0-18.26.19-27.37-.08-4.5-.13-6.82,1.36-8.65,5.68-7.32,17.26-7.5,17.19-26.63,16.51-1,0-2-.27-3.94-.52,6.2-15,12.2-29.42,18.19-43.9,6.75-16.32,13.62-32.6,20.15-49,1.78-4.47,4.08-6.57,9.12-6.28,9.09.52,20.24-2.69,26.73,1.52S154.43,201.66,158,210c8.41,19.82,16.63,39.72,24.95,59.58.92,2.18,2.05,4.26,3.09,6.39l2-.43V184.9c11.81,0,23.05-.31,34.23.3,1.93.1,4.21,3.86,5.36,6.37,9.09,19.79,17.94,39.69,27.6,61.18,1.89-4,3.23-6.46,4.32-9.07,7.34-17.57,14.77-35.11,21.85-52.79,1.81-4.52,4.22-6.41,9.19-6.24,10.14.34,20.29.1,30.91.1v99.1h-22v-74.6l-1.9-.7c-1.14,2.14-2.44,4.21-3.4,6.43-9.09,21-18.5,41.94-26.95,63.22C264.29,285.53,259.23,284.25,253.92,284.41ZM498.68,422a102,102,0,0,1-18.08,1.76c-8.81.29-17.64.08-28.11.08,0,8.91-.32,17.34.11,25.74.32,6.22-1.94,8.23-8.09,8-11.87-.48-25.25,3.08-35.22-1.33s-16.37-16.5-24.35-25.22c-1.66-1.83-3.34-3.64-5.89-6.4-8.75,9.66-16.61,18.92-25.17,27.47-2.75,2.74-7.32,5.07-11.1,5.13-25.71.45-51.43,0-77.13.37-6.56.09-8.52-1.93-8.45-8.44.3-27.92.12-55.85.15-83.78,0-2.16.34-4.32.58-7.13,3-.15,5.64-.39,8.32-.39,25.71,0,51.42-.25,77.13.23,4,.07,8.9,2.47,11.74,5.39,8.25,8.45,15.66,17.73,24.09,27.49,8.84-9.76,16.84-19.17,25.55-27.87a18,18,0,0,1,11.12-5c22.94-.46,45.89-.33,68.84-.14a64.79,64.79,0,0,1,14.74,1.82c15.09,3.68,22.53,14.39,22.36,31.45S514,418.68,498.68,422Zm27.84-138H503.46c0-6.18.13-12.4,0-18.61-.32-12.83-4.82-17.3-17.77-17.52-9.32-.15-18.65,0-28.74,0v35.92H435.15v-99c10.92,0,21.61,0,32.3,0s21.56-.08,32.32.29c13.74.48,23.21,6.87,26.5,17.33,4,12.52,0,24.31-11,33l-3.61,2.87C532,248.42,525,266.85,526.52,284Zm98.31,172.93H603.16c0-6.38.23-12.64,0-18.86-.53-11.88-4.87-16.43-16.76-17.13-7.71-.45-15.47.08-23.19-.24-5.25-.22-6.69,2.15-6.58,6.94.21,9.38.06,18.76.06,29H534.5V358.78c23.09,0,45.94-.64,68.72.28,11,.44,20.24,5.84,22.92,18.06,2.8,12.77-.58,23.45-11.13,31.56-1.07.82-2.09,1.71-3.19,2.61C625.79,421.63,628.89,432.5,624.83,456.93Zm92.88-.2H641.83V358.11h75.85v19.53H674.81c-11.09,0-15.21,5.74-11.22,16.51.61,1.65,4.14,3.09,6.36,3.14,12.43.3,24.87.15,37.3.15h9.26v19.11H663.83v21h53.88Zm-3.28-178.1c-7.18-16.34-7.1-16.38-24.59-16.37-8.29,0-16.6.26-24.87-.1-4.94-.22-8.22,1.36-9,6.25-2.34,14.59-11.45,18.07-24.71,16.09-7.61-1.13-15.48-.56-23-1.85-15.09-2.58-24.56-11.8-28.49-26.58a81,81,0,0,1-.05-42.59c4.34-16,14.92-25.95,31.38-27.76,11.15-1.23,22.53-.24,34.87-.24v19.7c-7,0-13.5-.09-20,0-17.24.29-23.45,5.72-25.49,22.67a55,55,0,0,0,0,13.2c2.28,18.8,10.35,25,29.17,22.13,2.42-.37,5.24-3.59,6.35-6.15,9.47-21.76,18.76-43.6,27.67-65.59,2.12-5.23,4.88-7.16,10.41-6.78,8.79.61,19.63-2.47,25.85,1.66s7.89,15.11,11.26,23.21c8.18,19.61,16.18,39.3,24.27,58.95a17.31,17.31,0,0,0,4.79,7.24V185c12.13,0,23.32-.22,34.47.24,1.66.06,3.53,3.1,4.73,5.1,10.75,18,21.36,36.14,32,54.21a18.51,18.51,0,0,0,5.9,6.62V185.3h22.34v99.07c-9.89,0-19.51.34-29.07-.26-2.18-.14-4.74-3.2-6.11-5.52-11.82-20-23.39-40.07-35.06-60.12-1.34-2.31-2.79-4.56-5.55-9v74.91c-15.45,0-30,.19-44.51-.25C717.63,284.05,715.4,280.83,714.43,278.63Zm68.8,178.46c-15.45.61-30.94.21-46.42.22a22.42,22.42,0,0,1-3.62-.67V437c7.19,0,14.49.05,21.79,0,8.56-.08,17.13-.09,25.68-.46,5.37-.24,9-3.08,8.94-8.81s-3.23-9.06-9.3-9.41c-8.81-.51-17.75-.49-26.4-2-17.1-3.06-24.2-12.4-23.71-29.43.47-15.89,9.65-26.24,25.61-28.61a62.74,62.74,0,0,1,9.1-.35c14.32,0,28.63,0,43.63,0v20.93H770.82c-2.77,0-5.53,0-8.29.09-5.24.11-9.22,3-8.44,7.94.54,3.45,4.1,8.54,7,9.09,8.58,1.62,17.53,1.27,26.32,1.81,13.82.85,22.52,6.4,25.07,17.63C817.73,438.23,809.42,456.05,783.23,457.09Zm92.24-.09c-16.78.63-33.61.13-51,.13V437c12.15,0,24.19.07,36.23,0,4.4,0,9.26.55,13.05-1.11,3-1.31,6.49-5.7,6.4-8.6s-3.92-7.64-6.84-8.28c-7.19-1.58-14.8-1.25-22.24-1.75-20.16-1.37-30.54-11.77-30-30,.54-17.64,12.53-29,31.34-29.3,15.43-.23,30.86-.05,47.32-.05v20.91H873.89c-6.91,0-13.95-.71-20.65.45-3.1.54-7.39,4.6-7.75,7.48s3,7,5.82,9.11c2.36,1.72,6.33,1.45,9.61,1.63,4.68.24,9.39,0,14.08.13,20.26.5,29.57,9,30,27.3C905.44,444.84,895.42,456.25,875.47,457Z"/></g><g id="Capa_1-2" data-name="Capa 1"><path d="M666.77,241h32.61C694,227.63,689,215.13,683.09,200.54,677.19,215.17,672.13,227.69,666.77,241Z"/><path d="M333.65,377.79c-16-.27-32.06-.19-48.1-.08-1.81,0-5.12.66-5.2,1.33-.65,5.14-1.27,10.45-.48,15.48.22,1.37,5.29,2.73,8.16,2.79,14,.29,28,.13,41.94.13v19.78H279.64v20.26c19.05,0,37.24,0,55.44-.09a6.63,6.63,0,0,0,4.27-2c8.35-9.08,16.55-18.29,25-27.73-8.25-9.45-15.73-18.3-23.6-26.8A11,11,0,0,0,333.65,377.79Z"/><path d="M430,449.74v-82L393.3,407.68Z"/><path d="M486.19,378a85.14,85.14,0,0,0-11.53-.35c-24.88,0-24.88,0-21.66,24.89a9.7,9.7,0,0,0,1,1.75c10.38,0,20.82.29,31.23-.1,7.49-.28,12.06-5.45,12.45-12.82C498.08,383.81,494.24,379.13,486.19,378Z"/><path d="M113.22,241.11H146c-5.59-13.8-10.58-26.16-16.43-40.61Z"/><path d="M494,205.5c-12.19-1.11-24.55-.47-36.93-.47v21.88c12.44,0,24.51.46,36.52-.19,6.26-.34,9.37-5.68,8-11.34C500.61,211.54,496.9,205.76,494,205.5Z"/><path d="M593,378.58a114.35,114.35,0,0,0-17.28-.91c-21.65-.09-21.65,0-18.11,23.09,11.61,0,22.89.28,34.15-.11,6.52-.23,9.73-4.62,10.07-11S598.83,379.51,593,378.58Z"/></g></g></svg>