<svg xmlns="http://www.w3.org/2000/svg" viewBox="0 0 980 653.4"><g id="Capa_2" data-name="Capa 2"><g id="Capa_1-2" data-name="Capa 1"><path d="M963.9,16.2C953.1,5.4,940.3,0,925.6,0H54.5C39.7,0,27,5.4,16.2,16.2S0,39.8,0,54.5V598.9c0,14.8,5.3,27.5,16.1,38.3s23.6,16.2,38.3,16.2H925.5c14.8,0,27.5-5.4,38.3-16.2S980,613.6,980,598.9V54.5C980,39.7,974.6,27,963.9,16.2ZM920.11,445.57H898.32c-32.24,0-64.5.38-96.73-.35-5.69-.12-12.52-3.57-16.67-7.67-10.31-10.18-19.38-21.62-29.71-33.44-10.78,12.19-20.3,23.8-30.82,34.41-3.6,3.63-9.68,6.75-14.64,6.76q-157.65.59-315.31,0c-5.09,0-10.16-3.78-16-6.1,0,.14-.49,3-1,6.35-43.11,0-85.8.12-128.47-.27-3.1,0-7-3.23-9-6-2.38-3.24-3.18-7.66-4.63-11.58-10.08-27.26-10.08-27-38.93-26.92-7.45,0-12.06,1.89-13.6,9.4a13.88,13.88,0,0,1-.8,2.38c-4.39,10.77-6,25.37-14,31.21-7.47,5.45-21.72,1.74-33,1.78-25.52.1-51,0-77.95,0,1.74-4.85,2.93-8.71,4.48-12.42,30.27-72.54,60.72-145,90.69-217.65,3.54-8.56,7.74-11.86,17.33-11.54,24.68.83,49.42.65,74.12.07,8.1-.19,11.89,2.47,14.44,10a110.26,110.26,0,0,0,14.74,28.73V204.55c33.88,0,65.65,1.1,97.3-.44,16.76-.82,25.66,3.75,31.08,20.11,5.86,17.69,14.93,34.31,23.4,53.18,9.8-22,19.11-42,27.67-62.43,3.11-7.41,6.68-10.71,15.47-10.66,82.5.41,165,.09,247.5.6,5.6,0,12.42,3.87,16.51,8.06,9,9.19,16.55,19.74,25.82,31.11,10-11.63,18.83-22.59,28.47-32.83,3-3.23,8.13-6.35,12.32-6.4,39.76-.48,79.53-.29,122.66-.29l-97.35,120C855.8,364.88,887,404.06,920.11,445.57Z"/><path d="M504,236.23c-21.64-3.29-31.55,5.8-38.91,25.45-11.55,30.81-26.3,60.42-40.37,92.08-2.74-5.88-4.73-10-6.59-14.18-14-31.31-27.89-62.66-42.08-93.88-1.55-3.4-4.77-8.49-7.35-8.58-21.15-.69-42.34-.39-64.47-.39V398.47c-3.66-3.19-5.41-6.79-7-10.48-19.8-47-39.81-93.95-59.12-141.17-3.42-8.38-7.68-11.52-16.54-10.91a257.75,257.75,0,0,1-32.65,0c-8.24-.49-12.55,2-15.86,10.1-21.52,52.65-43.69,105-65.58,157.52-1.2,2.88-1.89,6-2.85,9.12,42,4.95,42,4.95,56.28-32.62a13.56,13.56,0,0,0,.79-2.38c1.19-6.71,5.44-8.18,11.76-8.09,21.78.32,43.58-.22,65.34.46,3.7.12,8.91,3.85,10.57,7.28,4.52,9.37,7.19,19.62,11.3,29.22,1.23,2.87,4.74,6.75,7.27,6.8,26.2.5,52.41.31,79.41.31V287.78l2.91-.46q21.78,50.54,43.57,101.08C405,414.16,405,413.85,433.5,413.92c7.9,0,11.87-2.42,14.78-9.84,13.29-33.87,27.13-67.52,40.83-101.23,1.64-4,3.67-7.86,5.51-11.79l2.63.5v121.2h48.63V236.61C531.44,236.61,517.46,238.27,504,236.23ZM179.7,331.76l24.68-59.21,26.16,59.21Z"/><path d="M854.64,236.61c-14.91,0-26.64.42-38.31-.15-7.8-.39-13.15,1.84-18.23,8.12C785,260.8,771,276.35,756.89,292.78,743.18,276,730.4,260,717.2,244.32c-2.72-3.22-6.94-7.31-10.52-7.35-43.06-.51-86.14-.33-130.33-.33V413.09c4.9.24,9,.61,13.08.61,34.77.05,69.54-.24,104.3.23,8.44.11,13.87-2.74,19.17-9,13.66-16.2,28-31.83,42.53-48.21,15.05,17.24,29,33.37,43.15,49.36,2.42,2.73,5.39,6.85,8.27,7,15.06.7,30.17.33,47.61.33l-70.89-89ZM683.87,376c-1.37,1.54-4.54,2-6.88,2.06-18.79.16-37.58.09-57.35.09V340.62H677V309.74H619.73V272.07c21.61,0,43.26-.17,64.9.23,2.65.06,5.9,2.74,7.77,5.08,12,15.05,23.69,30.34,36.58,47C714,341.62,699.06,358.93,683.87,376Z"/></g></g></svg>