<svg xmlns="http://www.w3.org/2000/svg" viewBox="0 0 441.51 441.29"><g><path d="M220.83,441.08c-3.73,0-7.57.55-11.17-.13-4.61-.88-9.29-.45-13.86-1.44-2.81-.6-5.75-.63-8.61-1-2.41-.34-4.79-.86-7.19-1.32-2.16-.4-4.32-.8-6.47-1.25-1.86-.39-3.72-.83-5.58-1.3-2.75-.7-5.51-1.39-8.24-2.18-2.37-.68-4.7-1.5-7.05-2.26-1.09-.35-2.18-.67-3.25-1.06-3-1.09-6-2.21-9-3.31-1.78-.66-3.58-1.28-5.34-2-1.5-.6-3-1.31-4.41-2-2.17-1-4.34-2-6.48-3.08s-4.18-2.08-6.25-3.18c-2.82-1.5-5.64-3-8.41-4.6-2.07-1.19-4.09-2.47-6.06-3.81-5-3.33-10-6.54-14.75-10.13-5.41-4.1-10.64-8.46-15.76-12.92-3.61-3.15-7-6.57-10.31-10-4.15-4.38-8.22-8.85-12.12-13.45-3-3.58-5.87-7.32-8.57-11.15-3.13-4.44-6.07-9-9-13.6C31.15,333,29.46,330,27.84,327c-2.26-4.15-4.47-8.33-6.58-12.55-1.1-2.21-2-4.53-2.92-6.81-1.35-3.2-2.75-6.37-4-9.61-1.07-2.84-1.95-5.76-2.91-8.65q-1.09-3.27-2.15-6.57c-.38-1.2-.76-2.41-1-3.63-.7-2.84-1.35-5.69-2-8.55-.56-2.41-1.15-4.82-1.64-7.25-.58-2.82-1.14-5.65-1.55-8.5-.5-3.51-.89-7-1.23-10.57-.32-3.32-.14-6.75-.85-10-1.16-5.3-.65-10.61-.8-15.91-.09-3-.4-6.1.27-8.95,1-4.43.42-9,1.41-13.38.66-3,.66-6.06,1.09-9.09.34-2.41.87-4.79,1.32-7.19.41-2.16.8-4.32,1.25-6.47.4-1.86.85-3.72,1.32-5.57.36-1.46.77-2.9,1.17-4.35.8-2.8,1.6-5.61,2.42-8.41.67-2.26,1.31-4.53,2.1-6.74.95-2.67,2.05-5.28,3.06-7.92.69-1.77,1.29-3.58,2-5.34.62-1.53,1.34-3,2-4.53,1-2.2,2-4.41,3.11-6.59s2-4,3.07-6c1.85-3.43,3.7-6.85,5.65-10.21,1.45-2.48,3-4.9,4.61-7.29,2.45-3.63,4.93-7.24,7.48-10.79,1.63-2.27,3.41-4.44,5.17-6.61,2.27-2.79,4.55-5.59,6.93-8.3,2-2.23,4-4.36,6.12-6.47,3.61-3.64,7.22-7.29,10.93-10.81C75,55.17,77.56,53.1,80.08,51c3-2.49,6.06-5,9.2-7.32s6.23-4.4,9.4-6.54q4.32-2.91,8.74-5.69c1.58-1,3.25-1.86,4.89-2.77,1.83-1,3.66-2.06,5.53-3,3.32-1.67,6.67-3.29,10-4.91,2.25-1.09,4.5-2.2,6.8-3.2,1.7-.74,3.48-1.3,5.22-2s3.54-1.4,5.33-2.05c2.09-.77,4.2-1.5,6.31-2.21,2.34-.77,4.7-1.51,7-2.25,1.2-.37,2.41-.74,3.63-1.05,2.81-.68,5.61-1.34,8.42-2,2.46-.57,4.91-1.15,7.38-1.66,2.62-.54,5.25-1,7.9-1.47s5.07-.73,7.62-1.05,5-.57,7.53-.81c1-.1,2,0,3.07-.14,2.39-.24,4.77-.68,7.16-.77C215.62,0,220,0,224.31,0c1.8,0,3.61,0,5.41.15,2.35.18,4.69.53,7,.76,3.93.39,7.88.66,11.81,1.12,3.06.37,6.1,1,9.15,1.44,2.25.35,4.51.63,6.75,1.06,1.91.38,3.79.94,5.68,1.4,1.35.33,2.71.58,4,.93,3.7.95,7.42,1.84,11.07,2.94,3.06.92,6,2.09,9.06,3.15,2.67.94,5.38,1.8,8,2.86,3,1.22,6,2.59,9,3.94,3.28,1.5,6.56,3,9.78,4.59,2.42,1.21,4.74,2.6,7.1,3.91,1.71.95,3.42,1.87,5.09,2.88,2.19,1.31,4.36,2.63,6.49,4,3.21,2.12,6.43,4.25,9.56,6.5s6,4.5,9,6.87c3.47,2.8,7,5.59,10.23,8.61,3.94,3.63,7.77,7.41,11.47,11.29s7.52,8,11,12.22c4,4.9,7.7,10,11.38,15.16,2.68,3.75,5.21,7.62,7.61,11.56,2.17,3.55,4.19,7.21,6.07,10.92,2.26,4.48,4.37,9,6.42,13.62,1.53,3.42,2.91,6.91,4.24,10.41q1.86,4.89,3.45,9.86Q432,158,433.62,164c.94,3.44,1.76,6.93,2.53,10.41.84,3.85,1.67,7.71,2.29,11.6.58,3.62.92,7.27,1.28,10.93.32,3.32.14,6.74.84,10,1.18,5.42.67,10.85.81,16.28.08,2.86.37,5.84-.27,8.58-1.06,4.55-.45,9.2-1.44,13.74-.63,2.85-.64,5.82-1.06,8.73-.35,2.41-.87,4.79-1.32,7.19-.41,2.15-.8,4.32-1.25,6.46-.4,1.87-.86,3.73-1.31,5.58-.41,1.66-.81,3.31-1.28,4.95-.73,2.57-1.51,5.13-2.29,7.69-.67,2.22-1.31,4.44-2.06,6.63-.68,2-1.5,3.93-2.24,5.89s-1.32,3.65-2,5.46c-.6,1.54-1.25,3.06-1.93,4.57-1,2.29-2.06,4.59-3.16,6.84s-2.17,4.25-3.3,6.35c-1.79,3.35-3.54,6.72-5.44,10q-2.7,4.68-5.68,9.18-3.54,5.39-7.31,10.61c-1.66,2.3-3.46,4.5-5.25,6.7-2.24,2.77-4.49,5.53-6.84,8.22-1.93,2.2-3.95,4.32-6,6.4-3.66,3.7-7.29,7.44-11.12,11-3.44,3.16-7.07,6.11-10.71,9-3.3,2.63-6.68,5.16-10.11,7.6-3.67,2.6-7.39,5.14-11.19,7.53-3.12,2-6.35,3.74-9.59,5.49q-6.23,3.39-12.55,6.58c-2.21,1.1-4.54,1.95-6.8,2.93-1.7.73-3.38,1.53-5.09,2.23s-3.47,1.36-5.22,2c-2.13.77-4.27,1.53-6.43,2.24-2.34.77-4.7,1.49-7.07,2.21s-5,1.52-7.58,2.25c-1.17.33-2.36.62-3.56.87-1.78.39-3.58.71-5.37,1.09-2.22.48-4.43,1.05-6.67,1.45-2.72.48-5.47.85-8.21,1.24-3.1.43-6.2.86-9.31,1.21-1.95.23-3.92.26-5.87.45-2.35.23-4.68.67-7,.77-3.19.14-6.39,0-9.58,0ZM220.77,25.9l0-.54-17.13,1c-1.67.11-3.36.12-5,.34-3.34.44-6.67,1-10,1.51-2.29.36-4.59.7-6.85,1.19-3.06.66-6.09,1.45-9.12,2.22-2.59.66-5.18,1.32-7.74,2.08-2.18.65-4.32,1.43-6.47,2.17-2.79,1-5.62,1.84-8.36,2.92-3.05,1.21-6,2.57-9,3.92-2.47,1.11-5,2.23-7.36,3.46-3.21,1.65-6.4,3.34-9.52,5.14C120.1,53.7,116,56,112.11,58.65c-4.24,2.88-8.32,6-12.32,9.22-4.3,3.45-8.64,6.89-12.57,10.74-5.44,5.33-10.65,10.92-15.7,16.62-3.19,3.6-6,7.53-8.85,11.43-2.7,3.74-5.22,7.61-7.74,11.47-1.3,2-2.5,4.07-3.65,6.16-1.93,3.47-3.86,7-5.65,10.49-1.33,2.64-2.46,5.38-3.65,8.08-1.07,2.45-2.19,4.88-3.15,7.37-1,2.76-2,5.58-2.9,8.38-1,3.12-2.11,6.22-3,9.37q-1.47,5.09-2.65,10.27c-.68,3-1.19,6-1.75,9-.28,1.47-.57,3-.74,4.44q-.66,5.78-1.19,11.55c-.31,3.41-.75,6.84-.75,10.25,0,7.12.26,14.24.47,21.36.06,2.25.23,4.5.51,6.73.44,3.42,1,6.84,1.54,10.25.4,2.44.85,4.88,1.33,7.31.39,2,.82,4,1.28,5.95q1,4.15,2.07,8.28c.41,1.56.91,3.09,1.39,4.64s.86,2.87,1.35,4.29c.67,1.91,1.38,3.81,2.08,5.71s1.31,3.67,2,5.48c1,2.35,2,4.68,3,7,.94,2.11,1.85,4.24,2.9,6.29,1.63,3.16,3.33,6.27,5.07,9.37s3.46,6.26,5.41,9.24c2.69,4.12,5.59,8.1,8.42,12.13A11.21,11.21,0,0,0,66,338.85l1.42-1.77s0-.08,0-.12c.93-2.1,1.76-4.27,2.83-6.31,1.86-3.54,3.79-7.06,5.86-10.49,2.54-4.22,5.12-8.43,8-12.45,2.62-3.7,5.48-7.24,8.44-10.68,3.39-3.93,6.89-7.79,10.55-11.47,3.05-3.07,6.3-5.95,9.63-8.72s6.78-5.39,10.3-7.91,7-4.79,10.59-7.09c1.87-1.2,3.84-2.24,5.79-3.3,2.63-1.43,5.26-2.87,7.94-4.19,2.83-1.4,5.71-2.7,8.6-4,1.55-.69,3.13-1.34,4.73-1.92,1.9-.7,3.84-1.28,5.75-2,1.13-.41,1.17-1.22.26-2-3.37-2.88-7-5.43-10-8.83-1.83-2.13-3.92-4.06-5.66-6.26-2.33-2.94-4.53-6-6.62-9.14a64.53,64.53,0,0,1-3.79-6.61,58,58,0,0,1-2.64-5.86c-1.43-3.71-2.77-7.45-4.1-11.19a32.51,32.51,0,0,1-.9-3.39c-.2-.87-.34-1.75-.5-2.63-.41-2.4-.88-4.8-1.21-7.21-.26-1.85-.37-3.73-.49-5.6a61.82,61.82,0,0,1-.27-6.23c.14-3.55.42-7.09.76-10.62a56.82,56.82,0,0,1,1-7c.69-3,1.57-6.05,2.47-9,.55-1.82,1.24-3.6,2-5.36s1.45-3.32,2.22-5a62.48,62.48,0,0,1,2.85-5.88,100.12,100.12,0,0,1,5.87-8.92A103.66,103.66,0,0,1,156.68,109a75.29,75.29,0,0,1,15.75-12.55c3.85-2.2,7.63-4.55,11.63-6.45a108,108,0,0,1,10.46-3.85c1.23-.43,2.51-.68,3.76-1,1.65-.44,3.27-1,4.94-1.29,2.39-.43,4.82-.74,7.25-1a100.2,100.2,0,0,1,10.37-.74c4,0,8.06.47,12.08.92,2.57.3,5.11.91,7.66,1.44,1.31.27,2.61.62,3.89,1,3.09,1,6.19,1.92,9.24,3,1.71.6,3.34,1.4,5,2.16s3.09,1.41,4.57,2.22,3.16,1.83,4.67,2.85c3.18,2.15,6.42,4.25,9.45,6.61a76.76,76.76,0,0,1,11.07,10.56c.92,1.08,1.9,2.12,2.72,3.27,2.23,3.13,4.49,6.26,6.56,9.5,1.45,2.27,2.69,4.7,3.91,7.11,1.05,2.08,2,4.23,2.87,6.39q1.22,2.91,2.19,5.9c.59,1.78,1,3.6,1.52,5.4.39,1.5.84,3,1.09,4.52.41,2.53.69,5.08,1,7.62.1.81.13,1.63.18,2.44.16,2.73.43,5.45.43,8.18a62.11,62.11,0,0,1-.5,6.94c-.36,3.24-.8,6.47-1.27,9.69a46,46,0,0,1-.92,4.65c-.43,1.64-1,3.25-1.53,4.86-.42,1.32-.8,2.66-1.32,3.93-.89,2.17-1.82,4.33-2.82,6.45a83.63,83.63,0,0,1-4,7.92,101.67,101.67,0,0,1-6.41,9.26,95.3,95.3,0,0,1-7.69,9c-3,3-6.42,5.73-9.64,8.58a8.24,8.24,0,0,0-.82.94,6.53,6.53,0,0,0,1.35,1.09c1.11.48,2.32.74,3.44,1.21,3.82,1.58,7.66,3.12,11.41,4.86,4.36,2,8.7,4.13,12.93,6.43,3.47,1.89,6.83,4,10.1,6.23,3.82,2.6,7.57,5.3,11.2,8.14,3.42,2.67,6.78,5.44,9.93,8.42,4.08,3.87,8,7.9,11.83,12.07,3,3.29,5.74,6.81,8.42,10.37,2.82,3.76,5.5,7.64,8.1,11.56,1.71,2.59,3.23,5.32,4.72,8.05,1.7,3.13,3.29,6.33,4.9,9.52.82,1.61,1.55,3.28,2.4,4.88.37.72.82.92,1.41,0,1.26-1.9,2.67-3.69,4-5.56,1.57-2.23,3.14-4.46,4.62-6.74,1.36-2.11,2.63-4.27,3.89-6.44,1.84-3.19,3.68-6.39,5.43-9.64,1.14-2.13,2.17-4.33,3.17-6.53q2-4.36,3.83-8.78c1-2.37,1.87-4.76,2.74-7.17,1.11-3.08,2.18-6.19,3.22-9.3.51-1.53.91-3.09,1.36-4.64s.91-2.79,1.24-4.22c.41-1.77.68-3.59,1-5.38.83-4.1,1.78-8.17,2.49-12.29.66-3.84,1.23-7.72,1.57-11.6.46-5.29.81-10.6.92-15.9a129.76,129.76,0,0,0-.69-20.48c-.23-1.69-.15-3.43-.37-5.13-.44-3.3-1-6.59-1.49-9.88-.36-2.29-.7-4.59-1.16-6.86-.36-1.79-.9-3.54-1.33-5.32-.34-1.38-.62-2.77-.95-4.15-.39-1.57-.76-3.16-1.22-4.71-.71-2.41-1.47-4.8-2.24-7.19-.67-2.08-1.33-4.17-2.08-6.23-.67-1.82-1.45-3.6-2.19-5.4-1.23-3-2.41-6-3.71-9-1-2.22-2.12-4.38-3.2-6.56-1-1.93-1.88-3.87-2.92-5.75-1.22-2.19-2.56-4.32-3.86-6.46-1.85-3-3.58-6.18-5.62-9.1q-4.43-6.36-9.25-12.45c-3.11-3.91-6.33-7.74-9.71-11.42-2.89-3.15-6-6.13-9.15-9-4.46-4.06-9-8-13.65-11.88-3.15-2.59-6.51-4.93-9.89-7.22-3.88-2.63-7.85-5.15-11.85-7.59-2.84-1.73-5.78-3.27-8.71-4.83-2-1-4-2-6-3-1.42-.68-2.87-1.31-4.32-2-1.69-.76-3.38-1.53-5.08-2.25-1.87-.79-3.76-1.55-5.65-2.26s-3.81-1.4-5.73-2c-2.12-.7-4.26-1.32-6.39-2-1.59-.49-3.16-1-4.76-1.47s-3.07-.75-4.61-1.14-3.34-1-5-1.31c-2.11-.45-4.25-.78-6.38-1.13-3.49-.57-7-1.2-10.47-1.66-4.15-.55-8.32-1.14-12.49-1.37S225,25.9,220.77,25.9Zm0,389.45v.46c4.82-.23,9.64-.45,14.46-.71,2.36-.13,4.74-.22,7.09-.52,3.71-.46,7.41-1,11.1-1.66,2.8-.47,5.58-1.09,8.36-1.65,1.76-.36,3.53-.64,5.26-1.12,4.85-1.34,9.68-2.75,14.51-4.17,1.28-.38,2.52-.9,3.79-1.35,1.83-.66,3.67-1.3,5.49-2s3.41-1.29,5.08-2,3.15-1.45,4.73-2.17c2.18-1,4.39-1.89,6.52-3,2.57-1.28,5.09-2.65,7.6-4,2.29-1.27,4.6-2.54,6.82-3.95,3.2-2.05,6.37-4.16,9.48-6.35,3.78-2.66,7.59-5.29,11.18-8.19,4.39-3.54,8.56-7.35,12.82-11.05a1.89,1.89,0,0,0,.56-2.68,40.88,40.88,0,0,1-1.94-5.12c-.67-1.83-1.21-3.72-2-5.47-1.86-3.93-3.84-7.82-5.84-11.7-1.15-2.23-2.33-4.45-3.67-6.58-1.46-2.32-3.05-4.58-4.7-6.78-3.13-4.18-6.12-8.5-9.6-12.38a168.21,168.21,0,0,0-13.16-13.14,153.13,153.13,0,0,0-12.6-9.74,107.84,107.84,0,0,0-9.44-6c-3.7-2.13-7.5-4.09-11.32-6-2.56-1.28-5.2-2.4-7.86-3.45-3.13-1.23-6.31-2.33-9.48-3.44-1.11-.39-2.26-.65-3.39-1-1.58-.48-3.15-1-4.75-1.45-1.77-.44-3.58-.72-5.37-1.08l-8.12-1.6c-.56-.11-1.13-.16-1.7-.24-3.3-.43-6.6-1.07-9.91-1.24-4.58-.24-9.19-.16-13.78-.17a68.64,68.64,0,0,0-6.88.18c-3.55.36-7.09.91-10.63,1.43-2.45.36-4.9.76-7.33,1.23-1.91.38-3.79.88-5.69,1.35-1.22.3-2.43.65-3.64,1-1.52.42-3.06.8-4.55,1.28-2.16.7-4.29,1.48-6.43,2.23-1.79.64-3.63,1.17-5.36,2-3.94,1.81-7.86,3.68-11.72,5.65a93.08,93.08,0,0,0-8.79,4.91c-4.43,2.91-8.8,5.94-13,9.18-3.91,3-7.65,6.29-11.29,9.63a86.47,86.47,0,0,0-6.82,7.24c-3,3.49-6.09,7-8.84,10.68s-5.18,7.63-7.64,11.52c-1.38,2.19-2.56,4.5-3.77,6.78-.68,1.27-1.25,2.61-1.87,3.91-1.06,2.22-2.23,4.4-3.16,6.67-1.33,3.27-2.38,6.66-3.77,9.9-.57,1.33,0,1.92.78,2.64,1.8,1.58,3.59,3.18,5.42,4.74,3,2.53,5.87,5.12,8.93,7.52,3.35,2.62,6.82,5.09,10.3,7.54,2.65,1.85,5.36,3.63,8.13,5.31,2.61,1.6,5.31,3.07,8,4.54q4.7,2.55,9.45,5c1.47.75,3,1.35,4.52,2s3.21,1.53,4.86,2.21,3.64,1.36,5.46,2c2.82,1,5.63,2.1,8.47,3.06,2.31.77,4.66,1.41,7,2.09,2.68.77,5.35,1.63,8.08,2.25,3.36.76,6.77,1.35,10.17,1.95s6.73,1.17,10.11,1.62c4.16.55,8.32,1.15,12.5,1.38S216.54,415.35,220.8,415.35Zm1.85-178.08c18.14-.33,34.88-8,47.86-23.33a61.83,61.83,0,0,0,15.05-39.32c.53-21-7.34-38.51-23.29-52.07a61.66,61.66,0,0,0-39.34-15c-21-.51-38.37,7.37-51.92,23.24A61.65,61.65,0,0,0,156,170.35c-.48,20.94,7.44,38.29,23.26,51.79C191.05,232.25,205.06,237.12,222.65,237.27Z"/></g></svg>