<svg xmlns="http://www.w3.org/2000/svg" viewBox="0 0 884.64 296.35">
  <g id="Capa_2" data-name="Capa 2">
    <g id="Shape_1" data-name="Shape 1">
      <g id="Shape_1-2" data-name="Shape 1">
        <path class="cls-1" d="M193.67,240.15a2.63,2.63,0,1,0,2.62,2.63A2.62,2.62,0,0,0,193.67,240.15Zm0-17.56a6.19,6.19,0,1,0,6.19,6.19A6.19,6.19,0,0,0,193.67,222.59Zm-8.82-12.47a17.92,17.92,0,0,1,1.87-.77V188.09a41.16,41.16,0,0,0-16.9,7Zm8.82-48.92a67.58,67.58,0,1,0,67.58,67.58A67.58,67.58,0,0,0,193.67,161.2Zm0,115.85a48.27,48.27,0,1,1,48.27-48.27A48.27,48.27,0,0,1,193.67,277.05Zm7-28.84v21.25a41,41,0,0,0,16.9-7l-15-15C201.88,247.72,201.26,248,200.62,248.21Zm12.48-26.39h21.26a41.05,41.05,0,0,0-7-16.89l-15,15C212.61,220.56,212.87,221.19,213.1,221.82Zm-.78,15.78,15,15a40.89,40.89,0,0,0,7-16.9H213.1C212.87,236.37,212.61,237,212.32,237.6Zm-42.5,24.86a41,41,0,0,0,16.9,7V248.21c-.64-.23-1.26-.49-1.87-.78Zm35.23-33.68a2.63,2.63,0,1,0,2.62-2.63A2.62,2.62,0,0,0,205.05,228.78Zm12.47-33.68a41,41,0,0,0-16.9-7v21.26c.64.22,1.26.49,1.87.77Zm-23.85,22.3a2.63,2.63,0,1,0-2.62-2.62A2.62,2.62,0,0,0,193.67,217.4Zm-19.43,18.33H153a41,41,0,0,0,7,16.9l15-15C174.73,237,174.47,236.37,174.24,235.73ZM175,220l-15-15a40.9,40.9,0,0,0-7,16.89h21.25C174.47,221.19,174.73,220.56,175,220Zm7.27,8.82a2.63,2.63,0,1,0-2.62,2.62A2.62,2.62,0,0,0,182.29,228.78Zm545.64-6.19a6.19,6.19,0,1,0,6.19,6.19A6.19,6.19,0,0,0,727.93,222.59Zm0,17.56a2.63,2.63,0,1,0,2.63,2.63A2.62,2.62,0,0,0,727.93,240.15Zm19.43-18.33h21.26a41.17,41.17,0,0,0-7-16.89l-15,15C746.88,220.56,747.13,221.19,747.36,221.82ZM727.93,161.2a67.58,67.58,0,1,0,67.58,67.58A67.57,67.57,0,0,0,727.93,161.2Zm0,115.85a48.27,48.27,0,1,1,48.27-48.27A48.27,48.27,0,0,1,727.93,277.05Zm18.66-39.45,15,15a41.16,41.16,0,0,0,7-16.9H747.36A17.92,17.92,0,0,1,746.59,237.6ZM879,191.34c-1.25-1.85-4.85-2.67-5.91-4.44-1.42-2.37-1.36-7.17-2.47-9.86-9.21-22.51-19.37-29.4-32.53-37.46-18.48-11.3-38.2-16-60.13-24.15,1,.39-33.07-8.9-41.41-10.35-5.12-1.68-23.62-7-28.09-5.42-4.92-5.08-13.58-7.57-19.72-11.34-9.9-6.08-20.11-12.63-30.07-18.73-5.32-3.26-10.92-5.12-16.26-8.38C628.61,52.77,598.09,39,598.09,39S485.53-24.37,88.91,10.44c-4.79.47-10.68.14-14.29,2.47l-1.48.49c.08,3.81,1.86,15.82,0,18.73-.57,4.38-9,11.13-11.83,14.29-6.54,7.37-13.4,15.3-19.23,23.17-2.67,3.61-5.23,8.74-8.87,11.34-1.15,1.14-7.63,10.67-10.35,14.78C20.28,99.62,15.2,109.41,14,114c-2.52,9.39,1,21.25,2.46,28.59.12.56-.23,15.63,0,22.18-1.67,6-5.52,12.49-7.89,18.24-2.64,6.42-3.19,11.52-8.37,15.28-.68,13.5.28,26.08,6.4,34,3.67,4.75,17.75,26.62,17.75,26.62H127.9a72.31,72.31,0,1,1,131.53,0H662.16a72.31,72.31,0,1,1,131.54,0h52.81s42.83-2.45,27.11-14.3c1.69-4,2-9.91,4.93-13.8a9,9,0,0,1,3.94-1C887.17,219.71,883.35,197.69,879,191.34ZM84.47,86.35s5.38-5,7.89-6.9c7.18-5.35,13.78-11.42,21.2-16.76,11.72-8.43,25.77-20.82,39.43-26.62,8.83-3.75,19-3,29.57-5.42,8.38-1.94,18.84-1.5,27.61-3.45-1,0,22.18-1,21.19-1s14.6-1.54,21.2-1.48c0,24.64,2.95,43.38,2.95,68C141.87,87.65,84.47,86.35,84.47,86.35Zm203.08,5.42-4.43-68.51s37-3.08,72.95-3.2c36.75-.13,72.45,2.7,72.45,2.7l7.4,76.9Zm188.79,10.84S465,24.23,465,23.74,531.87,32.45,559.64,44c9.84,4.08,21.66,8.36,30.56,13.8,4.7,2.87,16.27,8.87,16.27,8.87l2.95,46.83ZM719.11,210.12a17.92,17.92,0,0,1,1.87-.77V188.09a41.16,41.16,0,0,0-16.9,7Zm15.78,38.09v21.25a41,41,0,0,0,16.89-7l-15-15C736.15,247.72,735.53,248,734.89,248.21Zm4.42-19.43a2.63,2.63,0,1,0,2.63-2.63A2.62,2.62,0,0,0,739.31,228.78Zm-22.75,0a2.63,2.63,0,1,0-2.63,2.62A2.63,2.63,0,0,0,716.56,228.78Zm11.37-11.38a2.63,2.63,0,1,0-2.62-2.62A2.63,2.63,0,0,0,727.93,217.4Zm23.85-22.3a41.05,41.05,0,0,0-16.89-7v21.26c.63.22,1.26.49,1.86.77Zm-47.69,67.36a40.92,40.92,0,0,0,16.89,7V248.21c-.64-.23-1.26-.49-1.87-.78Zm4.41-26.73H687.25a41,41,0,0,0,7,16.9l15-15C709,237,708.73,236.37,708.5,235.73Zm.78-15.77-15-15a41,41,0,0,0-7,16.89H708.5C708.73,221.19,709,220.56,709.28,220Z" />
      </g>
    </g>
  </g>
</svg>