<?xml version="1.0" encoding="utf-8"?>
<!-- Generator: Adobe Illustrator 24.2.3, SVG Export Plug-In . SVG Version: 6.00 Build 0)  -->
<svg version="1.1" id="Capa_1" xmlns="http://www.w3.org/2000/svg" xmlns:xlink="http://www.w3.org/1999/xlink" x="0px" y="0px"
	 viewBox="0 0 1000 1000" style="enable-background:new 0 0 1000 1000;" xml:space="preserve">
<path d="M990,228.5v544.1c0,14.7-5.4,27.5-16.2,38.3C963,821.6,950.3,827,935.5,827H64.4c-14.7,0-27.5-5.4-38.3-16.2
	C15.3,800,10,787.3,10,772.5V228.5c0-14.7,5.4-27.5,16.2-38.3S49.7,174,64.5,174h871.1c14.7,0,27.5,5.4,38.3,16.2
	C984.6,201,990,213.7,990,228.5z M495.4,461.9c-7.5,0-13.5,6-13.5,13.3v99.3c0,7.6,6.2,14.1,13.9,13.9c7.3-0.2,13.1-6.1,13.1-13.5
	v-99.8C508.9,467.9,502.9,461.9,495.4,461.9L495.4,461.9z M495.9,410.4c-8.6,0-15.5,6.9-15.5,15.4c0,8.6,6.9,15.7,15.5,15.7
	s15.5-7.1,15.5-15.7C511.3,417.3,504.5,410.4,495.9,410.4L495.9,410.4z M629.9,473.6c0-8.6-6.9-11.9-12.8-11.9l-67.9,0
	c-5.5,0-10.5,3.7-11.8,9.1c-1.8,7.9,4.2,14.9,11.8,14.9h44.6l-58.1,80.6c-1.7,2.4-2.7,5.4-2.7,8.1c0,8.3,6.9,13.2,12.5,13.2h71.9
	c6.2,0,11.7-4.6,12.2-10.8c0.6-7.1-4.6-13.2-11.9-13.2h-48.7l56.9-79.1C628.9,480.7,629.9,477.3,629.9,473.6L629.9,473.6z
	 M429.9,538.5c0,16.6-7.4,26.9-23.6,27c-13.5,0.1-24.4-11-24.4-24.5l0-54.3h25.2c20.3,0,22.8,11,22.8,23.3L429.9,538.5L429.9,538.5z
	 M456.9,509.3c0-28.5-15-46.6-49.6-46.6h-25.4v-38.3c0-8.5-7.6-15.1-16.1-13.4c-6.4,1.3-10.9,7.2-10.9,13.8v113.4
	c0,28.2,15.2,51.5,51,51.5c35.6,0,51-23.3,51-51.5v-28.4l0,0V509.3z M736.5,461.1c-7.5,0-13.6,6.1-13.6,13.6v63.2
	c0,16.7-7.4,27.1-23.6,27.2c-13.5,0.1-24.4-11-24.4-24.5v-66c0-8.5-7.6-15-16.1-13.3c-6.4,1.3-10.9,7.2-10.9,13.8V538
	c0,28.2,15.2,51.5,51,51.5c35.6,0,51-23.3,51-51.5v-63.4C749.9,467.1,743.8,461.1,736.5,461.1L736.5,461.1z M945,512.4
	c0-28.2-13-51.5-48.8-51.5c-16,0-27.4,4.7-35.2,12.4c-7.8-7.7-19.2-12.4-35.3-12.4c-35.6,0-48.8,23.3-48.8,51.5v63.4
	c0,8.5,7.6,15,16.1,13.3c6.4-1.3,10.9-7.2,10.9-13.8v-63c0-16,4.8-26.1,19.8-26.8c12.6-0.6,23.2,9.6,23.2,22.3v67.9
	c0,8.5,7.6,15,16.1,13.3c6.4-1.3,10.9-7.2,10.9-13.8v-62.7c0-16.9,5.2-27.3,21.6-27.5c12.3-0.1,22.4,10,22.4,22.3v68.3
	c0,7.5,6.1,13.6,13.4,13.6c7.5,0,13.6-6.1,13.6-13.6L945,512.4z M105.3,461.1c9.6,7,23,4.8,30-4.8l25.2-34.7c7-9.6,4.9-23-4.8-30
	c-9.6-7-23-4.9-30,4.7L100.4,431C93.5,440.7,95.6,454.1,105.3,461.1L105.3,461.1z M220.5,412.1c-9.6-7-23-4.8-30,4.7l-101,139
	c-7,9.6-4.8,23,4.7,30c9.6,7,23,4.9,30-4.7l101-139C232.2,432.5,230.1,419.1,220.5,412.1L220.5,412.1z M95.7,401.1
	c7-9.6,4.8-23-4.7-30c-9.6-7-23.1-4.8-30,4.7c-7,9.6-4.8,23,4.7,30C75.3,412.8,88.8,410.7,95.7,401.1L95.7,401.1z M249,592.1
	c-9.6-7-23-4.8-30,4.8s-4.9,23,4.7,30c9.6,7,23,4.8,30-4.8C260.7,612.5,258.6,599,249,592.1L249,592.1z M209.5,536.8
	c-9.6-7-23-4.8-30,4.8l-25.3,34.8c-7,9.6-4.9,23,4.7,30c9.6,7,23,4.8,30-4.8l25.3-34.7C221.2,557.2,219.1,543.8,209.5,536.8
	L209.5,536.8z"/>
</svg>
