<svg height='300px' width='300px' xmlns:dc="http://purl.org/dc/elements/1.1/" xmlns:cc="http://creativecommons.org/ns#" xmlns:rdf="http://www.w3.org/1999/02/22-rdf-syntax-ns#" xmlns:svg="http://www.w3.org/2000/svg" xmlns="http://www.w3.org/2000/svg" xmlns:sodipodi="http://sodipodi.sourceforge.net/DTD/sodipodi-0.dtd" xmlns:inkscape="http://www.inkscape.org/namespaces/inkscape" version="1.1" x="0px" y="0px" viewBox="0 0 100 100"><g transform="translate(0,-952.36218)"><path d="m 20,960.36217 c -2.77,0 -5,2.23 -5,5 l 0,3 -6,0 c -2.7181,0 -5,2.2819 -5,5 l 0,66.00003 c 0,2.7181 2.2819,5 5,5 l 82,0 c 2.7181,0 5,-2.2819 5,-5 l 0,-66.00003 c 0,-2.7181 -2.2819,-5 -5,-5 l -6,0 0,-3 c 0,-2.77 -2.23,-5 -5,-5 -2.77,0 -5,2.23 -5,5 l 0,3 -10,0 0,-3 c 0,-2.77 -2.23,-5 -5,-5 -2.77,0 -5,2.23 -5,5 l 0,3 -10,0 0,-3 c 0,-2.77 -2.23,-5 -5,-5 -2.77,0 -5,2.23 -5,5 l 0,3 -10,0 0,-3 c 0,-2.77 -2.23,-5 -5,-5 z m -10,14 5,0 0,1 c 0,2.77 2.23,5 5,5 2.77,0 5,-2.23 5,-5 l 0,-1 10,0 0,1 c 0,2.77 2.23,5 5,5 2.77,0 5,-2.23 5,-5 l 0,-1 10,0 0,1 c 0,2.77 2.23,5 5,5 2.77,0 5,-2.23 5,-5 l 0,-1 10,0 0,1 c 0,2.77 2.23,5 5,5 2.77,0 5,-2.23 5,-5 l 0,-1 5,0 0,10 -80,0 0,-10 z m 0,16 80,0 0,48.00003 -80,0 0,-48.00003 z m 40,6 c -6.0421,0 -11,4.95793 -11,11.00003 l 0,3 c -0.4303,-10e-4 -0.9034,0 -1.3125,0 -1.4638,0.1534 -2.6954,1.5282 -2.6875,3 l 0,16 c 2e-4,1.5708 1.4293,2.9998 3,3 l 24,0 c 1.5708,-2e-4 2.9999,-1.4292 3,-3 l 0,-16 c -1e-4,-1.5708 -1.4292,-2.9998 -3,-3 l -1,0 0,-3 c 0,-6.0421 -4.9579,-11.00003 -11,-11.00003 z m 0,6.00003 c 2.8219,0 5,2.1781 5,5 l 0,3 -10,0 0,-3 c 0,-2.8219 2.1781,-5 5,-5 z m -9,14 18,0 0,10 -18,0 0,-10 z"  stroke="none" marker="none" visibility="visible" display="inline" overflow="visible"></path></g></svg>