<svg xmlns="http://www.w3.org/2000/svg" viewBox="0 0 424.09 692.12"><g id="Capa_2" data-name="Capa 2"><g id="Capa_1-2" data-name="Capa 1"><path d="M400.73,100.28c0-2.35.6-4.86-1.4-6.86-.27-.27-.17-1-.17-1.44-.13-6.24.07-12.51-.44-18.72-.47-5.69-1-11.53-2.74-16.92A97.09,97.09,0,0,0,387.7,37.8c-8-14-19.93-23.92-34.49-30.66C342.86,2.36,331.84.38,320.5.26Q294.78,0,269,0c-13.66,0-27.31.21-41,.21C212.15.2,196.24,0,180.34,0c-14.83,0-29.65.17-44.47.21C129.7.23,123.54,0,117.38,0c-7.5,0-15,.18-22.49.13C83.65.11,72.43-.08,61.35,2.39A77,77,0,0,0,34.85,14,78.81,78.81,0,0,0,15,33.47,74.28,74.28,0,0,0,1.87,63,107.18,107.18,0,0,0,.1,83.37Q-.06,201.74,0,320.1v36Q0,459,0,561.83c0,7.82,1.3,15.33,5.18,22.08C14,599.19,27.23,607.3,45,607.35c28.91.09,57.83,0,86.74,0,4.66,0,5.42-.74,5.42-5.32q0-39.25,0-78.49c0-1.67-.07-3.34,0-5,.05-2.42-1.34-3.46-3.51-3.71a27,27,0,0,0-3-.07H28.4c-3.49,0-3.56-.09-3.58-3.45v-1q0-201.1-.06-402.22c0-2.69,1-3.15,3.36-3.14Q200,105,371.84,105c2.6,0,3.18.83,3.18,3.29q-.07,146.87,0,293.73,0,42.12,0,84.24c0,3.83.51,4.31,4.34,4.32,5.84,0,11.67,0,17.5,0,2.69,0,3.74-1.05,3.9-3.76.06-1.08,0-2.17,0-3.25Q400.75,291.89,400.73,100.28Z"/><path d="M243.2,555.81c.05-.78.16-1.56.15-2.33-.2-16.83-.36-33.67-.65-50.5q-.66-37-1.49-74c-.2-9.08-.71-18.15-.84-27.23a30.23,30.23,0,0,1,19.94-28.35c14.23-4.83,28.89,1.27,36.09,14.07,3.41,6.06,3.64,12.56,3.8,19.08.38,14.91.37,29.83.66,44.74.37,19,.88,38,1.35,57,.12,4.61,4.06,8,9.39,8,9.66-.14,19.32-.43,29-.64,13.66-.29,27.33-.89,41-.76,15.45.15,26.72,7.8,34.66,20.81,4.49,7.35,5.85,15.36,6,23.83.5,29.32,1.18,58.64,1.76,88a80.05,80.05,0,0,1-.19,11.7c-1.49,11.73-7.55,20.58-17.84,26.39a37,37,0,0,1-17.86,4.71c-28.41.46-56.81,1.16-85.22,1.69a185.84,185.84,0,0,1-19.18-.18C274.28,691,267,686,261.3,678.7Q229.08,637.51,197,596.21c-9.86-12.67-20-25.16-29.42-38.14-7.35-10.1-5.51-25.87,4.1-34.64,4.49-4.09,9.48-7.1,15.68-8.11,11-1.78,19.84,2,27.15,9.81,7.46,8,14.6,16.21,21.89,24.32,2,2.21,4,4.37,6.05,6.55Z"/><path d="M352,276.6c0-16.24,0-32.49-.07-48.74a13.82,13.82,0,0,0-1.25-6.21c-2.36-4.39-6.48-5.81-11.34-5.81q-139.59,0-279.2,0c-7.77,0-12.2,4.39-12.21,12.17q0,25.86,0,51.74c0,20,0,40,0,60a13.07,13.07,0,0,0,.94,5.55c2.17,4.53,6,6.08,11,6.07q70-.13,140-.05v0H308.11c10.83,0,21.66,0,32.49-.06a13.39,13.39,0,0,0,5.53-1.05c4.37-2.1,5.9-5.87,5.88-10.65C351.91,318.6,352,297.6,352,276.6Zm-236,26.74a45.54,45.54,0,0,1-3.73,6.07c-2.55,3.48-6.57,4.58-10.43,5.14-6,.86-12.07,1.05-18.11,1.4-2.66.16-5.33,0-8,0-3,0-3.81-.75-3.83-3.87,0-6.08,0-12.16,0-18.25v-9.5h0q0-13.25,0-26.49c0-4.2.32-4.5,4.6-4.5,6.58,0,13.16.09,19.74,0s11.79,2.11,15.24,7.72c2.42,3.94,3.37,8.15,1.7,12.81-1.23,3.42-2.72,6.39-6.24,7.94-.29.12-.39,1.36-.13,1.84a3,3,0,0,0,1.67,1A13.12,13.12,0,0,1,115.93,303.34Zm75.88-18.83c-1.33,6.67-1.9,13.7-5.58,19.75a24.67,24.67,0,0,1-16.74,11.92,49.93,49.93,0,0,1-12.34,1.19c-10.86-.58-19.59-5-24-15.61a33.78,33.78,0,0,1-1.9-8.45,50.48,50.48,0,0,1-.06-6.74c-.58-10.12,2-19.27,8.93-26.85a24.27,24.27,0,0,1,14.63-7.37,54,54,0,0,1,13.2-.2c9.25.93,16.71,5.12,20.64,13.91C191.21,271.87,193.06,278.22,191.81,284.51Zm72.76,8.31c-1.25,4.18-2.17,8.7-4.48,12.27-4.87,7.54-12.47,11.25-21.3,12.26a35.7,35.7,0,0,1-22.58-4.6c-4.34-2.55-6.91-6.79-8.53-11.33-1.33-3.77-1.68-7.89-2.47-11.85l.78-.11c0-3.74-.36-7.52.08-11.21.91-7.53,3.84-14.35,9.51-19.5a26.7,26.7,0,0,1,8.78-5,38.47,38.47,0,0,1,25.46.1c7.44,2.48,12.17,7.84,14.32,15.35.82,2.86,1.14,5.85,1.86,8.73C267.3,283.07,266,288,264.57,292.82ZM317,315.94a2,2,0,0,1-1.07-.93c-5.69-9.26-11.33-18.54-17-27.79a27,27,0,0,0-2.62-3,32.91,32.91,0,0,0-.5,3.69c0,8.33-.1,16.66,0,25,.05,2.52-.88,3.52-3.27,3.48-1.92,0-3.84.11-5.75,0-3-.25-3.89-1.27-3.89-4.3,0-18.57.06-37.15-.05-55.72,0-2.71,1.6-3.32,3.48-4a2,2,0,0,1,.74-.06c7.22.14,7.26-.81,7.19,6.67-.07,6.42,0,12.83,0,19.24a21.6,21.6,0,0,0,.4,3l.81.23c1.61-2.15,3.28-4.26,4.82-6.47,4.66-6.68,9.23-13.42,13.95-20a4,4,0,0,1,2.68-1.38,71.36,71.36,0,0,1,7.74-.06c2.61.09,3.33,1.37,1.79,3.57-3.43,4.9-7,9.69-10.58,14.48-2.33,3.14-4.7,6.25-7.15,9.3a2.69,2.69,0,0,0-.15,3.74c6,9,11.88,18,17.77,27.08.8,1.22,1.42,2.55,2.32,4.18A25.46,25.46,0,0,1,317,315.94Z"/><path d="M252.68,283.84c.42,5.05.11,10-2.78,14.41-4.67,7-11.9,9.37-20.07,7.24s-11.89-9.81-12.26-16.92a60.07,60.07,0,0,1,.19-11A19.33,19.33,0,0,1,223.37,266c3.61-3.59,7.9-4.56,12.52-4.51,6.15.08,11.53,2.14,14.38,8.11a29.58,29.58,0,0,1,2.33,7.54A39.72,39.72,0,0,1,252.68,283.84Z"/><path d="M142.26,284a35.63,35.63,0,0,1,3-12.94c3.55-7.5,10.31-10.21,17.78-9.44,8.05.84,12.25,3.92,14.82,14.54A30.63,30.63,0,0,1,176,297.06a15.17,15.17,0,0,1-11.17,8.7c-8.64,1.51-16.7-.76-20.12-10C143.36,292.05,143.06,287.91,142.26,284Z"/><path d="M98.3,288.64c-4.61-1.85-9.36-.95-14-1-.59,0-1.63,1.33-1.7,2.11-.23,2.39-.09,4.82-.09,7.23h0q0,3.74,0,7.47c0,1.57.63,2.53,2.36,2.51,2.83,0,5.67.12,8.48-.11,7.57-.61,10.81-5.17,9.64-12.79C102.48,291.07,100.92,289.69,98.3,288.64Z"/><path d="M96.24,262.35a97.21,97.21,0,0,0-10.92-.88c-1.67-.06-2.48,1.11-2.44,2.82,0,2,0,4,0,6h0c0,2.09,0,4.17,0,6.25a2.28,2.28,0,0,0,2.56,2.65,69.88,69.88,0,0,0,7.24-.11c5.3-.57,8.59-4.6,8.32-9.93C100.86,266.54,98.46,262.69,96.24,262.35Z"/></g></g></svg>