<svg xmlns="http://www.w3.org/2000/svg" viewBox="0 0 401.6 356.84"><g id="Capa_2" data-name="Capa 2"><g id="Capa_1-2" data-name="Capa 1"><path d="M116.68,207a249.54,249.54,0,0,0,32.52-2.09V91.72a249.54,249.54,0,0,0-32.52-2.09C52.24,89.63,0,113.32,0,142.55V154C0,183.26,52.24,207,116.68,207Z"/><path d="M116.68,266A251.34,251.34,0,0,0,149.2,264V230.78a249.51,249.51,0,0,1-32.52,2.1c-56.25,0-103.2-18.06-114.23-42.09A25.92,25.92,0,0,0,0,201.63v11.48C0,242.34,52.24,266,116.68,266Z"/><path d="M149.2,292.44v-2.57A251.42,251.42,0,0,1,116.68,292c-56.25,0-103.2-18-114.23-42.08A25.88,25.88,0,0,0,0,260.72v11.47c0,29.23,52.24,52.93,116.68,52.93a247.76,247.76,0,0,0,36.87-2.7,41.81,41.81,0,0,1-4.35-18.5Z"/><path d="M284.92,0C220.48,0,168.24,23.69,168.24,52.92V64.4c0,29.23,52.24,52.92,116.68,52.92S401.6,93.63,401.6,64.4V52.92C401.6,23.69,349.36,0,284.92,0Z"/><path d="M284.92,143.25c-56.25,0-103.2-18.06-114.23-42.08A25.84,25.84,0,0,0,168.24,112v11.48c0,29.23,52.24,52.92,116.68,52.92S401.6,152.71,401.6,123.48V112a25.84,25.84,0,0,0-2.45-10.83C388.12,125.19,341.17,143.25,284.92,143.25Z"/><path d="M284.92,202.33c-56.25,0-103.2-18.05-114.23-42.08a25.88,25.88,0,0,0-2.45,10.84v11.48c0,29.22,52.24,52.92,116.68,52.92s116.68-23.7,116.68-52.92V171.09a25.88,25.88,0,0,0-2.45-10.84C388.12,184.28,341.17,202.33,284.92,202.33Z"/><path d="M284.92,264.6c-56.25,0-103.2-18.05-114.23-42.08a25.92,25.92,0,0,0-2.45,10.84v11.48c0,29.23,52.24,52.92,116.68,52.92S401.6,274.07,401.6,244.84V233.36a25.92,25.92,0,0,0-2.45-10.84C388.12,246.55,341.17,264.6,284.92,264.6Z"/><path d="M284.92,323.69c-56.25,0-103.2-18.06-114.23-42.08a25.87,25.87,0,0,0-2.45,10.83v11.48c0,29.23,52.24,52.92,116.68,52.92S401.6,333.15,401.6,303.92V292.44a25.92,25.92,0,0,0-2.45-10.84C388.12,305.63,341.17,323.69,284.92,323.69Z"/></g></g></svg>