<svg xmlns="http://www.w3.org/2000/svg" viewBox="0 0 429.25 419.48"><g id="Capa_2" data-name="Capa 2"><g id="Capa_3" data-name="Capa 3"><path d="M427.72,200.48a9.66,9.66,0,0,0-9.16-5.76c-7.35,0-14.7,0-22.05,0a3,3,0,0,1-2.95-1.63c-5.37-8.73-10.91-17.35-16.18-26.14-8-13.39-19.8-20.25-35.32-20.77-1.61,0-2.23-.92-2.8-2.12-2.42-5.09-5-10.11-7.22-15.29s-5.9-7.38-11.5-7.32c-14.7.15-29.4,0-44.1,0-5.05,0-10.09,0-15.13,0a9.33,9.33,0,0,0-8.92,5.51q-4.12,8.42-8,16.92a3.29,3.29,0,0,1-3.47,2.24,33.79,33.79,0,0,0-12,2c-8.72,3.08-16,8-21,16q-9.06,14.4-18,28.9a3,3,0,0,1-3,1.61q-10.84-.06-21.68,0a11.2,11.2,0,0,0-3.75.53c-4.55,1.67-6.77,5.32-7.15,9.89-.43,5.26,1,7.69,5.9,9.5,3.63,1.32,7.35,2.42,11,3.5,2.2.65,2.58,1.23,1.45,3.16-1.84,3.13-4.09,6.08-5.54,9.38a135.5,135.5,0,0,0-4.82,13.65,84.28,84.28,0,0,0-3.56,24.79c-.17,24.59-.16,49.19-.18,73.79,0,4.13,2.68,6.84,6.86,6.87q14.49.1,29,0c4.21,0,6.84-2.83,6.87-7.07s0-8.75,0-13.12c0-3.34,0-3.34,3.42-3.34H353c8.92,0,17.85,0,26.78,0,1.75,0,2.35.58,2.31,2.32-.08,4.8-.06,9.6,0,14.4,0,3.93,2.66,6.78,6.56,6.81q14.85.15,29.7,0a6.34,6.34,0,0,0,6.44-6.71c0-24.78.09-49.56-.25-74.34-.1-7.3-1.49-14.59-2.39-21.87a35.81,35.81,0,0,0-1.28-4.14c-.48-1.84-.51-3.87-1.31-5.55-2.2-4.62-4.68-9.1-7.1-13.62-.67-1.27-1.49-2.46-2.46-4.06,3.51-1.11,6.62-2.08,9.73-3.09,2.86-.93,6-1.48,7.76-4.32C429.91,208.27,429.69,204.36,427.72,200.48Zm-114-70.26c0-1.73,1.25-1.65,2.43-1.66s2.42-.1,2.42,1.64v6c0,1.94,0,3.88,0,5.82,0,1.72-1.06,1.74-2.31,1.7s-2.56.22-2.55-1.68C313.75,138.09,313.74,134.16,313.74,130.22Zm-13.54,4.23c-1-1.36-1.89-2.82-2.81-4.24-.67-1-.34-1.55.86-1.66,2.07-.2,3.89,0,4.71,2.35a12.47,12.47,0,0,0,1.17,1.89c.65-1,1.19-1.79,1.7-2.61.91-1.44,3.49-2.29,4.89-1.45a1.53,1.53,0,0,1,.18,1.43,50.39,50.39,0,0,1-2.81,4.45,2,2,0,0,0,0,2.61c1.34,1.91,2.56,3.9,3.83,5.85l-.24.65c-1.55-.11-3.36.23-4.58-.46s-1.89-2.41-3-4c-1,1.43-1.63,3.16-2.85,3.88s-3.07.46-4.64.63l-.3-.7c1.27-2,2.48-4,3.83-5.87A2,2,0,0,0,300.2,134.45Zm-16.92-4.65c.47-1.27,1.49-1.31,2.53-1.23s2.73-.55,3.36,1c1.77,4.49,3.44,9,5.19,13.62-3,1-4.15.63-5.48-1.36-.68-1-4.59-1-5.29,0-1.43,2-2.74,2.39-5.3,1.27.87-2.41,1.73-4.85,2.63-7.26C281.68,133.85,282.53,131.84,283.28,129.8ZM267,128.57c1.7,0,3.4,0,5.1,0h0c1.75,0,3.51,0,5.27,0,1.41,0,1.73.75,1.71,2s-.25,1.95-1.69,2c-3,.13-3,.19-3,3.26,0,2.06-.06,4.12,0,6.18.06,1.58-.87,1.8-2.1,1.71s-2.72.46-2.69-1.66c0-2.42-.09-4.85,0-7.27.1-1.79-.61-2.41-2.32-2.25-1.11.1-2.22.12-2.42-1.46C264.7,129.24,265.19,128.59,267,128.57ZM225.94,266.4a10.9,10.9,0,0,1-10.41,9.44c-4.37.09-8.74,0-13.11,0v0c-4,0-8,0-12,0a14.54,14.54,0,0,1-13.28-7.81c-2.9-5.18-2.43-10.33.49-15.55,2.5-4.45,6.18-6.86,11-7.13,2.55-.14,5.24.74,7.76,1.51,3.65,1.12,7.19,2.57,10.78,3.85,3.84,1.38,7.69,2.73,11.54,4.08A11.08,11.08,0,0,1,225.94,266.4Zm103.28,39.07a4.49,4.49,0,0,1-4.54,4.68c-1,.06-1.94,0-2.91,0H260.2c-4.37,0-5.92-1.54-5.93-5.88,0-1.64,0-3.28,0-4.92,0-4.28,1.42-5.72,5.65-5.72q13.57,0,27.14,0h36.43c4.34,0,5.75,1.44,5.75,5.81C329.24,301.47,329.27,303.47,329.22,305.47Zm8.72-85.88H300.22v-.05c-28.36,0-56.73-.18-85.09.16-5.4.07-10.86.57-16.3.58-4.48,0-7.31-3.79-5.93-7.9a14.91,14.91,0,0,1,1.74-2.7c7.45-12,15-23.93,22.3-36,6-10,14.6-14.82,26.16-14.81q48.64.06,97.3,0c11.4,0,20,4.68,26,14.48,7.68,12.65,15.56,25.17,23.36,37.75,2,3.26,1.7,6.22-1.12,7.73a8.9,8.9,0,0,1-4,.76Q361.27,219.63,337.94,219.59Zm69.56,46A15.1,15.1,0,0,1,394,275.84c-4.36.11-8.74,0-13.11,0v0c-4.06,0-8.13,0-12.19,0a11,11,0,0,1-11.11-9.51c-.74-5,2.58-9.92,7.79-11.72,4-1.39,8-2.89,12-4.31,4.43-1.58,8.77-3.51,13.32-4.55a11.71,11.71,0,0,1,9.27,1.3c.85.57,1.71,1.14,2.54,1.75C407.51,252.57,409.48,259.13,407.5,265.63Z"/><path d="M285.84,134a20.18,20.18,0,0,0-.72,2.85c0,.3.5.91.81.93s1.27-.36,1.28-.57C287.21,136.09,287.38,134.81,285.84,134Z"/></g><g id="Capa_4" data-name="Capa 4"><path d="M41.83,270.77q0-63.7-.06-127.42a12.87,12.87,0,0,0-1.59-6.22c-1.51-2.53-4.25-3-7-2.12a6.14,6.14,0,0,0-4.48,5.56,27.9,27.9,0,0,0-.08,3.17q0,43.26-.05,86.53A14.23,14.23,0,0,1,13,244.81,13.81,13.81,0,0,1,.11,231.89c-.18-2.73-.09-5.49-.09-8.23q0-49.14,0-98.27C0,106.8,9.5,92.27,26.77,85.54a47.35,47.35,0,0,1,16.37-2.75c27.12-.27,54.25-.14,81.37-.11,9.27,0,16.34-3.84,21.64-11.47q21.93-31.57,44.09-63C194.83,1.68,202.81-.44,209.13,3c8.07,4.42,10.05,13.72,4.49,21.74C205.7,36.2,197.68,47.58,189.7,59l-47.49,67.95A22.45,22.45,0,0,0,138,140.29c.07,17.65.12,35.29,0,52.94-.06,9.6-.68,19.19-.66,28.79q.22,87.3.67,174.59c.05,8.22-2.54,14.93-9.6,19.43a19.67,19.67,0,0,1-21,.75c-6.74-3.68-10.6-9.6-10.62-17.52q-.09-31.22,0-62.44,0-40.89,0-81.78a18.21,18.21,0,0,0-.94-6.16A5.78,5.78,0,0,0,89.51,245a6.16,6.16,0,0,0-5.84,5,25.34,25.34,0,0,0-.49,5.65q0,70.85,0,141.69c0,7.64-2.47,13.94-8.8,18.27-6.74,4.61-14.08,5.09-21.31,1.38s-11.18-10.21-11.21-18.5c-.09-32.12,0-64.24,0-96.36V270.77Z"/><path d="M90,0a34.56,34.56,0,1,1-.36,69.11A34.27,34.27,0,0,1,55.46,34.53,34.21,34.21,0,0,1,90,0Z"/></g></g></svg>