<svg version="1.1" xmlns="http://www.w3.org/2000/svg" xmlns:xlink="http://www.w3.org/1999/xlink" x="0px" y="0px" viewBox="0 0 1000 1000" enable-background="new 0 0 1000 1000" xml:space="preserve">
<metadata> Svg Vector Icons : http://www.onlinewebfonts.com/icon </metadata>
<g><g transform="translate(0.000000,511.000000) scale(0.100000,-0.100000)"><path d="M7068.6,4691.2c-42.1-15.3-4816.7-1851.3-5082.8-1954.6l-229.7-90l233.6-5.7l235.5-5.8L4669.9,3577c1962.3,756.2,2448.5,936.2,2461.9,915.1c38.3-61.3,333.1-851.9,321.6-861.5c-5.7-7.7-886.4-225.9-1954.6-484.3c-1068.2-260.4-1960.4-480.5-1981.4-490.1c-24.9-9.6,88.1-17.2,308.2-17.2l348.4-1.9l1336.3,327.4c737,178,1634.9,398.2,1996.7,488.2c361.8,88.1,672,160.8,689.2,160.8c24.9,0,55.5-101.5,147.4-484.3l116.8-482.4l90-5.7c51.7-3.8,88.1,1.9,88.1,13.4c0,11.5-55.5,250.8-124.4,532.2c-132.1,539.9-151.3,585.8-258.4,608.8c-30.6,7.7-158.9-15.3-325.4-57.4c-149.3-38.3-275.7-65.1-281.4-61.3c-3.8,3.8-84.2,208.7-180,453.7c-93.8,245-180,461.4-191.4,482.4c-11.5,21.1-49.8,49.8-84.2,65.1C7122.2,4706.5,7112.6,4706.5,7068.6,4691.2z"/><path d="M211.1,2453.2c-118.7-63.2-111,176.1-111-3463.2v-3321.5l65.1-72.7l65.1-70.8l4439.6-5.7c3099.4-1.9,4468.3,1.9,4537.2,15.3c124.4,26.8,208.7,82.3,283.3,187.6l57.4,84.2l5.7,984l5.7,984h-907.4c-842.3,0-917,1.9-1054.9,38.3c-243.1,61.3-382.9,141.7-568.6,325.5c-178.1,176.1-275.7,340.8-333.1,564.8c-40.2,155.1-40.2,446.1,0,603c84.2,327.4,321.6,627.9,612.6,779.2c283.3,147.4,269.9,145.5,1317.1,153.2l932.3,9.6v930.4c0,622.2-7.7,957.2-21.1,1008.9c-28.7,101.5-174.2,247-275.7,275.7c-55.5,15.3-1332.4,21.1-4537.2,21.1C816.1,2481.9,257.1,2478.1,211.1,2453.2z"/><path d="M7710-104.5c-256.5-47.9-522.6-254.6-637.5-493.9c-225.9-478.6-34.5-999.3,455.6-1232.9l124.4-59.4l1056.8-5.7l1056.8-5.7l63.2,57.4l63.2,55.5l5.7,767.7c5.7,851.9,5.7,850-118.7,909.4c-57.4,26.8-172.3,30.6-1020.4,28.7C8234.5-85.4,7763.6-94.9,7710-104.5z M8115.8-481.6c118.7-59.4,201-139.8,266.1-254.6c47.9-88.1,55.5-120.6,55.5-254.6c0-122.5-9.6-172.3-46-247c-183.8-371.4-679.6-436.5-947.6-124.4c-86.2,101.5-126.3,222.1-126.3,379.1c0,241.2,157,455.6,386.7,530.3C7819.1-416.6,8014.4-430,8115.8-481.6z"/></g></g>
</svg>