<svg xmlns="http://www.w3.org/2000/svg" viewBox="0 0 482.97 482.97"><g id="Capa_2" data-name="Capa 2"><g id="uncheck"><path d="M241.48,483q-92.39,0-184.77,0c-20.42,0-36.43-8.67-47.8-25.61A53.21,53.21,0,0,1,0,427Q0,257.88,0,88.79V55.7A55.84,55.84,0,0,1,48.69.49,64.63,64.63,0,0,1,56.8,0q184.68,0,369.35,0c24,0,41.39,11.4,51.9,33A52.63,52.63,0,0,1,483,56.48q0,185.06,0,370.12c0,27.51-18.68,50.23-45.73,55.4a60.66,60.66,0,0,1-11.35.92Q333.68,483,241.48,483ZM37.15,241.44V426c0,11.86,7.88,19.79,19.74,19.8q184.59,0,369.17,0a24.11,24.11,0,0,0,5.74-.63c8.56-2.13,14-9.49,14-18.74V56.87c0-11.73-7.9-19.7-19.64-19.7q-184.68,0-369.36,0a23.55,23.55,0,0,0-5.55.61c-8.49,2.06-14.09,9.46-14.09,18.48Q37.14,148.86,37.15,241.44Z"/><path d="M241.39,375.86H141.64c-10.36,0-18.66-4.34-24.77-13.05a29.24,29.24,0,0,1-5.38-17.09q0-105,0-209.93c0-16.34,13.07-30.14,29.66-30.13,4.06,0,8.13,0,12.19,0H341.27c10.41,0,18.76,4.3,24.89,13a29.19,29.19,0,0,1,5.38,17.09q.06,105,0,209.93a30.06,30.06,0,0,1-30,30.16C308.13,375.79,274.76,375.86,241.39,375.86Z"/></g></g></svg>