<svg xmlns="http://www.w3.org/2000/svg" viewBox="0 0 482.97 482.97"><g id="Capa_2" data-name="Capa 2"><g id="uncheck"><path d="M241.48,483q-92.39,0-184.77,0c-20.42,0-36.43-8.67-47.8-25.61A53.21,53.21,0,0,1,0,427Q0,257.88,0,88.79V55.7A55.84,55.84,0,0,1,48.69.49,64.63,64.63,0,0,1,56.8,0q184.68,0,369.35,0c24,0,41.39,11.4,51.9,33A52.63,52.63,0,0,1,483,56.48q0,185.06,0,370.12c0,27.51-18.68,50.23-45.73,55.4a60.66,60.66,0,0,1-11.35.92Q333.68,483,241.48,483ZM37.15,241.44V426c0,11.86,7.88,19.79,19.74,19.8q184.59,0,369.17,0a24.11,24.11,0,0,0,5.74-.63c8.56-2.13,14-9.49,14-18.74V56.87c0-11.73-7.9-19.7-19.64-19.7q-184.68,0-369.36,0a23.55,23.55,0,0,0-5.55.61c-8.49,2.06-14.09,9.46-14.09,18.48Q37.14,148.86,37.15,241.44Z"/><path d="M196.35,306.21l11-13.08q65.87-78.43,131.73-156.85c5.86-7,17.19-8.17,24.78-2.69,7.85,5.67,10.16,16.79,4.81,24.8-2.63,4-5.92,7.47-9,11.12l-148.65,177c-6.91,8.22-20.55,8.52-27.64.63q-32.52-36.18-65.1-72.32c-3.2-3.56-5.87-7.26-6.65-12.16-1.84-11.64,8.65-22.45,20.33-21A19,19,0,0,1,144.21,248q25.66,28.56,51.36,57.09A11.68,11.68,0,0,1,196.35,306.21Z"/></g></g></svg>