<svg xmlns="http://www.w3.org/2000/svg" viewBox="0 0 482.35 161.64"><g id="Capa_2" data-name="Capa 2"><g id="Capa_1-2" data-name="Capa 1"><path d="M12.17,54.27l0,.18h0l0,0A.76.76,0,0,0,12.17,54.27Z"/><path d="M481.12,120.59c2.09-8.35,1.13-16.64-.06-24.81-1.44-10-4.23-19.65-14.56-24.55-6.42-3-12.73-6.38-19.35-8.87-18.74-7.06-38.44-10.1-58.14-12.9-8.91-1.27-17.94-1.65-26.9-2.68C359.78,46.51,357.5,45,356,48c-.55-.25-.88-.37-1.19-.54C337,37.57,319.2,27.59,301.3,17.89c-15.51-8.41-31.91-14-49.65-15.68a497.68,497.68,0,0,0-113,2.19c-3.11.42-5.68.18-7.79-2.4-.55-.67-1.59-.95-3.05-1.79.65,2.24,1,3.56,1.51,5.17-5.9,1.71-11.7,2.91-17.14,5.06C92.93,18.07,73.8,26,54.61,33.84a25.74,25.74,0,0,1-4.75,1.59C37.49,37.78,25.1,40,12.3,42.4a27.92,27.92,0,0,1,1,5.73c0,2.12-.78,4.24-1.22,6.35l.11-.21a.76.76,0,0,1,0,.15c.41-.19.82-.44,1.22-.59l.1,0a1.51,1.51,0,0,1,.47-.09c5.29,0,10.59-.11,15.88.1,3.51.14,4.29,1.65,2.65,4.68C31,61.34,29.1,64,27.6,66.9c-1.77,3.39-4.62,3.51-7.72,2.79s-6.44-1-6.88-5.15q-.13-1.28-.24-2.55c0-.16,0-.32,0-.48-.2-2.36-.35-4.72-.54-7.09l0,0h0c-.32,1.78-1.18,3.73-.71,5.28,1.62,5.39.77,10.53-.27,15.85C10.21,80.46,8,84.36,3.63,86.43.14,88.11-.11,90.5,0,93.69c.21,5,.09,10,.16,15,0,.67.13,1.63.57,1.94,2.82,2,3.11,5.36,3.59,8.2,1.09,6.41,2.69,8.42,9.06,8.16a90.9,90.9,0,0,1,22.2,1.81c5.39,1.11,10.89,1.65,16.69,2.5,0-2.53-.07-4.68,0-6.82.37-9.79,1.95-19.37,8.12-27.3,10.9-14,25.66-19.26,42.71-15.68,17.48,3.66,29.23,14.4,33,32.41,1.33,6.3,1.76,12.8,2.66,19.69l216.89,2.6c.49-5.41.88-10.32,1.39-15.22,2.37-23,16-38,37.51-40.93,18.79-2.59,40.39,9.26,44.87,29.82,1.93,8.84,2.82,17.69,1.41,26.83,14.19-.71,28.09-1.7,41-6.73C481.58,126.52,480.44,123.32,481.12,120.59Zm-478-16.75c8.42-.07,18,2.72,19.18,5.49C14.77,110.33,3.85,107.34,3.13,103.84ZM117.75,39.77a2.42,2.42,0,0,1-1.65,1.13c-7.86.07-15.72.05-24.21.05,4.09-5.08,31.16-20.76,38.47-22.63C126.1,25.58,122,32.7,117.75,39.77ZM148.38,67a36.64,36.64,0,0,1-3.78,1.7l-1.27.54h0l-1.16.35c-.52,0-1,.1-1.58.18L139,70a6.47,6.47,0,0,1-3-.18c-2.8-1-5-3.46-8.44-3.07-.35,0-1.09-1.15-1.19-1.84-.05-.37,1-1.36,1.32-1.27,3.2.87,4.9-1.74,7.21-2.92,3.57-1.07,7-1.53,10,1.54,1,.46,2.12.86,3.12,1.39a18.75,18.75,0,0,1,2,1.42C149.51,65.73,149.08,66.62,148.38,67ZM131.83,41.91c-.77-4.7-.94-8.82,1.87-12.52a13.38,13.38,0,0,0,1.8-3.13c3-7.71,9-10.89,16.81-12.3a184.61,184.61,0,0,1,41.36-3.19c7.48.32,10.27,3.17,10.82,10.68.54,7.31,1,14.62,1.62,22.53ZM223.15,123a10.18,10.18,0,0,1-.38,1.74c-.05.16-.35.25-1.15.76.35-3.54.8-6.63.93-9.75.89-21.34.67-42.62-3.76-63.66-3.2-15.18-6.22-30.4-9.29-45.6a5.58,5.58,0,0,1,0-1.35l1-.13c.92,5.13,1.73,10.29,2.78,15.4,2.83,13.78,6.42,27.44,8.51,41.32A236.2,236.2,0,0,1,223.15,123ZM249.1,68.87c-1.85.87-3.82,1.5-5.74,2.22-3.36,2.66-6.32.42-9.37-.75-1.3-.45-2.62-.83-3.89-1.36s-2.26-1.14-3.38-1.71c1.16-.62,2.3-1.32,3.51-1.83.26-.11.53-.21.8-.3s.77-.23,1.15-.34l1.36-.38c3.57-3,7.78-3.17,11.41-.4,1.27.51,2.58,1,3.8,1.56.65.33,1.58.93,1.61,1.46A2.44,2.44,0,0,1,249.1,68.87Zm68.22-29.65c-2.19-1.21-4.39-2.4-6.55-3.66-2.89-1.68-5.45-1-6.65,1.86-1.42,3.38-2.05,7.1-3.15,11.13-10-.48-21-1-32.07-1.56-12.4-.67-24.78-1.51-37.18-2.11-2.49-.12-3.59-1-4.13-3.41-1.63-7.29-3.17-14.62-5.32-21.76A8.58,8.58,0,0,1,231,8.84c18.39.3,36.74,1.2,53.42,10.24,10.78,5.85,21.31,12.16,32,18.27.59.34,1.14.76,1.72,1.15ZM475,86.11c-3.16,1.13-5.72,2.71-8.37,2.86-5.25.29-10.75.33-14.88-3.82-2.71-2.73-5.12-5.75-7.57-8.72-.55-.67-1.15-1.81-.93-2.46s1.5-1.12,2.32-1.12c7.95,0,15.91.17,23.47,3.05C474.29,77.91,475.84,80.87,475,86.11Z"/><path d="M12.06,54.48l.08,0,0-.18Z"/><path d="M96.68,161.58a38.09,38.09,0,1,1,38.09-37.51A37.92,37.92,0,0,1,96.68,161.58Zm30.5-38.43a30.59,30.59,0,1,0-30.22,31A30.67,30.67,0,0,0,127.18,123.15Z"/><path d="M398.89,85.44A38.1,38.1,0,1,1,360.5,123,38,38,0,0,1,398.89,85.44Zm30.33,38.66c.41-16.7-13.13-30.75-30.06-31.2C382.67,92.46,368.48,106,368,122.62a30.63,30.63,0,1,0,61.24,1.48Z"/><path d="M143.38,63.54c.53,0,1-.83,1.52-1.28-2.93-3.07-6.4-2.61-10-1.54-.52.81-1.05,1.62-1.85,2.88C136.92,63.6,140.16,63.66,143.38,63.54Z"/><path d="M245,64c-3.63-2.77-7.84-2.62-11.41.4L245,65Z"/><path d="M235.24,69.09c-.43,0-.83.81-1.25,1.25,3,1.17,6,3.41,9.37.75L245,69C241.38,69,238.31,69,235.24,69.09Z"/><path d="M143.33,69.24c.24-.54.47-1.08.8-1.8h-9.9l-.11,1.42,8,.73h0l1.16-.35Z"/><polygon points="143.33 69.24 143.33 69.24 143.33 69.24 143.33 69.24"/><path d="M82.28,148.94l14.28-17.23L110.64,149C101.19,153.92,92,153.83,82.28,148.94Z"/><path d="M75.81,144c-7.18-7.92-9.71-16.73-7.57-27.21l20.39,8.89C84.46,131.63,80.29,137.61,75.81,144Z"/><path d="M117.2,144.23l-12.66-18.49L125.1,117C127.05,127.61,124.47,136.5,117.2,144.23Z"/><path d="M101.09,116.57c-.33-7.31-.64-14.39-1-21.47,6.46-1.1,18.73,6.43,22.2,15Z"/><path d="M71.14,109.94c3.38-8.16,13.41-15,22.09-15a3.42,3.42,0,0,1,.2,1c-.45,6.81-.93,13.63-1.4,20.56Z"/><path d="M100.83,124.32c-1.42.94-2.93,2.74-4.21,2.58A5.3,5.3,0,0,1,93,123.49a3.07,3.07,0,0,1,3.68-3.67c1.5.23,2.77,1.87,4.14,2.88Z"/><path d="M412.66,149.15c-9.64,4.72-18.81,4.8-28.32-.19l14.2-17.22Z"/><path d="M370.2,116.83l20.4,8.89L377.82,144C370.54,136.16,368.11,127.27,370.2,116.83Z"/><path d="M406.54,125.77,427,117.1c2.18,10.63-.7,19.38-7.81,27.21C414.9,138,410.77,132,406.54,125.77Z"/><path d="M394.16,116.58l-21-6.57c2.9-7.91,13.08-14.89,22.07-15.08Z"/><path d="M424.24,110.17l-21.16,6.42c-.32-7.24-.64-14.38-.95-21.52C409.11,94.18,421.35,102.09,424.24,110.17Z"/><path d="M402.82,124.46c-1.43.9-3,2.65-4.27,2.47a5.3,5.3,0,0,1-3.52-3.46,3,3,0,0,1,3.75-3.59c1.49.27,2.74,1.92,4.1,3Z"/></g></g></svg>