<svg xmlns="http://www.w3.org/2000/svg" viewBox="0 0 482.35 161.64"><g id="Capa_2" data-name="Capa 2"><g id="Capa_1-2" data-name="Capa 1"><path d="M470.18,54.27a1.13,1.13,0,0,0,0,.18h0l0,0C470.17,54.37,470.17,54.32,470.18,54.27Z"/><path d="M.41,130c12.94,5,26.84,6,41,6.73-1.41-9.14-.52-18,1.41-26.83,4.48-20.56,26.08-32.41,44.87-29.82C109.19,83,122.85,98,125.23,121c.5,4.9.89,9.81,1.38,15.22l216.9-2.6c.9-6.89,1.33-13.39,2.66-19.69,3.81-18,15.55-28.75,33-32.41,17.06-3.58,31.82,1.69,42.71,15.68,6.18,7.93,7.76,17.51,8.13,27.3.08,2.14,0,4.29,0,6.82,5.8-.85,11.3-1.39,16.69-2.5a90.9,90.9,0,0,1,22.2-1.81c6.37.26,8-1.75,9.05-8.16.48-2.84.77-6.15,3.6-8.2.43-.31.55-1.27.56-1.94.08-5,0-10,.17-15,.13-3.19-.11-5.58-3.6-7.26-4.33-2.07-6.58-6-7.53-10.85-1-5.32-1.89-10.46-.27-15.85.46-1.55-.4-3.5-.71-5.28h0l0,0c-.18,2.37-.33,4.73-.53,7.09,0,.16,0,.32,0,.48q-.1,1.27-.24,2.55c-.44,4.1-3.89,4.45-6.88,5.15s-6,.6-7.72-2.79c-1.51-2.87-3.36-5.56-4.91-8.41-1.64-3-.85-4.54,2.66-4.68,5.29-.21,10.59-.13,15.88-.1a1.56,1.56,0,0,1,.47.09l.09,0c.41.15.82.4,1.22.59,0-.05,0-.1,0-.15l.1.21c-.43-2.11-1.19-4.23-1.22-6.35a28.62,28.62,0,0,1,1-5.73c-12.79-2.36-25.18-4.62-37.55-7a25.25,25.25,0,0,1-4.75-1.59c-19.19-7.81-38.32-15.77-57.59-23.4C364.72,8.29,358.91,7.09,353,5.38c.47-1.61.86-2.93,1.51-5.17-1.47.84-2.5,1.12-3,1.79-2.11,2.58-4.68,2.82-7.79,2.4a497.68,497.68,0,0,0-113-2.19C213,3.87,196.56,9.48,181.05,17.89c-17.91,9.7-35.66,19.68-53.47,29.54-.31.17-.65.29-1.19.54-1.54-3-3.82-1.46-6.16-1.19-9,1-18,1.41-26.9,2.68-19.69,2.8-39.39,5.84-58.13,12.9-6.62,2.49-12.94,5.83-19.35,8.87C5.52,76.13,2.73,85.8,1.28,95.78.1,104-.86,112.24,1.23,120.59,1.91,123.32.77,126.52.41,130ZM460,109.33c1.17-2.77,10.76-5.56,19.17-5.49C478.5,107.34,467.58,110.33,460,109.33Zm-108-91c7.31,1.87,34.38,17.55,38.47,22.63-8.49,0-16.35,0-24.21-.05a2.46,2.46,0,0,1-1.66-1.13C360.39,32.7,356.24,25.58,352,18.32ZM332.28,65.07a18.63,18.63,0,0,1,2-1.42c1-.53,2.08-.93,3.12-1.39,2.93-3.07,6.41-2.61,10-1.54,2.31,1.18,4,3.79,7.21,2.92.33-.09,1.37.9,1.32,1.27-.1.69-.84,1.88-1.19,1.84-3.4-.39-5.65,2-8.44,3.07a6.5,6.5,0,0,1-3,.18l-1.59-.23c-.54-.08-1.07-.15-1.58-.18L339,69.24h0l-1.27-.54A35.71,35.71,0,0,1,334,67C333.27,66.62,332.83,65.73,332.28,65.07ZM276.23,44c.57-7.91,1.09-15.22,1.62-22.53.55-7.51,3.34-10.36,10.82-10.68A184.7,184.7,0,0,1,330,14c7.79,1.41,13.82,4.59,16.81,12.3a13,13,0,0,0,1.8,3.13c2.81,3.7,2.64,7.82,1.87,12.52ZM260.49,61.77c2.08-13.88,5.68-27.54,8.51-41.32,1.05-5.11,1.86-10.27,2.78-15.4l1,.13a5.58,5.58,0,0,1,0,1.35c-3.08,15.2-6.09,30.42-9.29,45.6-4.43,21-4.65,42.32-3.76,63.66.13,3.12.58,6.21.92,9.75-.79-.51-1.09-.6-1.14-.76a10.18,10.18,0,0,1-.38-1.74A236.2,236.2,0,0,1,260.49,61.77ZM232,67c0-.53,1-1.13,1.62-1.46,1.22-.61,2.53-1,3.8-1.56,3.63-2.77,7.84-2.62,11.41.4l1.36.38c.38.11.77.21,1.14.34s.55.19.81.3c1.21.51,2.34,1.21,3.51,1.83-1.13.57-2.22,1.22-3.39,1.71s-2.59.91-3.88,1.36c-3.05,1.17-6,3.41-9.38.75-1.92-.72-3.88-1.35-5.73-2.22A2.43,2.43,0,0,1,232,67ZM164.28,38.5c.57-.39,1.12-.81,1.72-1.15,10.64-6.11,21.17-12.42,31.95-18.27,16.67-9,35-9.94,53.42-10.24a8.57,8.57,0,0,1,8.7,10.87c-2.14,7.14-3.68,14.47-5.31,21.76-.54,2.41-1.65,3.29-4.13,3.41-12.4.6-24.79,1.44-37.18,2.11-11.06.6-22.12,1.08-32.07,1.56-1.1-4-1.73-7.75-3.16-11.13-1.19-2.82-3.76-3.54-6.64-1.86-2.16,1.26-4.37,2.45-6.55,3.66Zm-151,37.4c7.57-2.88,15.53-3,23.48-3.05.81,0,2.11.53,2.32,1.12s-.38,1.79-.93,2.46c-2.45,3-4.87,6-7.57,8.72C26.49,89.3,21,89.26,15.74,89c-2.65-.15-5.21-1.73-8.37-2.86C6.51,80.87,8.06,77.91,13.32,75.9Z"/><path d="M470.28,54.48l-.07,0a1.13,1.13,0,0,1,0-.18Z"/><path d="M347.57,124.07a38.13,38.13,0,1,1,38.1,37.51A38,38,0,0,1,347.57,124.07Zm37.82,30.05a30.63,30.63,0,1,0-30.22-31A30.78,30.78,0,0,0,385.39,154.12Z"/><path d="M121.85,123A38.13,38.13,0,1,1,83.46,85.44,38,38,0,0,1,121.85,123ZM84.29,154.16a30.77,30.77,0,0,0,30.08-31.54C113.86,106,99.67,92.46,83.19,92.9c-16.93.45-30.47,14.5-30.06,31.2A30.71,30.71,0,0,0,84.29,154.16Z"/><path d="M339,63.54c-.52,0-1-.83-1.52-1.28,2.93-3.07,6.41-2.61,10-1.54l1.85,2.88C345.42,63.6,342.19,63.66,339,63.54Z"/><path d="M237.4,64c3.63-2.77,7.84-2.62,11.41.4L237.36,65Z"/><path d="M247.1,69.09c.43,0,.84.81,1.26,1.25-3.05,1.17-6,3.41-9.38.75l-1.62-2C241,69,244,69,247.1,69.09Z"/><path d="M339,69.24l-.8-1.8h9.9l.1,1.42-8,.73h0L339,69.24Z"/><polygon points="339.02 69.24 339.02 69.24 339.02 69.24 339.02 69.24"/><path d="M400.07,148.94l-14.28-17.23L371.7,149C381.16,153.92,390.36,153.83,400.07,148.94Z"/><path d="M406.53,144c7.19-7.92,9.72-16.73,7.58-27.21l-20.39,8.89Z"/><path d="M365.15,144.23c4.27-6.25,8.41-12.29,12.66-18.49L357.25,117C355.3,127.61,357.87,136.5,365.15,144.23Z"/><path d="M381.26,116.57c.33-7.31.64-14.39.95-21.47-6.47-1.1-18.74,6.43-22.2,15Z"/><path d="M411.21,109.94c-3.38-8.16-13.42-15-22.1-15a3.79,3.79,0,0,0-.2,1c.46,6.81.93,13.63,1.41,20.56Z"/><path d="M381.52,124.32c1.41.94,2.93,2.74,4.21,2.58a5.3,5.3,0,0,0,3.59-3.41,3.07,3.07,0,0,0-3.69-3.67c-1.49.23-2.76,1.87-4.13,2.88Z"/><path d="M69.69,149.15c9.64,4.72,18.8,4.8,28.32-.19l-14.2-17.22Z"/><path d="M112.14,116.83l-20.39,8.89L104.53,144C111.81,136.16,114.23,127.27,112.14,116.83Z"/><path d="M75.81,125.77,55.32,117.1c-2.17,10.63.71,19.38,7.81,27.21Z"/><path d="M88.18,116.58l21-6.57c-2.9-7.91-13.09-14.89-22.07-15.08C87.44,102.08,87.81,109.23,88.18,116.58Z"/><path d="M58.1,110.17l21.17,6.42c.32-7.24.64-14.38,1-21.52C73.24,94.18,61,102.09,58.1,110.17Z"/><path d="M79.53,124.46c1.43.9,3,2.65,4.27,2.47a5.32,5.32,0,0,0,3.52-3.46,3.05,3.05,0,0,0-3.75-3.59c-1.5.27-2.74,1.92-4.1,3Z"/></g></g></svg>