<svg height='300px' width='300px' xmlns="http://www.w3.org/2000/svg" data-name="Layer 1" viewBox="0 0 100 100" x="0px" y="0px"><title>A__22</title><path d="M92.44135,35.60315,81.12811,27.38452,76.8075,14.08508a.98184.98184,0,0,0-.93378-.6784H61.8894L50.57709,5.18756a.98184.98184,0,0,0-1.15418,0L38.1106,13.40668H24.1272a.98172.98172,0,0,0-.93372.67834L18.87189,27.384,7.55865,35.60358A.98169.98169,0,0,0,7.202,36.70135l4.32245,13.29847L7.202,63.29871a.98166.98166,0,0,0,.35662,1.09777l11.31324,8.21961,4.32159,13.299a.9817.9817,0,0,0,.93372.6784H38.1106l11.31231,8.21912a.98184.98184,0,0,0,1.15418,0L61.8894,86.59344H75.87372a.98189.98189,0,0,0,.93378-.67846L81.12811,72.6156l11.31324-8.21869a.9817.9817,0,0,0,.35668-1.09772L88.4765,49.99982,92.798,36.70087A.98171.98171,0,0,0,92.44135,35.60315Zm-53.77485-6.965A10.02787,10.02787,0,1,1,28.63837,38.66583,10.03945,10.03945,0,0,1,38.6665,28.63818Zm22.668,42.72376A10.02814,10.02814,0,1,1,71.36261,61.3338,10.03956,10.03956,0,0,1,61.33447,71.36194ZM70.5,33.66418,33.66437,70.49933a2.94416,2.94416,0,0,1-4.16345-4.16388L66.33655,29.50073A2.944,2.944,0,0,1,70.5,33.66418Z"></path></svg>