<svg version="1.0" xmlns="http://www.w3.org/2000/svg" width="1020.000000pt" height="1280.000000pt" viewBox="0 0 1020.000000 1280.000000" preserveAspectRatio="xMidYMid meet">
  <g transform="translate(0.000000,1280.000000) scale(0.100000,-0.100000)">
    <path d="M3351 12779 c-261 -46 -442 -134 -614 -298 -560 -535 -419 -1457 278 -1809 360 -181 835 -137 1157 107 276 210 432 506 445 849 10 252 -48 467 -182 667 -175 262 -445 431 -779 485 -143 24 -169 24 -305 -1z"/>
    <path d="M3359 10310 c-390 -82 -713 -395 -814 -788 -36 -136 -40 -270 -21 -592 23 -382 34 -575 46 -790 6 -102 15 -259 20 -350 6 -91 19 -325 30 -520 62 -1078 91 -1551 101 -1605 22 -132 101 -321 178 -425 182 -250 412 -392 744 -462 36 -8 630 -13 1955 -17 l1903 -6 752 -1305 c748 -1296 753 -1306 833 -1386 64 -65 97 -90 165 -122 120 -58 199 -75 334 -70 84 4 127 11 182 30 147 52 277 164 348 300 39 74 85 238 85 303 0 49 -41 217 -68 277 -18 41 -1845 3203 -1940 3358 -26 41 -67 97 -92 124 -63 68 -177 141 -274 173 l-81 28 -1460 5 -1460 5 -7 160 c-3 88 -8 282 -10 430 l-3 270 1070 5 c1069 5 1070 5 1127 27 137 52 234 137 293 256 133 269 11 572 -278 690 -52 22 -55 22 -1159 27 -608 3 -1110 9 -1114 13 -5 4 -25 229 -45 500 -21 271 -43 526 -49 567 -69 437 -415 802 -844 891 -121 25 -327 25 -447 -1z"/>
    <path d="M1874 7714 c-639 -430 -1164 -1046 -1483 -1740 -233 -507 -356 -1035 -388 -1664 -8 -162 26 -547 72 -815 183 -1057 774 -2009 1650 -2661 353 -262 738 -462 1165 -605 353 -118 612 -169 1049 -209 246 -22 368 -25 487 -11 43 6 135 15 204 21 1416 124 2700 1005 3356 2303 53 105 83 175 79 185 -9 26 -569 992 -572 989 -1 -2 -16 -55 -32 -118 -191 -732 -632 -1390 -1237 -1845 -502 -377 -1092 -601 -1729 -655 -170 -14 -532 -6 -690 16 -628 86 -1184 322 -1665 706 -594 474 -1016 1147 -1180 1884 -86 384 -105 852 -49 1205 80 510 245 942 513 1350 134 203 250 344 443 538 l182 183 -29 502 c-16 276 -30 503 -30 505 -1 10 -30 -7 -116 -64z"/>
  </g>
</svg>
