<svg xmlns="http://www.w3.org/2000/svg" viewBox="0 0 439.25 439.25">
  <!-- <defs>
    <style>.cls-1{fill:#fff;}</style>
  </defs> -->
  <g id="Capa_2" data-name="Capa 2">
    <g id="Capa_2-2" data-name="Capa 2">
      <path id="externo_inferiro" d="M219.62,0C98.33,0,0,98.33,0,219.62A218.68,218.68,0,0,0,38.46,343.8L343.8,38.46A218.68,218.68,0,0,0,219.62,0Z" />
      <path id="externo_superior" d="M400,94.33,94.33,400a218.61,218.61,0,0,0,125.29,39.24c121.3,0,219.63-98.33,219.63-219.63A218.61,218.61,0,0,0,400,94.33Z" />
      <!-- <path id="banda" class="cls-1" d="M343.8,38.46,38.46,343.8A221,221,0,0,0,94.33,400L400,94.33A221,221,0,0,0,343.8,38.46Z" /> -->
    </g>
  </g>
</svg>