<svg xmlns="http://www.w3.org/2000/svg" viewBox="0 0 480.75 419.04"><g id="Capa_1" data-name="Capa 1"><path d="M393.37,170.79a70.63,70.63,0,0,0,2.93-10.95c.47-2.83.85-5.53,1.18-8.14-4.42,21.83-39.22,38.82-81.5,38.82-39.55,0-72.55-14.87-80.27-34.66.23,1.35.47,2.7.73,4.06a68.32,68.32,0,0,0,2.93,11c-6.82-.64-14.85,3.33-7.31,30,5.6,19.47,10.71,24.91,14.61,25.23,3.57,23.21,21.5,52.75,51,63.13a55.83,55.83,0,0,0,37.4-.08c29-10.47,47.47-39.92,51.12-63.05,3.9-.32,9-5.76,14.53-25.31C408.22,174.12,400.19,170.14,393.37,170.79Z" transform="translate(-1 -32.83)"/><path d="M450.26,316.93c-41.47-10.55-75.14-34.24-75.14-34.24l-26.29,83.17-4.95,15.66-.08-.24-4.3,13.31-13.88-39.36c34.08-47.55-6.9-47.06-9.17-47-2.27-.08-43.25-.57-9.17,47l-13.87,39.36-4.3-13.31-.08.24-4.95-15.66L257.7,282.69S224,306.38,182.57,316.93c-30.92,7.87-32.38,43.58-31.16,61.18,0,0,1.78,23.94,3.57,34.49,0,0,60.37,39.19,161.47,39.27S477.93,412.6,477.93,412.6c1.78-10.55,3.57-34.49,3.57-34.49C482.63,360.51,481.17,324.8,450.26,316.93Z" transform="translate(-1 -32.83)"/><path d="M423.66,91.68a2.23,2.23,0,0,0-.52-1.07,34.56,34.56,0,0,1-6.79-14.84c-.51-2.51-.82-5.07-1.23-7.61-4-.33-7.95-.64-11.92-1a281.51,281.51,0,0,1-35.59-5.74,423,423,0,0,1-47-13.65,12.76,12.76,0,0,0-9,.11c-18.86,6.49-38,12.14-57.61,15.79a275.59,275.59,0,0,1-29.87,4l-6.78.51c-.07.53-.13,1-.19,1.41,0,.23,0,.45-.06.67-.81,7.5-3,14.47-7.78,20.44a2.21,2.21,0,0,0-.48,1.21c0,3.39-.26,6.8,0,10.18.38,4.79,2.28,8.9,6.62,11.46a47.06,47.06,0,0,0,4.6,2.31c3.59,1.62,7.12,3.31,9.87,6.27.25.27,1,.17,1.51.07.19,0,.39-.56.41-.86q.5-7.83.91-15.67a1.29,1.29,0,0,1,1-1.33,191.28,191.28,0,0,1,25.27-6.42A298.83,298.83,0,0,1,308.71,93a321.74,321.74,0,0,1,67.37,5.3,160.81,160.81,0,0,1,22.61,6,1.37,1.37,0,0,1,1.09,1.41c.26,5.15.57,10.29.9,15.44,0,.35.3.9.56,1a1.79,1.79,0,0,0,1.46-.15,25.47,25.47,0,0,1,7.87-5.27c2-.94,4.08-1.85,6.05-2.93a13,13,0,0,0,6.47-8.47C424.26,100.79,424.06,96.24,423.66,91.68ZM319,76.44c-.89,4.76-1.69,9.53-2.67,14.29V53.35h.14c.9,4.94,1.66,9.92,2.76,14.82A19.86,19.86,0,0,1,319,76.44Z" transform="translate(-1 -32.83)"/><path d="M398.12,107.32a1.78,1.78,0,0,0-1.5-1.82c-3.63-1-7.22-2.2-10.87-3.12a220,220,0,0,0-37.55-6.09c-9.61-.72-19.24-1.29-28.88-1.47a305.67,305.67,0,0,0-48.73,3,213.3,213.3,0,0,0-34.41,7.59,2.13,2.13,0,0,0-1.76,2.2,212.84,212.84,0,0,0-.41,28.12c.14,2.72.38,5.43.56,7.94a530.65,530.65,0,0,1,163.39,0c.05-.47.15-1.17.19-1.88.2-3.09.42-6.18.55-9.28A198.22,198.22,0,0,0,398.12,107.32Zm-45.24,6.35c-2.38,3.48-4.79,6.94-7.16,10.44a1.62,1.62,0,0,1-1.55.82c-5.08,0-10.16,0-15.24,0a14.55,14.55,0,0,1-15.33,7.13c-.3-.05-.6-.12-.9-.2a14.42,14.42,0,0,1-1.76-.57,14.7,14.7,0,0,1-7.29-6.36c-5.21,0-10.4,0-15.59,0a1.32,1.32,0,0,1-.92-.47c-2.6-3.74-5.17-7.5-7.75-11.26a2.33,2.33,0,0,1-.12-.42c.44,0,.83,0,1.22,0,7.1,0,14.2,0,21.3,0a1.33,1.33,0,0,0,1.43-.9c2.65-5.37,7-8.31,13-8.34s10.43,2.92,13.14,8.31a1.42,1.42,0,0,0,1.51.93c7.07,0,14.13,0,21.19,0h1.39C353.2,113.12,353.06,113.41,352.88,113.67Z" transform="translate(-1 -32.83)"/><path d="M397.48,147c0-.82-.19-1.23-1.13-1.42a304.43,304.43,0,0,0-41.47-5c-12.76-.73-25.54-1.06-38.31-1.56v.33q-23.18-.09-46.26,1.78a307.94,307.94,0,0,0-34.1,4.47c-.87.17-1.18.52-1.09,1.31a51.7,51.7,0,0,0,.86,6.85c1.36,5.31,4.7,9.36,8.82,12.81a58.51,58.51,0,0,0,17.76,9.81c14.92,5.5,30.45,7.66,46.24,8.28a186.78,186.78,0,0,0,36.21-2,120.4,120.4,0,0,0,27.86-7.41c6.46-2.68,12.53-6,17.49-11.07C395,159.41,397.68,153.78,397.48,147ZM374.3,167a99.77,99.77,0,0,1-25.68,8,180.82,180.82,0,0,1-45.22,2.42c-13.36-.88-26.49-3-39.06-7.84-3.2-1.22-6.23-2.88-9.33-4.35a4.29,4.29,0,0,1-.72-.45,230.76,230.76,0,0,0,124.25-.07C377.17,165.48,375.76,166.3,374.3,167Z" transform="translate(-1 -32.83)"/></g><g id="Capa_3" data-name="Capa 3"><path d="M151.73,109.86a43.11,43.11,0,0,0,1.82-6.82c.29-1.75.53-3.44.73-5.06-2.75,13.58-24.39,24.16-50.7,24.16-24.61,0-45.15-9.26-49.95-21.57.14.84.29,1.68.46,2.53a42.88,42.88,0,0,0,1.81,6.81c-4.24-.4-9.24,2.07-4.54,18.68,3.48,12.12,6.66,15.5,9.09,15.7,2.22,14.44,13.38,32.82,31.71,39.28a34.68,34.68,0,0,0,23.27,0c18-6.51,29.54-24.84,31.81-39.23,2.42-.2,5.6-3.58,9-15.75C161,111.93,156,109.46,151.73,109.86Z" transform="translate(-1 -32.83)"/><path d="M187.12,200.79c-25.8-6.56-46.75-21.31-46.75-21.31L124,231.24,120.93,241l-.05-.15-2.67,8.28-8.64-24.49c21.21-29.59-4.29-29.28-5.7-29.23S77,195,98.16,224.62l-8.63,24.49-2.68-8.28,0,.15-3.08-9.74L67.31,179.48s-21,14.75-46.75,21.31C1.33,205.69.42,227.9,1.17,238.86c0,0,1.12,14.89,2.23,21.46,0,0,37.56,24.38,100.47,24.43s100.47-24.43,100.47-24.43c1.11-6.57,2.22-21.46,2.22-21.46C207.27,227.9,206.36,205.69,187.12,200.79Z" transform="translate(-1 -32.83)"/><path d="M170.58,60.64a1.37,1.37,0,0,0-.33-.67A21.59,21.59,0,0,1,166,50.73c-.32-1.56-.51-3.15-.76-4.73-2.48-.21-5-.4-7.43-.63A174.49,174.49,0,0,1,135.7,41.8a264.55,264.55,0,0,1-29.22-8.49,7.91,7.91,0,0,0-5.59.06A250.2,250.2,0,0,1,65,43.2a170.83,170.83,0,0,1-18.58,2.46L42.24,46c-.05.33-.09.6-.12.88s0,.28,0,.42A23.56,23.56,0,0,1,37.24,60a1.44,1.44,0,0,0-.3.75c0,2.12-.16,4.24,0,6.34a8.51,8.51,0,0,0,4.12,7.13,30.59,30.59,0,0,0,2.86,1.44,18.19,18.19,0,0,1,6.14,3.9c.16.17.64.1.94,0,.12,0,.24-.34.26-.53q.3-4.87.56-9.75a.8.8,0,0,1,.65-.83,118.32,118.32,0,0,1,15.72-4,187.89,187.89,0,0,1,30.85-3A200.42,200.42,0,0,1,141,64.76,100.83,100.83,0,0,1,155,68.47a.84.84,0,0,1,.67.88c.17,3.2.36,6.41.57,9.61,0,.22.18.56.35.6a1.09,1.09,0,0,0,.9-.09,15.85,15.85,0,0,1,4.9-3.28c1.26-.59,2.54-1.15,3.76-1.82a8.06,8.06,0,0,0,4-5.28A24.49,24.49,0,0,0,170.58,60.64Zm-65.12-9.49c-.56,3-1,5.93-1.66,8.89V36.79h.08c.57,3.08,1,6.17,1.73,9.22A12.4,12.4,0,0,1,105.46,51.15Z" transform="translate(-1 -32.83)"/><path d="M154.68,70.37a1.1,1.1,0,0,0-.93-1.13c-2.26-.63-4.49-1.38-6.76-1.95a137,137,0,0,0-23.37-3.79c-6-.45-12-.8-18-.91a190,190,0,0,0-30.33,1.88,134.15,134.15,0,0,0-21.41,4.72,1.34,1.34,0,0,0-1.09,1.38,132.59,132.59,0,0,0-.26,17.49c.09,1.69.24,3.38.35,4.94a330.43,330.43,0,0,1,101.67,0c0-.3.09-.73.11-1.17.13-1.93.27-3.85.35-5.78A122.5,122.5,0,0,0,154.68,70.37Zm-28.14,3.94c-1.49,2.17-3,4.33-4.46,6.5a1,1,0,0,1-1,.52c-3.17,0-6.33,0-9.49,0a9,9,0,0,1-9.53,4.44l-.56-.13a8.77,8.77,0,0,1-1.1-.35,9.17,9.17,0,0,1-4.53-4c-3.25,0-6.48,0-9.71,0a.8.8,0,0,1-.57-.29c-1.62-2.32-3.22-4.67-4.82-7a1.37,1.37,0,0,1-.08-.26l.76,0c4.42,0,8.84,0,13.26,0a.83.83,0,0,0,.88-.56,9,9,0,0,1,16.27,0,.89.89,0,0,0,.94.58c4.4,0,8.79,0,13.19,0h.86C126.74,74,126.65,74.15,126.54,74.31Z" transform="translate(-1 -32.83)"/><path d="M154.28,95c0-.5-.11-.76-.7-.88a188.09,188.09,0,0,0-25.8-3.11c-7.94-.45-15.89-.66-23.84-1v.2c-9.61,0-19.2.32-28.78,1.11a191.39,191.39,0,0,0-21.21,2.78c-.55.11-.74.32-.68.81a31.73,31.73,0,0,0,.53,4.27,15.54,15.54,0,0,0,5.49,8,36.58,36.58,0,0,0,11,6.11c9.28,3.42,19,4.76,28.77,5.15a115.6,115.6,0,0,0,22.53-1.24,74.85,74.85,0,0,0,17.34-4.6,31.89,31.89,0,0,0,10.88-6.9A14.17,14.17,0,0,0,154.28,95Zm-14.42,12.47a62.2,62.2,0,0,1-16,5A112.85,112.85,0,0,1,95.75,114a82.48,82.48,0,0,1-24.31-4.87c-2-.77-3.87-1.8-5.8-2.71a3.19,3.19,0,0,1-.45-.28,143.65,143.65,0,0,0,77.31,0C141.65,106.55,140.77,107.06,139.86,107.51Z" transform="translate(-1 -32.83)"/></g></svg>