<svg id="Capa_1" data-name="Capa 1" xmlns="http://www.w3.org/2000/svg" viewBox="0 0 390.66 478.4"><path d="M336.22,148.57a84.78,84.78,0,0,0,3.45-12.94c.56-3.34,1-6.54,1.4-9.62-5.22,25.79-46.34,45.87-96.29,45.87-46.74,0-85.73-17.57-94.85-40.95.26,1.58.55,3.18.86,4.79a80.25,80.25,0,0,0,3.46,12.94c-8.06-.76-17.55,3.94-8.63,35.48,6.61,23,12.65,29.43,17.25,29.82,4.22,27.42,25.41,62.32,60.22,74.59a66,66,0,0,0,44.19-.1c34.23-12.36,56.09-47.17,60.41-74.49,4.6-.39,10.64-6.81,17.16-29.92C353.77,152.5,344.27,147.8,336.22,148.57Z" transform="translate(-49.98 -2.29)"/><path d="M403.43,321.24c-49-12.46-88.78-40.46-88.78-40.46l-31.07,98.28-5.84,18.5-.1-.29L272.56,413l-16.4-46.5c40.27-56.19-8.15-55.61-10.83-55.52-2.69-.09-51.1-.67-10.84,55.52L218.1,413,213,397.27l-.1.29-5.85-18.5-31.16-98.28s-39.79,28-88.78,40.46c-36.53,9.3-38.25,51.49-36.81,72.29,0,0,2.1,28.29,4.21,40.75,0,0,71.34,46.31,190.8,46.41s190.79-46.41,190.79-46.41c2.11-12.46,4.22-40.75,4.22-40.75C441.68,372.73,440,330.54,403.43,321.24Z" transform="translate(-49.98 -2.29)"/><path d="M372,55.09a2.75,2.75,0,0,0-.62-1.27,40.75,40.75,0,0,1-8-17.53c-.61-3-1-6-1.45-9-4.69-.4-9.4-.75-14.1-1.19a332.18,332.18,0,0,1-42-6.79A498.77,498.77,0,0,1,250.29,3.19a15.11,15.11,0,0,0-10.62.13C217.38,11,194.81,17.66,171.6,22a325.23,325.23,0,0,1-35.29,4.68l-8,.6c-.08.63-.16,1.15-.22,1.67,0,.27,0,.53-.08.79-.95,8.86-3.49,17.1-9.19,24.15a2.51,2.51,0,0,0-.56,1.43c-.06,4-.31,8,0,12,.45,5.66,2.69,10.52,7.82,13.54a57.65,57.65,0,0,0,5.44,2.74c4.24,1.91,8.4,3.9,11.66,7.4.3.32,1.2.2,1.79.08.22,0,.45-.65.48-1q.57-9.25,1.08-18.51A1.51,1.51,0,0,1,147.74,70,226,226,0,0,1,177.6,62.4a355.43,355.43,0,0,1,58.58-5.74,380.14,380.14,0,0,1,79.61,6.26A191.33,191.33,0,0,1,342.5,70a1.59,1.59,0,0,1,1.28,1.66c.31,6.09.68,12.17,1.07,18.25,0,.41.36,1.06.66,1.14a2.1,2.1,0,0,0,1.73-.17,30.29,30.29,0,0,1,9.3-6.24c2.4-1.11,4.82-2.18,7.14-3.45a15.32,15.32,0,0,0,7.65-10C372.72,65.85,372.48,60.47,372,55.09Zm-123.65-18c-1.06,5.62-2,11.27-3.16,16.89V9.8h.16c1.07,5.85,2,11.73,3.27,17.52A23.63,23.63,0,0,1,248.36,37.08Z" transform="translate(-49.98 -2.29)"/><path d="M341.82,73.57a2.09,2.09,0,0,0-1.77-2.15c-4.29-1.19-8.52-2.6-12.84-3.69a260.27,260.27,0,0,0-44.37-7.2c-11.35-.85-22.74-1.52-34.12-1.73a362.58,362.58,0,0,0-57.58,3.58,252.67,252.67,0,0,0-40.66,9A2.52,2.52,0,0,0,148.41,74a250.7,250.7,0,0,0-.49,33.23c.17,3.21.45,6.41.66,9.38a626.81,626.81,0,0,1,193.06,0c.06-.56.17-1.39.22-2.22.24-3.66.5-7.32.66-11A233.11,233.11,0,0,0,341.82,73.57Zm-53.44,7.5c-2.83,4.11-5.67,8.21-8.46,12.34a2,2,0,0,1-1.84,1c-6,0-12,0-18,0A17.17,17.17,0,0,1,242,102.79c-.35-.06-.71-.14-1.06-.23a17,17,0,0,1-10.69-8.2c-6.16,0-12.29,0-18.43,0a1.5,1.5,0,0,1-1.08-.55c-3.08-4.42-6.12-8.87-9.16-13.31a3.22,3.22,0,0,1-.15-.5c.52,0,1-.06,1.45-.06,8.39,0,16.78,0,25.17,0a1.58,1.58,0,0,0,1.68-1.06c3.14-6.35,8.25-9.82,15.36-9.86s12.33,3.46,15.53,9.82a1.69,1.69,0,0,0,1.79,1.1c8.34,0,16.69,0,25,0H289C288.75,80.42,288.59,80.76,288.38,81.07Z" transform="translate(-49.98 -2.29)"/><path d="M341.07,120.43c0-1-.23-1.45-1.34-1.67a357.38,357.38,0,0,0-49-5.92c-15.07-.85-30.17-1.24-45.26-1.83l0,.38q-27.37-.11-54.66,2.11a364.1,364.1,0,0,0-40.28,5.27c-1,.21-1.4.62-1.29,1.55a60.17,60.17,0,0,0,1,8.1c1.61,6.27,5.55,11.06,10.41,15.14,6.23,5.23,13.41,8.8,21,11.59,17.63,6.5,36,9,54.63,9.78a220.4,220.4,0,0,0,42.79-2.34A142.62,142.62,0,0,0,312,153.84c7.64-3.17,14.81-7.11,20.67-13.09C338.17,135.11,341.31,128.47,341.07,120.43ZM313.68,144.1c-9.63,4.7-19.86,7.52-30.34,9.48a214,214,0,0,1-53.43,2.85c-15.78-1-31.31-3.55-46.16-9.26-3.77-1.45-7.35-3.4-11-5.13a7.48,7.48,0,0,1-.85-.54q73.14,20.08,146.81-.08C317.07,142.29,315.41,143.26,313.68,144.1Z" transform="translate(-49.98 -2.29)"/></svg>