<svg xmlns="http://www.w3.org/2000/svg" viewBox="0 0 477.5 477.55"><g id="Capa_2" data-name="Capa 2"><g id="Capa_2-2" data-name="Capa 2"><path d="M239.28,477.47c-65.71,0-131.42-.1-197.13.08-13.94,0-25.33-4.75-33.92-15.61A35.36,35.36,0,0,1,.07,439.46c0-16,0-31.93,0-47.9q0-105-.07-210.1c0-5.41,2.3-8.86,6.05-11.77q23.17-18,46.52-35.71c5-3.8,7.89-8.13,7.58-15-.6-13.28-.42-26.61-.11-39.91.39-16.63,8.13-28.86,23.64-35.22a49.32,49.32,0,0,1,17.25-3.57c20.62-.43,41.26-.51,61.88,0a28.85,28.85,0,0,0,20-6.82c11-9,22-18.16,33.73-26.21,10.86-7.46,22.88-9.42,35.9-4.31,11,4.32,18.76,12.89,28.13,19.3,7,4.76,13.18,10.61,20.1,15.43,2.38,1.66,5.89,2.29,8.9,2.32,22.62.21,45.25.54,67.87.06,21.47-.47,40.9,18.52,40.13,40-.46,13,.36,26-.27,38.92-.33,6.91,2.54,11.27,7.51,15.08q23.31,17.84,46.57,35.72a14.27,14.27,0,0,1,6.08,12.27q-.24,127.5,0,255c0,19.58-11.93,34.3-30.21,39.51-4.21,1.2-8.9,1-13.37,1Q336.59,477.52,239.28,477.47Zm-.61-419.41v.1q-64.62,0-129.24,0c-4,0-8-.16-12,.2-11,1-19.21,9.39-19.25,20.35-.18,45.57-.12,91.14-.1,136.71a10.28,10.28,0,0,0,4.43,8.9c12.45,9.35,24.64,19,37,28.58Q136.38,266,153.3,279,174,295,194.63,310.84c11.44,8.77,22.7,17.81,34.49,26.09a16.4,16.4,0,0,0,18.93.19c11.85-8.17,23.09-17.24,34.52-26s23-17.86,34.55-26.75c11.94-9.2,23.95-18.31,35.89-27.5s24.18-18.55,36.12-28c4.77-3.78,10.46-6.59,10.41-14.54-.29-44.07-.49-88.15,0-132.22.16-14.14-10.21-24.31-24.67-24.17C329.48,58.34,284.07,58.06,238.67,58.06Zm0,401.27H389.43c13.14,0,26.29.11,39.43-.11,2.26,0,4.5-1.46,6.75-2.25-1.26-1.75-2.2-3.92-3.84-5.2-8.73-6.86-17.71-13.41-26.46-20.24C387.18,417.36,369.17,403,351,388.84q-31.71-24.78-63.59-49.35c-3.34-2.57-7.14-3.68-11-.74-3,2.31-5.93,4.75-8.94,7.08-8.36,6.5-17.13,11.77-28.31,11.86-9.08.08-16.88-3-24-8.18-4.27-3.12-8.42-6.4-12.58-9.67-4.92-3.87-9.21-3.59-13.7.69a98,98,0,0,1-8,6.67c-14.2,10.92-28.46,21.73-42.63,32.67s-28.21,22-42.35,32.94c-16.11,12.48-32.32,24.85-48.37,37.41-2.2,1.72-3.76,4.26-5.62,6.42,3,.9,6,2.58,9,2.58Q144.84,459.46,238.68,459.33ZM20.33,199.22c-.87,4.42-2,7.62-2,10.82q-.16,94.56-.07,189.12c0,13-.09,25.95.15,38.92,0,2.27,1.07,6,2.44,6.41,2.05.61,5.27-.5,7.17-2,9.47-7.23,18.56-14.95,28-22.25,16.23-12.56,32.65-24.9,48.94-37.39q35.68-27.36,71.31-54.8c3.26-2.5,3.35-6.24.09-8.73-5-3.82-10.1-7.47-15.08-11.29q-20.68-15.9-41.31-31.88Q98.51,259.62,77.14,243,58.89,228.82,40.6,214.69C34.34,209.86,28,205.1,20.33,199.22Zm437-.06c-14.37,10.92-27.21,20.54-39.89,30.34-15.6,12.05-31,24.29-46.61,36.37-12.31,9.55-24.73,18.95-37.06,28.46q-16.14,12.44-32.19,25c-3.42,2.66-3.5,6.31-.33,8.73q16.76,12.83,33.55,25.62c14,10.63,28.07,21.12,42,31.86,16.77,13,33.4,26.12,50.07,39.21,7.55,5.94,14.95,12.06,22.64,17.8,1.84,1.38,5.25,2.82,6.68,2,1.74-1,2.95-4.3,3-6.64.3-11.64.14-23.29.14-34.93q0-96.82,0-193.65C459.23,206.39,458.14,203.47,457.28,199.16ZM59.91,179.36h-.07c0-6.81.15-13.62-.12-20.42a6.93,6.93,0,0,0-2.58-4.34c-.48-.39-2.59.79-3.69,1.61C45.63,162,37.91,168,30.09,173.83c-3.42,2.54-3.4,7.36.18,10.07,7.64,5.79,15.25,11.64,22.94,17.38,1.22.92,3.67,2.26,4,1.91a8.49,8.49,0,0,0,2.57-4.9C60.08,192,59.91,185.67,59.91,179.36Zm357.66-.05h0c0,6.31-.17,12.62.11,18.91a8.6,8.6,0,0,0,2.53,4.91c.33.35,2.8-1,4-1.87,7.69-5.72,15.28-11.57,22.93-17.34,3.38-2.55,3.77-7.42.66-9.77-7.52-5.67-15-11.35-22.62-16.91a34.4,34.4,0,0,0-5.34-2.63c-.77,2.1-2.09,4.17-2.2,6.3C417.37,167,417.57,173.18,417.57,179.31Zm-209-143.46c.12.7.23,1.41.34,2.11,2.5.71,5,2,7.5,2,14.93.19,29.87.1,44.81.06a13.36,13.36,0,0,0,3.92-.6c3.07-1,4.43-2.65,1.22-5.14-5.22-4-10.73-7.77-15.75-12.06a17,17,0,0,0-19.15-2.52C223.23,23.9,216.16,30.37,208.58,35.85Z"/><path d="M268.85,183.14c0,5,.18,10-.05,15s2.52,7.78,6.6,9.51A16.89,16.89,0,0,0,299.16,194c2.81-21.23-9.61-45.32-28.19-56.6-13-7.87-26.74-11.13-41.45-8.69-18,3-32.14,12.26-42.13,27.94-8.48,13.32-11.33,27.66-8.58,42.88,3.09,17.1,12.4,30.52,26.88,40.18a57.88,57.88,0,0,0,31.8,10.09c4.61.07,8.94,4.78,8.95,8.94,0,4.47-4.42,8.63-9.47,8.87-11.43.54-21.75-3.28-32.05-7.71a68.48,68.48,0,0,1-28.35-22.63c-5-6.82-8.8-14.73-12.11-22.58a62.68,62.68,0,0,1-4.67-27.78c1.2-23.59,10.38-43.11,28.53-58.37,15.38-12.93,33.07-19.23,53.13-18.57a75.8,75.8,0,0,1,47.29,18.19c20.34,17,29.77,38.89,28.8,65.21-.44,12-5.61,22.21-15.83,28.33-7,4.19-15.33,6.55-24,4.49-4.37-1-8.66-2.48-13.08-3.15A31.46,31.46,0,0,0,254,223c-8,1.62-15.79,3.55-24.07,1.14a28.88,28.88,0,0,1-21.19-26c-1-13.14,1.64-25.08,10.86-35A30.05,30.05,0,0,1,241.51,153a94.76,94.76,0,0,1,18.76,1.76c5.71,1,8.55,4.66,8.84,10.47s.07,11.95.07,17.93Zm-17.46,5.62h.19c0-3.64,0-7.28,0-10.92-.09-5.93-4.59-9.26-10-7.41-14,4.77-17.09,19-13.62,30,1.49,4.74,8.72,8.35,14,7.17,5.64-1.26,9.71-3.75,9-10.94C250.69,194.09,251.22,191.4,251.39,188.76Z"/></g></g></svg>