<svg xmlns="http://www.w3.org/2000/svg" viewBox="0 0 454.28 160"><g id="Capa_2" data-name="Capa 2"><g id="Capa_3" data-name="Capa 3"><path d="M452.51,0,1.14,15.09,0,20.31C27.82,29.53,55.5,39.2,83.54,47.73c10.21,3.11,14.69,7.75,16.29,18.78,7.25,49.95,15.51,99.75,23.78,149.54,4,24.27,5.13,24.52,25.18,9.93Q289.58,123.56,430.36,21.09q11.94-8.68,23.92-17.36ZM129.73,83.54c1.28,29.42.37,58.94.37,88.41l-4-.38c-6.15-37.52-12.3-75-18.87-115.09l162-23.66c.2,1.19.41,2.37.61,3.56-40.4,8.24-80.7,17-121.24,24.43C134.61,63.37,129.07,68.58,129.73,83.54Zm11,136.1V76c30.25,13.13,59.36,24.58,87.32,38.35,16.21,8,28.83,7.61,43.93-2.79a435.79,435.79,0,0,1,75.63-41.67Z"/></g></g></svg>