<svg height='300px' width='300px' xmlns="http://www.w3.org/2000/svg" xmlns:xlink="http://www.w3.org/1999/xlink" version="1.1" x="0px" y="0px" viewBox="0 0 64 64" style="enable-background:new 0 0 64 64;" xml:space="preserve"><g><g><rect x="9.332" y="37.939" width="17.892" height="3.772"></rect><polygon points="48.521,6.908 48.521,4.035 48.521,1 29.428,1 29.428,4.035 29.428,6.908   "></polygon><path d="M18.278,33.565H5V63h26.555v-6.527V33.565H18.278z M11.021,60.18H8.818c-0.443,0-0.802-0.356-0.802-0.795    s0.359-0.795,0.802-0.795h2.203c0.443,0,0.802,0.356,0.802,0.795S11.464,60.18,11.021,60.18z M11.021,54.641H8.818    c-0.443,0-0.802-0.356-0.802-0.795s0.359-0.795,0.802-0.795h2.203c0.443,0,0.802,0.356,0.802,0.795S11.464,54.641,11.021,54.641z     M11.021,49.104H8.818c-0.443,0-0.802-0.356-0.802-0.795s0.359-0.795,0.802-0.795h2.203c0.443,0,0.802,0.356,0.802,0.795    S11.464,49.104,11.021,49.104z M19.115,60.18h-2.203c-0.443,0-0.802-0.356-0.802-0.795s0.359-0.795,0.802-0.795h2.203    c0.443,0,0.802,0.356,0.802,0.795S19.558,60.18,19.115,60.18z M19.115,54.641h-2.203c-0.443,0-0.802-0.356-0.802-0.795    s0.359-0.795,0.802-0.795h2.203c0.443,0,0.802,0.356,0.802,0.795S19.558,54.641,19.115,54.641z M19.115,49.104h-2.203    c-0.443,0-0.802-0.356-0.802-0.795s0.359-0.795,0.802-0.795h2.203c0.443,0,0.802,0.356,0.802,0.795S19.558,49.104,19.115,49.104z     M27.788,60.18h-2.203c-0.443,0-0.802-0.356-0.802-0.795s0.359-0.795,0.802-0.795h2.203c0.443,0,0.802,0.356,0.802,0.795    S28.23,60.18,27.788,60.18z M27.788,54.641h-2.203c-0.443,0-0.802-0.356-0.802-0.795s0.359-0.795,0.802-0.795h2.203    c0.443,0,0.802,0.356,0.802,0.795S28.23,54.641,27.788,54.641z M27.788,49.104h-2.203c-0.443,0-0.802-0.356-0.802-0.795    s0.359-0.795,0.802-0.795h2.203c0.443,0,0.802,0.356,0.802,0.795S28.23,49.104,27.788,49.104z M28.828,42.505    c0,0.439-0.359,0.795-0.802,0.795H8.53c-0.443,0-0.802-0.356-0.802-0.795v-5.361c0-0.439,0.359-0.795,0.802-0.795h19.496    c0.443,0,0.802,0.356,0.802,0.795V42.505z"></path><path d="M50.125,7.703c0,0.439-0.359,0.795-0.802,0.795H28.626c-0.443,0-0.802-0.356-0.802-0.795V4.829H19.08v27.146h13.278    c0.443,0,0.802,0.356,0.802,0.795v1.913h19.446c0.443,0,0.802,0.356,0.802,0.795c0,0.439-0.359,0.795-0.802,0.795H33.159v19.406    H59V4.829h-8.875V7.703z M52.927,44.241l-7.419,6.677c-0.151,0.137-0.345,0.206-0.539,0.206c-0.167,0-0.335-0.052-0.477-0.156    l-3.274-2.403c-0.356-0.261-0.431-0.759-0.167-1.112c0.261-0.353,0.765-0.43,1.122-0.166l2.744,2.015l6.933-6.239    c0.328-0.294,0.835-0.269,1.133,0.055C53.28,43.443,53.255,43.945,52.927,44.241z M52.605,28.996H25.475    c-0.443,0-0.802-0.356-0.802-0.795s0.359-0.795,0.802-0.795h27.131c0.443,0,0.802,0.356,0.802,0.795S53.048,28.996,52.605,28.996z     M52.605,21.72H25.475c-0.443,0-0.802-0.356-0.802-0.795c0-0.439,0.359-0.795,0.802-0.795h27.131c0.443,0,0.802,0.356,0.802,0.795    C53.407,21.364,53.048,21.72,52.605,21.72z M53.407,13.65c0,0.439-0.359,0.795-0.802,0.795H25.475    c-0.443,0-0.802-0.356-0.802-0.795c0-0.439,0.359-0.795,0.802-0.795h27.131C53.048,12.855,53.407,13.211,53.407,13.65z"></path></g></g></svg>