<svg xmlns="http://www.w3.org/2000/svg" viewBox="0 0 437.84 415.79">
  <defs>
    <style>.cls-1{stroke-miterlimit:10;stroke-width:21px;}</style>
  </defs>
  <g id="Capa_2" data-name="Capa 2">
    <g id="Capa_2-2" data-name="Capa 2">
      <path class="cls-1" d="M427.24,83.4c0-6.35.44-12.8-.49-19-2.46-16.57-17.73-29-35.88-30.12-11.26-.69-22.6-.08-33.9-.12-6.68,0-8.16-1.6-8.24-8.14,0-3.6-.23-7.21-.51-10.8s-3.05-4.33-5.87-4.58-5.94,0-6.57,3.47a112.76,112.76,0,0,0-1.49,13.62c-.24,4-2.12,6.32-6.13,6.34q-27.15.11-54.32,0c-4.89,0-6.57-2-6.7-7.09-.09-3.18.14-6.38-.17-9.53-.53-5.25-2.57-7.08-7-6.86s-6.49,2.26-6.76,7.28c-.16,2.88,0,5.78,0,8.67C253,32.13,251.53,34,246,34c-18,.13-35.93.08-53.89.09-4,0-5.83-2.07-5.85-5.94,0-3.18.08-6.36,0-9.54-.18-4.43-3.54-8-7.49-8.08-4.69-.13-7.11,2.16-7.5,7.53-.23,3.3,0,6.64-.05,10,0,3.85-1.84,5.95-5.81,6q-27.6,0-55.2,0c-4,0-5.72-2.21-5.69-6.06,0-3.33.14-6.66-.08-10-.33-4.84-3.31-7.53-7.87-7.43-4,.08-7.06,3.18-7.33,7.62-.11,1.72.13,3.47.15,5.2.08,10.14-.51,10.41-10.67,10.76-14.38.51-29-2.14-43.09,2.87A35.91,35.91,0,0,0,19,48.74c-6.38,8-8.52,17.22-8.5,27.45q.23,144.66,0,289.33a39.28,39.28,0,0,0,7.69,24.2c6.32,8.6,14.5,13.9,25.16,15a117.46,117.46,0,0,0,12.59.5q81.7,0,163.41,0v0h168.2c6.7,0,13.14-.68,19.29-4,12.33-6.71,20-16.32,20.36-30.69.27-10.25.08-20.52.08-30.78Q427.27,211.59,427.24,83.4ZM25.91,70.11c-.28-9.72,13-21.39,22.39-20.9,11.41.59,22.88.11,34.33.14,5.24,0,6.23,1,6.45,6.42.12,3,.28,6.08.1,9.1C89,68.78,91.33,71.05,94.05,73c3.51,2.49,9.82-1.14,10.22-6,.34-4,.26-8.09.29-12.14,0-3.75,1.76-5.52,5.59-5.51q27.38.06,54.76,0c3.91,0,5.94,1.74,6,5.68.09,3.32.18,6.65.31,10,.17,4.72,3.46,8.76,7.13,8.78s7.67-4.34,7.84-8.83c.13-3.46.07-6.94.23-10.4s1.91-5.23,5.53-5.24c18.11,0,36.21-.18,54.32-.15,4.71,0,6.52,1.93,6.78,6.66.2,3.61,0,7.23.15,10.84s3.6,7.07,6.85,7.13c3,.06,6.52-3.23,6.79-6.78s.06-6.93.25-10.4c.29-5.5,2.11-7.27,7.52-7.29q26.5-.11,53-.11c4.06,0,6,1.94,6.47,6.52.35,3.73.27,7.51.76,11.22s4.32,7.09,7.3,6.82,6.31-3.93,6.48-7.59c.16-3.47,0-6.94.17-10.41.19-5.21,1.46-6.52,6.91-6.62,5.21-.1,10.43.13,15.64.17,5.79,0,11.6.28,17.38,0,14.78-.83,25.12,13.34,24.91,26.47-.11,7.07-.17,14.15-.08,21.22.07,6.09-2.47,8.8-8.55,8.8h-186v0H38.28c-1.73,0-3.48,0-5.21,0-5.31-.23-7.21-1.86-7.26-7.05C25.71,89.18,26.18,79.63,25.91,70.11ZM413.8,362.22c-.07,9.88-2.67,19-11.68,24.13a34.1,34.1,0,0,1-16,4q-141.9.35-283.78.13c-18.39,0-36.78-.53-55.17-.45-10.69,0-21.58-11.42-21.35-21.62.23-10.55-.13-21.1-.13-31.65q0-99.55,0-199.09c0-3.47.06-6.93.1-10.4.06-5.75,1.79-7.5,7.48-7.5H404.35c7.37,0,9.44,1.91,9.44,9.14q0,103.88,0,207.76C413.8,345.19,413.86,353.71,413.8,362.22Z" />
    </g>
    <g id="Capa_9" data-name="Capa 9">
      <path d="M117.61,229.27c-.15-18,10.9-30.46,27.35-30.73,17.77-.3,29.34,11.4,29.95,29.52.64,19.1-15.21,29.53-28.68,30.15C131.37,258.89,117.73,244.36,117.61,229.27Z" />
    </g>
  </g>
</svg>