<svg xmlns="http://www.w3.org/2000/svg" viewBox="0 0 362.91 408.59"><g id="Capa_2" data-name="Capa 2"><g id="Capa_10" data-name="Capa 10"><path d="M0,192.22Q0,144.08,0,96c0-19.09,12.84-36.68,30.8-42.41a48.48,48.48,0,0,1,14.81-2.26q66.21,0,132.44,0c7.09,0,12.06,3.88,13.49,10.46a12.59,12.59,0,0,1-11,14.93c-1.73.14-3.46.23-5.19.23-43.3,0-86.61.07-129.91,0A19.6,19.6,0,0,0,25.72,93.65a12.81,12.81,0,0,0-.09,1.86V289a19.14,19.14,0,0,0,15.92,18.37,23.47,23.47,0,0,0,3.45.26q96,0,192,0a19.18,19.18,0,0,0,19.3-16.91,17.45,17.45,0,0,0,.07-2.4V141.57c0-6.33,3.75-11.39,9.53-12.89A12.81,12.81,0,0,1,282,140.78c0,.22,0,.45,0,.67q0,73.63,0,147.26A45.1,45.1,0,0,1,251.14,331a48.41,48.41,0,0,1-14.8,2.25q-95.34,0-190.66,0c-19-.05-32.89-8.92-41.43-25.9A42.46,42.46,0,0,1,0,288Q0,240.09,0,192.22Z"/><path d="M362.89,290.47q0,36.31,0,72.63a44.83,44.83,0,0,1-36.25,44.28,51,51,0,0,1-9.8.86q-65.16.08-130.31,0c-25,0-49.91.59-74.85.12-18.89-.35-33.1-9.24-41.42-26.6a37,37,0,0,1-3.76-17.25c.09-3.29-.06-6.6.29-9.86a12.2,12.2,0,0,1,10.46-10.41A12.65,12.65,0,0,1,91.87,357a71.56,71.56,0,0,0,.3,9.72c1,7.69,7.74,14.44,15.44,15.61a45.92,45.92,0,0,0,6.73.54q25.42.06,50.86,0,76.43-.12,152.83-.24a19.43,19.43,0,0,0,19.26-19.34q-.1-71.43-.06-142.86c0-5.06-.76-10-4.05-14.16a19.06,19.06,0,0,0-15.27-7.66c-3-.05-6,0-8.93-.28-5.23-.57-9.61-5.16-10.35-10.38a12.64,12.64,0,0,1,12.79-14.7c3.47.06,6.95-.17,10.41.05a40.12,40.12,0,0,1,17.89,5.5q18.11,10.59,22.19,31.22a57.48,57.48,0,0,1,1,11.25q-.06,34.58,0,69.16Z"/><path d="M301.67,46.77a7.82,7.82,0,0,1-2.62,5.5q-16.19,16.2-32.34,32.41Q211.44,140,156.19,195.42a12.3,12.3,0,0,1-5,3.13c-6.15,2-12.26,4.11-18.39,6.16-2.15.72-3.77,0-4.39-1.89a3.12,3.12,0,0,1,0-1.79c2.24-6.81,4.46-13.64,6.84-20.41a9.26,9.26,0,0,1,2.29-3.2q43.85-43.84,87.74-87.64l55.85-55.73c3.3-3.3,7.55-3.3,10.83,0l7.34,7.38A7.41,7.41,0,0,1,301.67,46.77Z"/><path d="M333.23,12.67a12.91,12.91,0,0,1-3.37,8.75Q324.65,26.79,319.29,32a6.24,6.24,0,0,1-8.49-.1q-4.69-4.56-9.25-9.25a6.07,6.07,0,0,1,0-8.94c3.41-3.51,6.79-7.06,10.42-10.35A12.12,12.12,0,0,1,324.85.86,11.93,11.93,0,0,1,333,10.69c.08.48.16,1,.22,1.45A4.68,4.68,0,0,1,333.23,12.67Z"/></g></g></svg>