<svg height='300px' width='300px' xmlns:xlink="http://www.w3.org/1999/xlink" xmlns="http://www.w3.org/2000/svg" stroke-width="0.501" stroke-linejoin="bevel" version="1.1" overflow="visible" viewBox="0 0 12 12" x="0px" y="0px"><g stroke="black" font-family="Times New Roman" font-size="16" transform="scale(1 -1)"><g transform="translate(0 -12)"><g><path d="M 1.5,0.75 C 1.5,1.16 1.831,1.494 2.24,1.499 L 1.273,1.499 C 0.571,1.499 0.001,2.069 0.001,2.771 L 0.001,8.478 C 0.001,9.18 0.571,9.75 1.273,9.75 L 2.252,9.75 L 2.252,1.499 C 2.665,1.499 3.002,1.163 3.002,0.75 C 3.002,0.336 2.665,0 2.251,0 C 1.837,0 1.5,0.336 1.5,0.75 Z M 8.999,0.75 C 8.999,1.164 9.336,1.5 9.75,1.5 L 9.752,1.499 L 9.752,9.75 L 10.728,9.75 C 11.43,9.75 12,9.18 12,8.478 L 12,2.771 C 12,2.069 11.43,1.499 10.728,1.499 L 9.755,1.499 C 10.166,1.497 10.501,1.162 10.501,0.75 C 10.501,0.336 10.164,0 9.75,0 C 9.336,0 8.999,0.336 8.999,0.75 Z M 3.001,1.499 L 3.001,9.75 L 3.752,9.75 L 3.752,10.866 C 3.752,11.488 4.256,11.993 4.879,11.993 L 7.124,11.993 C 7.746,11.993 8.251,11.488 8.251,10.866 L 8.251,9.75 L 9.001,9.75 L 9.001,1.499 L 3.001,1.499 Z M 7.501,9.75 L 7.501,10.866 C 7.501,11.073 7.331,11.243 7.124,11.243 L 4.879,11.243 C 4.671,11.243 4.502,11.073 4.502,10.866 L 4.502,9.75 L 7.501,9.75 Z" stroke="none" stroke-width="0.75" stroke-linejoin="round" stroke-linecap="round" marker-start="none" marker-end="none" stroke-miterlimit="79.8403193612775"></path></g></g></g></svg>