<svg class="icon" style="width: 1em; height: 1em;vertical-align: middle;fill: currentColor;overflow: hidden;" viewBox="0 0 1024 1024" version="1.1" xmlns="http://www.w3.org/2000/svg"><path d="M894.995 209.1h-765.99c-35.29 0-64 28.71-64 64v477.8c0 35.29 28.71 64 64 64h765.991c35.29 0 64-28.71 64-64V273.1c-0.001-35.29-28.711-64-64.001-64zM548.093 362.528h234.396c17.673 0 32 14.327 32 32s-14.327 32-32 32H548.093c-17.673 0-32-14.327-32-32s14.327-32 32-32z m-393.45 316.623c0-97.09 73.085-175.797 163.24-175.797-48.545 0-87.898-39.353-87.898-87.898s39.353-87.898 87.898-87.898 87.898 39.353 87.898 87.898-39.353 87.898-87.898 87.898c90.155 0 163.24 78.707 163.24 175.797h-326.48z m627.846-14.042H548.093c-17.673 0-32-14.327-32-32s14.327-32 32-32h234.396c17.673 0 32 14.327 32 32s-14.328 32-32 32z m31.326-119.291H548.093c-17.673 0-32-14.327-32-32s14.327-32 32-32h265.722c17.673 0 32 14.327 32 32s-14.327 32-32 32z" /></svg>