<svg class="icon" style="width: 1em; height: 1em;vertical-align: middle;fill: currentColor;overflow: hidden;" viewBox="0 0 1024 1024" version="1.1" xmlns="http://www.w3.org/2000/svg"><path d="M548.093 426.528h234.396c17.673 0 32-14.327 32-32s-14.327-32-32-32H548.093c-17.673 0-32 14.327-32 32s14.327 32 32 32zM813.815 481.818H548.093c-17.673 0-32 14.327-32 32s14.327 32 32 32h265.722c17.673 0 32-14.327 32-32s-14.327-32-32-32zM782.489 601.109H548.093c-17.673 0-32 14.327-32 32s14.327 32 32 32h234.396c17.673 0 32-14.327 32-32s-14.328-32-32-32zM317.883 415.456m-87.898 0a87.898 87.898 0 1 0 175.796 0 87.898 87.898 0 1 0-175.796 0ZM317.883 503.354c-90.155 0-163.24 78.707-163.24 175.797h326.48c0-97.09-73.085-175.797-163.24-175.797zM894.995 209.1h-765.99c-35.29 0-64 28.71-64 64v477.8c0 35.29 28.71 64 64 64h765.991c35.29 0 64-28.71 64-64V273.1c-0.001-35.29-28.711-64-64.001-64z m0 541.743a0.398 0.398 0 0 1-0.058 0.058H129.062a0.53 0.53 0 0 1-0.058-0.058V273.157a0.446 0.446 0 0 1 0.058-0.057h765.875a0.454 0.454 0 0 1 0.058 0.058v477.685z" /></svg>