<svg xmlns="http://www.w3.org/2000/svg" viewBox="0 0 444.43 444.43"><g id="Capa_2" data-name="Capa 2"><g id="Capa_4" data-name="Capa 4"><path d="M157.42,111.84q-2.43.6-4.78,1.36a4.33,4.33,0,0,0,1.33,8.46,4.4,4.4,0,0,0,1.33-.21c1.36-.45,2.75-.84,4.15-1.17a4.34,4.34,0,0,0-2-8.44Z"/><path d="M138,120a65.54,65.54,0,0,0-31,55.85,4.34,4.34,0,0,0,8.68,0,56.91,56.91,0,0,1,26.89-48.5A4.34,4.34,0,0,0,138,120Z"/><path d="M349.51,302.47a8.61,8.61,0,0,0-2.49-5.25L263.41,213.6a97.36,97.36,0,0,0,7.79-38.27,98.91,98.91,0,1,0-58.44,90.18l35,35a8.69,8.69,0,0,0,11.21.9l3.4-2.46,1.16,1-2.6,6a8.68,8.68,0,0,0,1.84,9.57L279.25,332a8.54,8.54,0,0,0,5.61,2.52l11.21.67,5.41,15.71a8.68,8.68,0,0,0,8.2,5.85,7.88,7.88,0,0,0,1.92-.23l35-7.95a8.66,8.66,0,0,0,6.7-9.33Zm-34.16,35.41L310.59,324a8.68,8.68,0,0,0-7.69-5.83l-13.71-.81-10-10,2.8-6.46a8.67,8.67,0,0,0-2.33-10l-11.21-9.57a8.69,8.69,0,0,0-10.71-.43L254.78,283l-34.12-34.13a8.66,8.66,0,0,0-10.2-1.53,80.47,80.47,0,0,1-38.12,9.49,81.5,81.5,0,1,1,81.51-81.49,80.72,80.72,0,0,1-8.6,36.27,8.67,8.67,0,0,0,1.63,10l85.7,85.7,2.65,26.05Z"/></g><g id="Capa_5" data-name="Capa 5"><path d="M222.21,0C99.48,0,0,99.48,0,222.21S99.48,444.43,222.21,444.43,444.43,345,444.43,222.21,345,0,222.21,0Zm0,420.84c-109.89,0-199-89.08-199-199s89.08-199,199-199,199,89.08,199,199S332.08,420.84,222.19,420.84Z"/></g></g></svg>