<svg xmlns="http://www.w3.org/2000/svg" viewBox="0 0 281.57 285"><g id="Capa_2" data-name="Capa 2"><g id="Layer_1" data-name="Layer 1"><path d="M278.09,235.51a7.48,7.48,0,0,0-2.23-4.75L163.62,118.51a85.18,85.18,0,1,0-45.14,45.15l36.88,36.9a7.72,7.72,0,0,0,5.74,2.25l20.09-.71-.65,20.15a7.68,7.68,0,0,0,7.93,7.95l20.17-.69-.73,20.12a7.9,7.9,0,0,0,2.24,5.72,7.39,7.39,0,0,0,5.74,2.25l20.12-.69L235.33,277a7.65,7.65,0,0,0,7.67,8l.84,0,30.86-3.43a7.74,7.74,0,0,0,6.84-8.35ZM74.89,74.92a24.22,24.22,0,1,1,0-34.25A24.21,24.21,0,0,1,74.89,74.92ZM251.76,238.07a5.83,5.83,0,0,1-8.21,0l-95.5-95.52a82.49,82.49,0,0,0,7.28-9.06l96.42,96.41A5.78,5.78,0,0,1,251.76,238.07Z"/></g></g></svg>