<svg viewBox="0 0 512 512">
  <g>
    <g>
      <path d="m460.294 389.353c4.133 0 7.482-3.349 7.482-7.482s-3.35-7.482-7.482-7.482h-40.34v-19.631c0-4.133-3.35-7.482-7.482-7.482s-7.482 3.349-7.482 7.482v19.631h-40.34c-4.133 0-7.482 3.35-7.482 7.482 0 4.133 3.35 7.482 7.482 7.482h64.808c-3.646 9.239-10.759 24.12-23.06 38.971-3.911-4.722-7.564-9.757-10.934-15.12-2.198-3.498-6.817-4.551-10.317-2.355-3.499 2.199-4.554 6.817-2.355 10.316 4.083 6.498 8.544 12.57 13.351 18.225-7.469 7.203-16.324 14.046-26.79 19.826-3.617 1.998-4.93 6.55-2.933 10.167 1.365 2.471 3.921 3.866 6.557 3.866 1.223 0 2.464-.3 3.611-.933 11.689-6.456 21.553-14.023 29.858-21.966 8.971 8.599 18.94 15.942 29.847 21.966 1.147.633 2.387.933 3.611.933 2.636 0 5.192-1.395 6.557-3.866 1.997-3.617.685-8.169-2.933-10.167-9.785-5.404-18.736-12.006-26.8-19.747 17.16-20.092 25.466-40.473 28.722-50.116z"/><path d="m299.756 353.47c-1.547-3.766-5.176-6.196-9.247-6.196-.003 0-.006 0-.01 0-4.074.004-7.703 2.443-9.245 6.215-.022.055-.045.112-.066.167l-41.684 109.447c-1.471 3.861.467 8.184 4.329 9.655.876.334 1.777.492 2.662.492 3.015 0 5.857-1.836 6.994-4.821l8.546-22.439h56.645l8.46 22.418c1.458 3.866 5.777 5.819 9.642 4.358 3.866-1.458 5.817-5.776 4.358-9.643l-41.305-109.451c-.025-.067-.051-.135-.079-.202zm-32.022 77.555 22.753-59.74 22.545 59.74z"/><path d="m504.518 419.938c4.133 0 7.482-3.35 7.482-7.482v-83.198c0-10.133-8.243-18.376-18.376-18.376h-30.921c7.635-23.463 11.613-48.237 11.613-73.626 0-63.347-24.669-122.903-69.462-167.696s-104.349-69.462-167.696-69.462-122.903 24.669-167.696 69.462-69.462 104.349-69.462 167.696 24.669 122.903 69.462 167.697c35.994 35.994 81.525 58.97 130.891 66.616v21.957c0 10.132 8.243 18.376 18.376 18.376h274.896c10.132 0 18.376-8.243 18.376-18.376v-47.119c0-4.133-3.35-7.482-7.482-7.482s-7.482 3.35-7.482 7.482v47.119c0 1.88-1.531 3.411-3.411 3.411h-274.897c-1.881 0-3.411-1.531-3.411-3.411v-164.268c0-1.88 1.53-3.411 3.411-3.411h274.896c1.88 0 3.411 1.531 3.411 3.411v83.198c-.001 4.132 3.349 7.482 7.482 7.482zm-150.464-371.676c27.534 17.067 51.364 40.33 69.127 67.439-3.779 8.481-7.767 16.934-11.878 25.18-7.551 15.141-14.86 22.888-32.263 23.38-5.776.164-11.749.332-17.794 2.312-12.898 4.236-22.428 16.16-23.714 29.67-1.285 13.523 5.83 27.029 17.705 33.61 2.19 1.214 4.404 2.146 6.544 3.047 3.775 1.59 7.035 2.964 8.341 5.085.636 1.036.738 2.359.302 3.933-.742 2.679-2.921 5.354-5.42 6.653-5.605 2.914-13.006 2.487-20.73 1.745-2.682-.26-5.414-.517-8.188-.779-30.929-2.916-65.986-6.22-92.847-17.773-17.904-7.703-15.666-28.44-11.204-52.73.529-2.871 1.686-6.734 2.913-10.824 3.407-11.372 7.27-24.259 3.688-33.886-5.368-14.428-18.236-15.995-27.633-17.139-4.525-.551-8.8-1.072-12.048-2.676-5.213-2.577-9.736-7.705-11.523-13.064-.847-2.54-1.472-6.327.355-9.939 2.301-4.543 7.577-7.76 13.163-11.167.659-.402 1.316-.803 1.963-1.202 24.555-15.148 44.724-36.773 58.612-62.745 32.698 3.579 64.587 14.55 92.529 31.87zm92.85 262.62h-228.175c-10.132 0-18.376 8.243-18.376 18.376v127.149c-22.093-3.66-43.345-10.59-63.16-20.591 9.286-10 14.937-21.861 15.808-33.696 1.052-14.416-4.467-27.229-9.805-39.622-4.173-9.689-8.115-18.841-8.78-28.223-.361-5.124 2.778-13.988 5.815-22.56 3.558-10.045 7.459-20.332 7.78-31.107.496-16.677-9.345-24.029-17.692-27.26-17.064-6.6-37.039 5.586-50.793 16.971-3.183 2.635-3.628 7.351-.993 10.535 2.634 3.183 7.351 3.628 10.535.993 14.865-12.303 27.934-17.602 35.851-14.542 9.406 3.642 11.652 9.923 1.206 39.413-3.712 10.479-7.218 20.376-6.637 28.612.844 11.916 5.48 22.679 9.963 33.087 4.839 11.235 9.41 21.847 8.624 32.608-.697 9.466-5.898 19.198-14.452 27.268-3.793-2.257-7.52-4.625-11.174-7.101-21.836-14.797-41.013-33.521-56.297-54.999-5.703-8.014-10.903-16.426-15.542-25.215 1.829-1.24 3.516-2.586 5.08-4.049 8.991-8.409 13.18-21.134 20.436-31.034 2.443-3.333 1.723-8.015-1.61-10.459-3.333-2.442-8.015-1.722-10.459 1.612-3.117 4.255-5.791 8.986-8.269 13.618-3.13 5.852-6.085 11.379-10.316 15.328-.495.463-1.019.906-1.562 1.337-12.418-27.993-18.947-58.533-18.947-90.076 0-59.35 23.112-115.147 65.079-157.114 41.966-41.967 97.764-65.078 157.114-65.078 2.603 0 5.196.061 7.784.149-9.102 15.314-20.879 29.079-34.685 40.346-11.283 9.207-28.994 15.703-35.825 29.19-3.242 6.411-3.669 14.021-1.199 21.428 3.077 9.231 10.213 17.361 19.09 21.749 5.536 2.735 11.557 3.468 16.869 4.115 9.598 1.168 13.413 2.118 15.416 7.502 1.832 4.922-1.537 16.163-3.997 24.371-1.346 4.492-2.618 8.736-3.295 12.413-3.857 20.998-10.313 56.139 20.009 69.185 29.026 12.483 65.328 15.905 97.357 18.924 6.192.583 12.429 1.385 18.657 1.385 6.321 0 12.644-.895 18.568-3.973 6.236-3.244 11.073-9.202 12.938-15.937 1.544-5.578.844-11.175-1.976-15.765-3.823-6.213-10.176-8.888-15.281-11.038-1.858-.783-3.613-1.522-5.098-2.346-6.537-3.623-10.769-11.656-10.061-19.104.708-7.441 6.38-14.536 13.48-16.868 3.975-1.302 8.627-1.433 13.553-1.573 6.217-.175 13.264-.374 19.974-3.142 12.813-5.274 19.756-17.486 25.258-28.519 2.676-5.367 5.291-10.823 7.839-16.315 17.509 32.162 26.818 68.369 26.818 106.012.002 25.473-4.267 50.282-12.445 73.63z"/>
    </g>
  </g>
</svg>