<svg version="1.0" xmlns="http://www.w3.org/2000/svg" width="750pt" height="600pt" viewBox="0 0 750 600" preserveAspectRatio="xMidYMid meet">
  <g transform="translate(0,600) scale(0.100000,-0.100000)" stroke="none">
    <path d="M3063 5985 c-147 -32 -300 -148 -370 -280 -56 -108 -66 -164 -67 -415 l-1 -225 188 -3 187 -2 0 207 c0 182 3 213 19 249 25 54 75 92 141 104 31 6 272 10 590 10 318 0 559 -4 590 -10 66 -12 116 -50 141 -104 16 -36 19 -67 19 -249 l0 -207 188 2 187 3 -1 225 c-1 178 -5 238 -18 290 -54 201 -223 363 -424 405 -95 21 -1276 20 -1369 0z"/>
    <path d="M600 4984 c-298 -64 -524 -291 -584 -586 -14 -69 -16 -278 -16 -1898 0 -1624 2 -1829 16 -1898 61 -295 291 -525 586 -586 60 -12 141 -16 363 -16 l285 0 0 2500 0 2500 -292 -1 c-211 0 -311 -5 -358 -15z"/>
    <path d="M1500 2500 l0 -2500 2250 0 2250 0 0 2500 0 2500 -2250 0 -2250 0 0 -2500z"/>
    <path d="M6250 2500 l0 -2500 285 0 c222 0 303 4 363 16 278 57 492 258 579 543 16 52 18 190 21 1906 2 1665 1 1858 -13 1930 -60 298 -289 528 -587 589 -60 12 -142 16 -363 16 l-285 0 0 -2500z"/>
  </g>
</svg>
