<svg xmlns="http://www.w3.org/2000/svg" viewBox="0 0 980 653.4"><g id="Capa_2" data-name="Capa 2"><g id="Capa_1-2" data-name="Capa 1"><path d="M963.9,16.2C953.1,5.4,940.3,0,925.6,0H54.5C39.7,0,27,5.4,16.2,16.2S0,39.8,0,54.5V598.9c0,14.8,5.3,27.5,16.1,38.3s23.6,16.2,38.3,16.2H925.5c14.8,0,27.5-5.4,38.3-16.2S980,613.6,980,598.9V54.5C980,39.7,974.6,27,963.9,16.2ZM494.73,98.94a221.22,221.22,0,0,1,58.35,73.8c9.12,18.63,16,38.09,18.81,58.74,1.76,12.75,3,25.56,3.8,32.4-.87,58.29-16.69,105.29-50.34,145.6-9.36,11.22-20.56,20.9-30.86,31.34-2.57,2.61-4.54,2.18-7.27-.08-30.07-24.9-52.35-55.49-66.35-91.87a218,218,0,0,1-14.14-69,221.3,221.3,0,0,1,6.5-65.2c8.36-32.56,23.28-62,45.49-87.4,8.81-10.07,19-18.9,28.54-28.37C489.91,96.23,492,96.64,494.73,98.94ZM263.64,601.59H251c0-8.77.12-17.35-.05-25.92a82.81,82.81,0,0,0-1.14-11.87c-1.09-6.6-5.66-10.36-12-10.3-6.53.07-12.9,4.91-13.25,11.06-.53,9.35-.26,18.75-.42,28.12-.19,10.38,2.07,9.13-9.77,9.31-2.94,0-3.73-1.31-3.7-3.91.05-6,.09-12,0-18-.09-5.06-.29-10.13-.66-15.18-.46-6.43-4.92-10.9-11.08-11.39s-12.73,3.82-14,9.5a36.65,36.65,0,0,0-1,7.73c-.11,9.08-.13,18.16,0,27.23,0,2.95-.87,4.09-3.95,4-11.72-.23-9.46,1.06-9.55-9.48-.13-14.92.09-29.84-.12-44.76,0-3.85,1.07-5.32,4.93-4.93,2.56.26,5.16,0,7.93,0,.31,2,.56,3.58.83,5.33,12.59-11.24,27.54-7.89,35.5,1.79,4.44-2.63,8.57-5.84,13.23-7.66,9.43-3.69,21.61.12,27.06,8.25,1.9,2.83,3.63,6.41,3.73,9.7C263.88,573.92,263.64,587.58,263.64,601.59Zm67.56.38a10.4,10.4,0,0,0-2.3,0c-3.51.29-6.87.36-7.07-4.52-19.68,8.66-31.81,6.8-41.3-6.34A32.87,32.87,0,0,1,282,551.42c9.89-11.87,23-13.11,39.55-4.27,2.17-4.71,5.26-5.53,14.07-3.58.09,1.26.27,2.61.27,4,0,16.58-.08,33.17.08,49.76C336,600.91,334.86,602.47,331.2,602ZM214.89,441.22c-100-82-108.81-228.83-22.52-321.57C279.15,26.39,407.59,36,476.24,86.09,420.3,135,389.9,195.82,390,270.12c.09,74.09,30.47,134.76,86.86,183.85-40.8,26.36-84.85,38.8-133.09,36.48S252.18,471.81,214.89,441.22ZM389.44,600.17c-12.85,5.14-25.48,4.07-37.83-2-3.35-1.66-4.38-3.47-1.68-6.64a55.37,55.37,0,0,0,3.92-6.1c8.41,5.29,17,7.4,26.28,5.18,3.09-.73,6.09-1.94,6.15-5.73s-3-4.63-5.89-5.28c-6.12-1.34-12.33-2.32-18.35-4-7.65-2.14-12-8-12-15.36a17.5,17.5,0,0,1,11.9-16.84A44,44,0,0,1,395.85,546c1,.52,2.06,3,1.67,4a14.52,14.52,0,0,1-4.52,6.44c-7-1-14-2.25-21-3a9.29,9.29,0,0,0-5.52,1.81c-3.77,2.53-3.31,7,1,8.35,4.49,1.39,9.26,1.87,13.9,2.82,6.2,1.26,12.36,2.81,16.23,8.42C403.49,583.32,399.4,596.19,389.44,600.17Zm42,1.64c-7.81-2.62-10.79-9.24-11-16.9-.33-9.8-.08-19.61-.08-30.14H408.79V543.06h11.38V525.5h13.34c0,4.66.11,9.08,0,13.48-.11,3,1.07,4.09,4.06,3.95,4.3-.2,8.61.08,12.91-.09,2.85-.11,4.17.61,4.1,3.81-.22,9.9.73,8.05-8,8.22-3.68.08-7.37,0-11.06.08a9.28,9.28,0,0,0-1.72.4c0,9.56-.52,19.21.19,28.77.45,5.88,6.85,8,13.89,5.7,5.81-2,5.8-2,7.58,3.86.45,1.45,1,2.87,1.64,4.79A28.2,28.2,0,0,1,431.45,601.81Zm90.4-24.56H479.56a12.59,12.59,0,0,0,9.31,13,24.5,24.5,0,0,0,20.72-3.12c2.61-1.66,3.86-1.73,5.25,1.18,1,2.16,2.68,4,4.75,7-4.24,2.15-8,4.66-12.15,6.05-13.89,4.66-30.81,1.53-38.75-12.23-8.56-14.83-3.77-36,10.44-44.15a28.3,28.3,0,0,1,42.71,24C521.89,571.46,521.85,573.91,521.85,577.25Zm49.24-30c-1.06,2.35-1.78,4.85-2.82,7.74-1.61-.35-3.2-.67-4.78-1-8.35-1.93-15,3.27-15.28,12.47-.3,9.52-.09,19.06-.11,28.59,0,6.88,0,6.88-6.68,6.88h-6.48V543.74c7.79-2.3,12.35-1.2,14,3.6,5.15-5.32,11.45-6.77,18.48-5.81C571,542,572.87,543.35,571.09,547.3Zm22.1,36.84c4.95,6.25,14.51,8.46,22.06,5.06,2.33-1.06,4.61-2.24,7.17-3.48a53.48,53.48,0,0,0,3.61,5.84c3.15,3.9,1.41,6-2.32,8-14.26,7.54-40.27,5.14-46.37-17C571.51,561.4,582,543,604.92,541.37c7.2-.52,14,.66,20.24,4.53,2.43,1.51,3.83,3,1.44,5.72a13.84,13.84,0,0,0-1.75,3.19c-1.5,3.13-3,4.08-6.64,2-9.59-5.55-19.64-3.62-25.48,4.16C588.05,567.17,588.26,577.92,593.19,584.14Zm102,17.45H682.92c-.35-1.78-.66-3.37-1-5.06-14.68,9.93-29.61,8.66-40-3.21-10.07-11.51-9.53-31.57.84-43,7.93-8.73,25.39-13.93,39.23-2.09.31-2,.53-3.29.8-5h12.37ZM748,548.05c-2.08,6.64-2.08,6.64-8.77,5.64-7.73-1.15-14,4.85-14.11,13.78-.13,9.67,0,19.34,0,29v5.44a101.39,101.39,0,0,1-10.59-.14A3.9,3.9,0,0,1,712,599q-.24-26.48,0-53c0-1,1.72-2.83,2.8-3a80.53,80.53,0,0,1,9.89-.14c.19,2.07.31,3.43.51,5.6,7.18-7.53,15.13-9.25,24.3-5.21C748.91,545.15,748.47,546.6,748,548.05ZM810.38,602c-1.53-.1-3.07-.05-4.61,0-3.08.07-6.29.37-5.4-5.54-8.82,7-17.67,8.45-27.15,5.5a27.72,27.72,0,0,1-15.07-11.4c-8.11-12.08-6.93-29.66,2.74-40.08,10-10.81,22.61-11.89,39.47-2.89,0-7.24-.1-14.09.06-20.93.05-2.35.3-6.47,1.24-6.7,3.45-.87,7.24-.61,10.87-.35.61,0,1.51,2.2,1.51,3.39.09,25,.05,50.1.1,75.15C814.15,600.81,813.21,602.15,810.38,602ZM826,406.87c-1-3.53-1.77-6.14-2.6-9h5.44C828,400.55,827.12,403.22,826,406.87Zm8.25,198c-2.65-.32-5-1.7-5.11-5.57-.11-4.07,1.72-6.22,5.54-6.32a6.08,6.08,0,0,1,6.45,5.73C841.2,601.93,838.31,604.83,834.22,604.91ZM832.09,405.8v-8l.95-.29,3.2,4.37,3.39-4.24,1.18.13v9.33c-.9-1.68-1.35-2.54-1.54-2.88Zm-41.46,13c-84.1,91.59-210.51,87.43-285.26,34.86,56.08-48.81,86.49-109.63,86.48-183.9s-30.5-135-86.17-183.62C568.93,39.48,686.77,27.4,773.3,103.85,868.06,187.58,872.87,329.23,790.63,418.79Z"/></g><g id="Capa_2-2" data-name="Capa 2"><path d="M783.88,553.5c-9.73.09-17.51,8.41-17.52,18.74,0,10.66,7.26,18.35,17.42,18.4,10.35.06,17.54-7.35,17.58-18.1S793.7,553.4,783.88,553.5Z"/><path d="M305.81,553.5c-9.7,0-17.47,8.28-17.54,18.65-.06,10.7,7.14,18.38,17.32,18.49s17.62-7.39,17.67-18.08S315.68,553.5,305.81,553.5Z"/><path d="M665.54,553.5c-9.69,0-17.32,8.28-17.33,18.74-.54,8.8,6.44,18.53,17.29,18.51,11.07,0,17.57-8.76,17.74-18.71S675.05,553.47,665.54,553.5Z"/><path d="M507.42,566.35c-.66-9.07-6.62-13.8-16-13-6.79.56-12.36,6.67-11.84,13Z"/></g></g></svg>