<svg xmlns="http://www.w3.org/2000/svg" viewBox="0 0 434.84 412.79">
  <defs>
    <style>.cls-1{stroke-miterlimit:10;stroke-width:18px;}</style>
  </defs>
  <g id="Capa_2" data-name="Capa 2">
    <g id="Capa_2-2" data-name="Capa 2">
      <path class="cls-1" d="M425.74,81.9c0-6.35.44-12.8-.49-19-2.46-16.57-17.73-29-35.88-30.12-11.26-.69-22.6-.08-33.9-.12-6.68,0-8.16-1.6-8.24-8.14,0-3.6-.23-7.21-.51-10.8s-3.05-4.33-5.87-4.58-5.94,0-6.57,3.47a112.76,112.76,0,0,0-1.49,13.62c-.24,4-2.12,6.32-6.13,6.34q-27.15.11-54.32,0c-4.89,0-6.57-2-6.7-7.09-.09-3.18.14-6.38-.17-9.53-.53-5.25-2.57-7.08-7-6.86s-6.49,2.26-6.76,7.28c-.16,2.88,0,5.78,0,8.67-.08,5.66-1.59,7.48-7.09,7.52-18,.13-35.93.08-53.89.09-4,0-5.83-2.07-5.85-5.94,0-3.18.08-6.36,0-9.54-.18-4.43-3.54-8-7.49-8.08-4.69-.13-7.11,2.16-7.5,7.53-.23,3.3,0,6.64-.05,10,0,3.85-1.84,5.95-5.81,6q-27.6,0-55.2,0c-4,0-5.72-2.21-5.69-6.06,0-3.33.14-6.66-.08-10-.33-4.84-3.31-7.53-7.87-7.43-4,.08-7.06,3.18-7.33,7.62-.11,1.72.13,3.47.15,5.2C88,32,87.36,32.27,77.2,32.62c-14.38.51-29-2.14-43.09,2.87A35.91,35.91,0,0,0,17.5,47.24C11.12,55.29,9,64.46,9,74.69Q9.23,219.35,9,364a39.28,39.28,0,0,0,7.69,24.2c6.32,8.6,14.5,13.9,25.16,15a117.46,117.46,0,0,0,12.59.5q81.7,0,163.41,0v0h168.2c6.7,0,13.14-.68,19.29-4,12.33-6.71,20-16.32,20.36-30.69.27-10.25.08-20.52.08-30.78Q425.77,210.09,425.74,81.9ZM24.41,68.61c-.28-9.72,13-21.39,22.39-20.9,11.41.59,22.88.11,34.33.14,5.24,0,6.23,1,6.45,6.42.12,3,.28,6.08.1,9.1-.23,3.91,2.15,6.18,4.87,8.11,3.51,2.49,9.82-1.14,10.22-6,.34-4,.26-8.09.29-12.14,0-3.75,1.76-5.52,5.59-5.51q27.38.06,54.76,0c3.91,0,5.94,1.74,6,5.68.09,3.32.18,6.65.31,10,.17,4.72,3.46,8.76,7.13,8.78s7.67-4.34,7.84-8.83c.13-3.46.07-6.94.23-10.4s1.91-5.23,5.53-5.24c18.11,0,36.21-.18,54.32-.15,4.71,0,6.52,1.93,6.78,6.66.2,3.61,0,7.23.15,10.84s3.6,7.07,6.85,7.13c3,.06,6.52-3.23,6.79-6.78s.06-6.93.25-10.4c.29-5.5,2.11-7.27,7.52-7.29q26.5-.11,53-.11c4.06,0,6,1.94,6.47,6.52.35,3.73.27,7.51.76,11.22s4.32,7.09,7.3,6.82,6.31-3.93,6.48-7.59c.16-3.47,0-6.94.17-10.41.19-5.21,1.46-6.52,6.91-6.62,5.21-.1,10.43.13,15.64.17,5.79,0,11.6.28,17.38,0,14.78-.83,25.12,13.34,24.91,26.47-.11,7.07-.17,14.15-.08,21.22.07,6.09-2.47,8.8-8.55,8.8h-186v0H36.78c-1.73,0-3.48,0-5.21,0-5.31-.23-7.21-1.86-7.26-7.05C24.21,87.68,24.68,78.13,24.41,68.61ZM412.3,360.72c-.07,9.88-2.67,19-11.68,24.13a34.1,34.1,0,0,1-16,4q-141.9.35-283.78.13c-18.39,0-36.78-.53-55.17-.45C35,388.61,24.06,377.15,24.29,367c.23-10.55-.13-21.1-.13-31.65q0-99.55,0-199.09c0-3.47.06-6.93.1-10.4.06-5.75,1.79-7.5,7.48-7.5H402.85c7.37,0,9.44,1.91,9.44,9.14q0,103.87,0,207.76C412.3,343.69,412.36,352.21,412.3,360.72Z" />
    </g>
    <g id="Capa_8" data-name="Capa 8">
      <path d="M375.06,154a13.83,13.83,0,0,1,13.71,13.56c.11,6.51-6.77,13.34-13.51,13.39s-13.68-6.71-13.73-13.22A13.91,13.91,0,0,1,375.06,154Z" />
      <path d="M361.57,287c0-6.9,6.62-13.12,13.77-13a13.82,13.82,0,0,1,13.46,13.9c-.09,6.27-7,13-13.53,13.05C368.39,301,361.52,294,361.57,287Z" />
      <path d="M131.07,347.44c-1-6.82,6.61-13.77,13.22-13.68,8.22.11,13.14,8.12,13.51,14s-7.38,13-13.39,13C137.64,360.86,131.12,354.33,131.07,347.44Z" />
      <path d="M131,287.42c-.9-6.67,6.24-13.57,13.36-13.58,8.19,0,12.77,7.76,13.41,13.51s-7.26,13.49-13.42,13.52C137.59,300.91,131.12,294.39,131,287.42Z" />
      <path d="M234.33,347.2c0,7.23-6.58,13.74-13.69,13.59-6.11-.13-13.23-7.83-13-14.1s6.76-12.46,13.09-12.86C227.48,333.4,235.23,340.17,234.33,347.2Z" />
      <path d="M221.14,274c6.39-.64,13.87,6.11,13.28,13.69-.55,7-6.57,13.19-13.71,13.2-5.9,0-13.71-8-13.06-14S213.84,273.36,221.14,274Z" />
      <path d="M67.49,274c6.36-1,13.25,6.36,12.75,13.4S74,301.2,67.1,300.84c-6.1-.32-13-5.07-12.77-13.75C54.55,279.37,59.9,273.94,67.49,274Z" />
      <path d="M298.17,274c7.6,0,12.75,5.4,12.91,13.31.18,8.63-7,13.29-13,13.57-6.55.3-12.8-6.5-12.85-13.22C285.17,279.18,290,274,298.17,274Z" />
      <path d="M234.31,167.58c-.06,7-6.6,13.54-13.35,13.39-6.25-.14-13.62-7.42-13.18-13.82.43-6.23,5.54-13.43,13.67-13.13C229.05,154.3,234.37,159.82,234.31,167.58Z" />
      <path d="M67.3,334c6.63-.9,13.41,6.17,12.88,13.74-.49,6.91-6.78,13.68-13.47,13.06-6-.54-12.34-5.16-12.32-13.12C54.42,339.31,59.49,333.88,67.3,334Z" />
      <path d="M298.33,154.06c7.13-.07,12.47,5.45,12.71,13,.29,9-6.11,13.33-13.06,13.86-6.41.48-12.73-6.55-12.73-13.24C285.26,159.41,290.32,154.14,298.33,154.06Z" />
      <path d="M311,347.22c.07,8.48-5.38,12.54-12.55,13.42-6.75.83-13.13-6-13.26-13.25-.15-7.89,5.12-13.45,12.79-13.49S310.92,339.26,311,347.22Z" />
      <path d="M80.93,167c-.05,7-6.6,13.55-13.35,13.4C61.33,180.3,54,173,54.4,166.61c.43-6.23,5.54-13.42,13.67-13.12C75.67,153.77,81,159.28,80.93,167Z" />
      <path d="M145,153.52c7.13-.06,12.47,5.45,12.71,13,.29,9-6.11,13.33-13.06,13.86-6.41.49-12.72-6.54-12.72-13.24C131.88,158.88,136.94,153.6,145,153.52Z" />
    </g>
    <g id="Capa_7" data-name="Capa 7">
      <path d="M81,226.83a13.9,13.9,0,0,1-13.18,13.53c-6.41.15-14-7.42-13.43-14.06.54-6,5.83-13.08,13.52-12.86S81,219.14,81,226.83Z" />
      <path d="M285.24,227.82c-.06-8.12,4.91-13.71,12.32-13.84,8-.13,13.2,5.14,13.48,13.29.29,8.6-6.85,13.29-12.91,13.57C291.44,241.15,285.3,234.61,285.24,227.82Z" />
      <path d="M234.35,227.36a13.92,13.92,0,0,1-13.19,13.54c-6.4.14-14-7.43-13.43-14.07.55-6,5.84-13.07,13.52-12.85S234.33,219.68,234.35,227.36Z" />
      <path d="M375.45,214a13.92,13.92,0,0,1,13.33,14c-.15,6.21-7.28,13-13.65,12.91-6.7-.06-13.69-7-13.58-13.49A13.84,13.84,0,0,1,375.45,214Z" />
    </g>
    <g id="Capa_6" data-name="Capa 6">
      <path d="M131.87,227.28c-.07-8.12,4.91-13.71,12.31-13.83,8-.14,13.21,5.13,13.48,13.28.29,8.6-6.84,13.3-12.91,13.58C138.06,240.61,131.92,234.07,131.87,227.28Z" />
    </g>
  </g>
</svg>