<svg xmlns="http://www.w3.org/2000/svg" viewBox="0 0 512 491.88"><g id="Capa_2" data-name="Capa 2"><g id="Layer_1" data-name="Layer 1"><path d="M278.93,250.94l-52.2,52.2L99,345.73l31.6-94.79H0V491.88H512V250.94ZM209,408c-8,7-19.39,6.35-27.28,5.28-5.75-.79-11.39.86-15.08,4.4-6.7,6.42-16.37,10.94-29.55,13.79a45.79,45.79,0,0,1-9.64,1c-12.93,0-29.13-5.68-44.9-26.64a132.74,132.74,0,0,1-16.25-29L94.37,366c4.06,10.5,19.46,39.65,36.3,36,10.17-2.2,13.93-5,15.07-6.09,9.76-9.37,23.76-14.06,37.82-12.76a117.29,117.29,0,0,0-9.05-19l25.78-15.57c2.59,4.3,15.55,26.61,15.55,44A20.1,20.1,0,0,1,209,408Zm242.81,23.68H286.12V401.53H451.76Zm0-60.24H331.29V341.29H451.76Z"/><path d="M243,244.29l-42.6-42.59-32.52,32.52-21.3,63.89,63.89-21.3Z"/><path d="M359.6,42.48,402.08,0l42.58,42.59L402.18,85.07Z"/><path d="M221.65,180.41,338.29,63.77l42.59,42.59L264.24,223Z"/></g></g></svg>