<svg xmlns="http://www.w3.org/2000/svg" viewBox="0 0 367.45 501.76"><g id="Capa_2" data-name="Capa 2"><g id="Capa_1-2" data-name="Capa 1"><path d="M183,501.76c-14.32-12.81-28.73-24.93-42.26-37.95C106.59,431,76.49,394.8,52,354.15S9.72,270,2.84,222.71c-6.7-46.08-2.39-90.55,22.05-131.3C55.32,40.64,99.83,9.9,158.65,1.78,255.87-11.63,344.59,52,363.88,148.29c6,30.05,3.82,60-2.08,89.82-9.94,50.11-31.46,95.24-60,137.19C270,421.91,231.74,462.54,187.93,498,186.64,499,185.3,500,183,501.76ZM181.6,38.32c-78-.57-142.63,63.13-143.31,141.2-.71,80,62.62,144.56,142.42,145.19,77.58.62,143.19-63.16,143.82-139.82C325.21,103.08,262.63,38.91,181.6,38.32Z"/><path d="M214.61,113.86c3.07,0,6.2,0,9.32,0,11.22.09,19.84,6.31,23.16,17,3.63,11.76,7,23.58,10.51,35.39.73,2.52,1.61,4.13,4.72,4.81,7.18,1.59,11.72,7.62,11.91,15.37q.34,14.73,0,29.48c-.22,9.61-6.64,16.86-16.21,17.87-37.14,3.92-74.32,6.67-111.68,3.16-12.6-1.18-25.22-2.09-37.82-3.23-11-1-17.86-8.43-18-19.51q-.12-13.25,0-26.49c.11-9.24,5.39-15.47,14.61-16.61,3.12-.39,4.18-1.61,5-4.32,3.32-11.51,6.8-23,10.27-34.43,3.71-12.26,11.84-18.49,24.58-18.45,4,0,5.51-1,5.74-5.3.54-10.23,6.64-15.69,16.78-15.77,8.17-.06,16.33,0,24.49,0C208.07,92.84,213.31,97.58,214.61,113.86Zm-86.38,56.72H239.74c-3.61-11.65-6.91-23-10.77-34.07-.6-1.75-3.75-3.7-5.73-3.72q-39.23-.36-78.45,0c-2.08,0-5.34,2.17-6,4.05C135,147.82,131.79,159,128.23,170.58Zm-6.76,43.33a13.48,13.48,0,0,0,13.68-13A13.71,13.71,0,0,0,121.63,187a13.55,13.55,0,0,0-13.35,13.43A13.26,13.26,0,0,0,121.47,213.91Zm126.2,0A13.39,13.39,0,0,0,261,200.53a13.55,13.55,0,0,0-13.79-13.48,13.4,13.4,0,0,0-13,13.71A13.19,13.19,0,0,0,247.67,213.91Z"/><path d="M232.69,244l28.71-2.73c-.2,4.66.11,9.13-.71,13.38-1.27,6.54-7.78,11.1-14.28,10.79a14.31,14.31,0,0,1-13.66-12.25C232.38,250.24,232.69,247.26,232.69,244Z"/><path d="M106.62,241.24l27.4,2.69c.7,7.43.93,14.39-6,19a12.87,12.87,0,0,1-14.6.46C104.92,258.33,106.62,249.91,106.62,241.24Z"/></g></g></svg>