<svg xmlns="http://www.w3.org/2000/svg" viewBox="0 0 228.8 293.43">
  <g id="Capa_2" data-name="Capa 2">
    <g id="Capa_3" data-name="Capa 3">
      <path d="M177.55,64.3a4.51,4.51,0,0,0-4.28-2.69c-3.43,0-6.87,0-10.3,0a1.41,1.41,0,0,1-1.38-.76c-2.5-4.08-5.1-8.11-7.56-12.21A18.81,18.81,0,0,0,137.54,39a1.39,1.39,0,0,1-1.31-1c-1.13-2.38-2.34-4.72-3.37-7.15a5.17,5.17,0,0,0-5.38-3.41c-6.86.07-13.73,0-20.59,0H99.82A4.36,4.36,0,0,0,95.65,30q-1.92,3.93-3.75,7.9A1.55,1.55,0,0,1,90.28,39a15.91,15.91,0,0,0-5.59.95,18.28,18.28,0,0,0-9.82,7.47q-4.23,6.74-8.39,13.5a1.4,1.4,0,0,1-1.38.75q-5.05,0-10.13,0a5.45,5.45,0,0,0-1.75.25,5,5,0,0,0-3.33,4.62c-.21,2.46.44,3.6,2.75,4.44,1.7.62,3.43,1.13,5.16,1.64,1,.3,1.2.57.68,1.47a44.15,44.15,0,0,0-2.59,4.38,61.85,61.85,0,0,0-2.25,6.38A39.13,39.13,0,0,0,52,96.38c-.08,11.48-.08,23-.09,34.46a3,3,0,0,0,3.21,3.21c4.51,0,9,0,13.53,0a3.06,3.06,0,0,0,3.21-3.3c0-2.05,0-4.09,0-6.13,0-1.56,0-1.56,1.6-1.56h69.2c4.18,0,8.35,0,12.52,0,.81,0,1.09.27,1.08,1.08-.05,2.24,0,4.48,0,6.73A3,3,0,0,0,159.3,134c4.63,0,9.25.05,13.88,0a3,3,0,0,0,3-3.14c0-11.57,0-23.15-.12-34.72A95.4,95.4,0,0,0,175,86a16,16,0,0,0-.6-1.94,13.59,13.59,0,0,0-.61-2.59c-1-2.16-2.19-4.25-3.31-6.36-.32-.59-.7-1.15-1.15-1.9,1.63-.52,3.09-1,4.54-1.44s2.78-.69,3.62-2A5.16,5.16,0,0,0,177.55,64.3ZM124.31,31.48c0-.8.58-.76,1.13-.77s1.13-.05,1.13.76,0,1.87,0,2.8,0,1.82,0,2.72-.5.82-1.08.79-1.19.11-1.19-.78Zm-6.33,2c-.47-.64-.88-1.32-1.31-2-.31-.49-.15-.72.4-.78,1-.09,1.82,0,2.2,1.1a6.24,6.24,0,0,0,.55.89c.3-.47.56-.84.8-1.22a1.93,1.93,0,0,1,2.28-.68.7.7,0,0,1,.08.67c-.4.71-.84,1.4-1.31,2.07a.93.93,0,0,0,0,1.22c.63.89,1.2,1.82,1.8,2.74l-.12.3a5.48,5.48,0,0,1-2.14-.21c-.57-.33-.88-1.13-1.4-1.87-.47.67-.76,1.48-1.34,1.82a5.53,5.53,0,0,1-2.16.29l-.14-.32c.59-.92,1.16-1.86,1.79-2.75A.94.94,0,0,0,118,33.46Zm-7.9-2.17c.22-.59.7-.61,1.18-.58s1.28-.25,1.57.49c.83,2.1,1.61,4.21,2.43,6.36-1.41.45-1.94.29-2.56-.63a2.34,2.34,0,0,0-2.47,0c-.67,1-1.28,1.12-2.48.59.41-1.12.81-2.26,1.23-3.39C109.34,33.18,109.73,32.24,110.08,31.29Zm-7.59-.58c.8,0,1.59,0,2.38,0h0c.82,0,1.64,0,2.46,0,.66,0,.81.35.8.92s-.11.91-.78.94c-1.41.06-1.41.09-1.41,1.52,0,1,0,1.92,0,2.89,0,.74-.41.84-1,.8s-1.27.21-1.25-.78,0-2.26,0-3.39c0-.84-.28-1.13-1.08-1.06-.52.05-1,.06-1.13-.68S101.63,30.72,102.49,30.71ZM83.3,95.09a5.09,5.09,0,0,1-4.86,4.41c-2,0-4.09,0-6.13,0h0c-1.87,0-3.74,0-5.61,0a6.81,6.81,0,0,1-6.2-3.65,7,7,0,0,1,.23-7.26,6,6,0,0,1,5.14-3.33,10.77,10.77,0,0,1,3.63.7c1.7.52,3.35,1.2,5,1.8l5.39,1.9A5.17,5.17,0,0,1,83.3,95.09Zm48.24,18.25a2.11,2.11,0,0,1-2.12,2.19c-.45,0-.91,0-1.36,0H99.3c-2,0-2.76-.72-2.77-2.75V110.5c0-2,.66-2.67,2.64-2.68h29.69c2,0,2.69.67,2.69,2.72C131.55,111.47,131.56,112.41,131.54,113.34Zm4.07-40.11H118v0c-13.25,0-26.5-.08-39.75.08-2.52,0-5.07.26-7.61.27a2.74,2.74,0,0,1-2.77-3.69,6.9,6.9,0,0,1,.81-1.26c3.48-5.61,7-11.18,10.42-16.84a13.29,13.29,0,0,1,12.21-6.91h45.45a13.25,13.25,0,0,1,12.14,6.76c3.59,5.91,7.27,11.76,10.91,17.63.94,1.53.79,2.91-.52,3.61a4.12,4.12,0,0,1-1.89.36Q146.51,73.24,135.61,73.23Zm32.49,21.5a7,7,0,0,1-6.31,4.77c-2,0-4.08,0-6.12,0h0c-1.9,0-3.8,0-5.7,0a5.13,5.13,0,0,1-5.19-4.44,5.19,5.19,0,0,1,3.64-5.48c1.87-.65,3.72-1.35,5.59-2a56.34,56.34,0,0,1,6.22-2.13,5.47,5.47,0,0,1,4.33.61c.4.27.8.53,1.19.82A7,7,0,0,1,168.1,94.73Z" />
      <path d="M111.28,33.26a9.64,9.64,0,0,0-.34,1.33c0,.14.24.42.38.43s.6-.17.6-.27C111.92,34.23,112,33.63,111.28,33.26Z" />
    </g>
    <g id="Capa_5" data-name="Capa 5">
      <path d="M228.78,18.46c0-14-4.44-18.44-18.38-18.45Q113.85,0,17.29,0C4.48,0,.06,4.51.05,17.52q0,56.06,0,112.1H0Q0,186.32,0,243c0,12,4.77,16.85,16.66,16.85q97.51,0,195,0c12.13,0,17.08-5,17.08-17.2Q228.81,130.57,228.78,18.46Zm-202,.15q87.5,0,175,0c8.49,0,8.53,0,8.53,8.64,0,35.41-.14,70.83.13,106.24,0,6.45-1.77,8.54-8.35,8.47-29.16-.32-58.33-.14-87.49-.14q-44.09,0-88.15,0c-8,0-8.37-.39-8.38-8.34q0-53.11,0-106.25C18,18.87,18.28,18.61,26.74,18.61ZM52.5,223.32H35.41V181.67H18V168H69.93v13.65H52.5Zm115.43,0L157,205.55l-10.92,17.77H109.18l-2.77-9.13H87l-2.7,9.13H66.87L87.66,168H106.3l20.75,55.23,0,.07,19.08-28.82L128.74,168h18.82l9.79,17,9.52-17h18.64L168.29,194.8l18.84,28.52Zm42.47,0H193.28V168H210.4Z" />
      <path d="M128.84,278.62c0,14.33,0,14.36-14,14.67-18.1.39-14.85,1-14.86-14.33,0-17.28-3-15.36,15.18-15.25C128.85,263.8,128.85,263.89,128.84,278.62Zm-6.52,0c0-2.56.49-5.26-.17-7.64-.44-1.57-2.71-3.87-3.86-3.7-1.71.25-4.34,2.24-4.5,3.72a74.9,74.9,0,0,0,0,15.34c.13,1.34,2.72,3.36,4.18,3.36s3.7-1.93,4.15-3.44C122.83,283.87,122.32,281.15,122.32,278.58Z" />
      <polygon points="90.73 202.23 102.87 202.23 96.77 182.35 90.73 202.23" />
    </g>
  </g>
</svg>