<svg height='300px' width='300px' xmlns="http://www.w3.org/2000/svg" xmlns:xlink="http://www.w3.org/1999/xlink" version="1.1" x="0px" y="0px" viewBox="0 0 100 100" style="enable-background:new 0 0 100 100;" xml:space="preserve"><g><path d="M43.78564,40.92979c1.66337-0.33008,3.37329-0.70503,5.11152-1.08596c7.08924-1.42632,6.93141-1.4854,7.59686-2.01654   L40.03748,13.83573c-1.85903,0.75479-4.00836,0.35482-5.47064-1.01607L24.24274,19.8988   c0.36987,0.90532,0.47416,1.89774,0.29138,2.88155c-0.18279,0.98381-0.63652,1.873-1.30852,2.58372l22.88894,33.36787   c0.90962-0.37094,1.90419-0.47309,2.88907-0.28923c0.98381,0.18494,1.87408,0.64082,2.58587,1.3139l8.1028-5.55854   c-2.35645-0.62458-3.6866-1.52012-5.01266-2.63452c-3.92794-3.29081-7.525-1.24519-10.00477-1.98912   c-3.05329-0.58656-4.32877-2.43773-4.32877-4.43844C40.34607,43.06406,41.76103,41.33406,43.78564,40.92979z"></path><path d="M46.84675,67.98729c0.10537,0.15268,0.25482,0.20106,0.33439,0.21503c0.08064,0.0172,0.23654,0.02581,0.39137-0.08171   l19.95834-13.68734c-1.10014,0.17687-2.31028,0.29783-3.57116,0.29783c-0.36375,0-0.73221-0.01344-1.10262-0.03494   l-10.83429,7.43342c-0.18386,0.12687-0.40213,0.19353-0.62254,0.19353c-0.06774,0-0.1344-0.00645-0.20214-0.01828   c-0.28708-0.05376-0.54083-0.21934-0.70641-0.46019c-0.44621-0.65265-1.11929-1.09241-1.89451-1.23756   c-0.77845-0.14515-1.56012,0.01935-2.21169,0.46664c-0.50105,0.34299-1.18703,0.21612-1.53002-0.286L20.8537,25.79737   c-0.16558-0.24084-0.22794-0.5376-0.17526-0.82468c0.05376-0.28708,0.21934-0.54083,0.46019-0.70641   c0.6505-0.44513,1.08703-1.11499,1.23111-1.88806c0.143-0.77415-0.02365-1.55689-0.46986-2.20632   c-0.16558-0.24084-0.22794-0.5376-0.17526-0.82468c0.05376-0.28708,0.21934-0.5419,0.46019-0.70749l11.94551-8.1909   c0.50212-0.34299,1.18595-0.21504,1.52894,0.28385c0.9236,1.3397,2.7665,1.67947,4.10943,0.76232   c0.50212-0.34299,1.18595-0.21612,1.52894,0.286l16.61082,24.21735c0.49547-0.90532,0.88281-1.96332,0.61824-3.17992   c-0.36223-1.00588-9.1361-13.35078-9.92527-14.68137L39.30527,4.58145c-0.10537-0.15375-0.25482-0.20106-0.33439-0.21612   c-0.08279-0.0172-0.23869-0.02365-0.3903,0.08172L14.99599,20.63209c-0.11827,0.08171-0.19676,0.20214-0.22149,0.33869   c-0.0172,0.09139-0.01613,0.22794,0.08172,0.36665L46.84675,67.98729z"></path><path d="M65.96387,24.28241c-4.57817-5.25566-5.42538-8.06601-14.21741-6.50176c-0.20254,0.03683-0.41611,0.0793-0.63457,0.12365   c1.97219,2.86446,9.27876,13.11192,9.56737,14.44859c0.47094,2.16653-0.34729,3.90729-1.11284,5.18033   c-1.86066,3.15337-2.99724,3.10722-15.35068,5.55558c-2.34087,0.46992-3.13265,4.91394,3.34066,4.39221   c6.31798-0.49785,8.10978,2.32504,9.88005,3.41055c5.61134,3.42184,13.47235,0.72783,21.5284-1.43567l0.90916-18.93085   l-0.65501-0.1559C74.99451,29.36274,69.20776,27.98433,65.96387,24.28241z M76.43528,33.91408   c-0.13763,0.48384-0.57954,0.79887-1.058,0.79887c-0.1,0-0.20214-0.0129-0.30321-0.04193   c-5.03625-1.4354-9.3317-3.90299-12.41968-7.13613c-0.4204-0.43976-0.40428-1.13649,0.03548-1.55582   c0.43869-0.42148,1.13649-0.40535,1.55582,0.03548c2.81811,2.94928,6.77163,5.21044,11.43264,6.53831   C76.26217,32.71953,76.60194,33.32917,76.43528,33.91408z"></path><path d="M96.83727,28.61763L83.4241,27.97358c-0.71836-0.02141-1.2488,0.52032-1.27842,1.16122L81.0135,52.70972   c-0.01613,0.32579,0.09677,0.6376,0.31611,0.87952c0.21935,0.24192,0.5204,0.38385,0.84618,0.3989l13.41209,0.64405   c0.64942,0.01398,1.24616-0.48922,1.27842-1.16122l1.13219-23.57492C98.0318,29.22326,97.51017,28.64872,96.83727,28.61763z    M85.42613,31.19274c0.03011-0.60749,0.55266-1.05692,1.15262-1.04725l1.92246,0.09247   c0.60749,0.02903,1.07628,0.54513,1.04725,1.15262c-0.02903,0.58921-0.51502,1.04832-1.09885,1.04832   c-0.01828,0-0.03548,0-0.05376-0.00108l-1.92246-0.09246C85.86589,32.31633,85.3971,31.80023,85.42613,31.19274z    M91.22961,50.13622c-1.17453,1.17439-3.06702,1.15262-4.2197,0c-1.17453-1.17439-1.17453-3.04524,0-4.21991   c1.15268-1.15262,3.04517-1.17439,4.2197,0.00027C92.38236,47.0692,92.38236,48.98333,91.22961,50.13622z M96.18355,36.19244   c-0.02903,0.58921-0.51502,1.04832-1.09886,1.04832c-0.01828,0-0.03548,0-0.05376-0.00108   c-0.60749-0.02903-1.07628-0.54513-1.04725-1.15262l0.16235-3.37399l-1.86871-0.08924   c-0.60749-0.02903-1.07628-0.54513-1.04725-1.15262s0.55696-1.08703,1.15262-1.04725l2.96864,0.14193   c0.29137,0.01398,0.56555,0.143,0.76231,0.35912s0.29891,0.50212,0.28493,0.7935L96.18355,36.19244z"></path><path d="M16.25613,67.79482H2.61502C2.27633,67.79482,2,68.07115,2,68.41092v24.37701c0,0.33869,0.27633,0.61502,0.61502,0.61502   h13.64111c0.33869,0,0.61502-0.27633,0.61502-0.61502V68.41092C16.87114,68.07115,16.59482,67.79482,16.25613,67.79482z    M9.81458,91.07084H5.43205c-0.60857,0-1.10101-0.49245-1.10101-1.10101v-2.5063c0-0.60856,0.49244-1.10101,1.10101-1.10101   s1.10101,0.49245,1.10101,1.10101v1.4053h3.28152c0.60857,0,1.10101,0.49244,1.10101,1.10101S10.42315,91.07084,9.81458,91.07084z    M9.0487,75.693c-1.60864,0-2.91662-1.30207-2.91662-2.92213s1.30799-2.93745,2.91662-2.93745   c1.59365,0,2.90157,1.31739,2.90157,2.93745S10.64235,75.693,9.0487,75.693z"></path><path d="M71.30656,76.46635l-20.29985,9.03924c-0.85801,0.57523-1.88698,0.91069-2.99337,0.91069H33.21746   c-0.60857,0-1.10101-0.49244-1.10101-1.10101s0.49244-1.10101,1.10101-1.10101h14.79588c0.6548,0,1.26551-0.19999,1.77301-0.54191   c0.02903-0.0215,0.05914-0.04301,0.09139-0.06343c0.8107-0.58707,1.34078-1.54722,1.34078-2.62995   c0-1.78484-1.43755-3.23637-3.20518-3.23637H38.0161c-3.47613,0-6.90926-0.91607-9.9295-2.64822   c-2.68694-1.54076-5.74159-2.35577-8.8328-2.35577h-0.17418v16.43127l12.78847,4.82874   c6.70497,2.53532,14.4045,2.12352,20.81165-1.10961l21.27935-10.74129c1.50314-0.75909,2.13643-2.56329,1.44185-4.10835   C74.69668,76.47495,72.85808,75.77176,71.30656,76.46635z"></path></g></svg>