<?xml version="1.0" encoding="utf-8"?>
<!-- Svg Vector Icons : http://www.onlinewebfonts.com/icon -->
<!DOCTYPE svg PUBLIC "-//W3C//DTD SVG 1.1//EN" "http://www.w3.org/Graphics/SVG/1.1/DTD/svg11.dtd">
<svg version="1.1" xmlns="http://www.w3.org/2000/svg" xmlns:xlink="http://www.w3.org/1999/xlink" x="0px" y="0px" viewBox="0 0 1000 1000" enable-background="new 0 0 1000 1000" xml:space="preserve">
<metadata> Svg Vector Icons : http://www.onlinewebfonts.com/icon </metadata>
<g><path d="M821.8,515.2c-3,14.4-14.4,20.6-28.3,21.3c-12,0.6-22.9-10-15.1-22.5c6-10.6,22.9-13.1,33.1-13.1c4.2,0,9,0,13.2,0C823.6,505.8,823,510.2,821.8,515.2L821.8,515.2z M818.2,405.3c-25.9,0-46.4,6.9-62,10l-4.8,39.4c7.8-3.8,32.5-10.6,53-11.2c20.5-0.6,32.5,3.7,28.3,21.2c-60.8,0-101.8,12.5-110.2,51.8c-12.1,67.5,62,65.6,91.5,36.2l-3.6,16.2h54.2L888,461.5C897.7,415.9,856.1,404.6,818.2,405.3L818.2,405.3z"/><path d="M934.4,362.8l-44.8,206.1h55.1L990,362.8H934.4z"/><path d="M679.7,433.4c-3.6,15.6-19.3,28.1-34.4,28.1h-27.2l12.1-56.2h29C674.3,405.3,683.3,417.7,679.7,433.4L679.7,433.4z M681.5,363.4H580.7l-44.7,205.5h58.5l15.1-68.1h41.6c41,0,74.8-25,83.9-67.5C745.5,385.3,710.5,363.4,681.5,363.4L681.5,363.4z"/><path d="M294.6,515.2c-3,14.4-14.9,20.6-28.5,21.3c-11.9,0.6-22-10-14.3-22.5c5.9-10.6,22.6-13.1,32.1-13.1c4.8,0,8.9,0,13.7,0C296.4,505.8,295.2,510.2,294.6,515.2L294.6,515.2z M290.4,405.3c-25.6,0-45.8,6.9-60.7,10l-4.8,39.4c7.1-3.8,31.5-10.6,51.7-11.2c20.2-0.6,32.1,3.7,28.6,21.2c-60.1,0-100.5,12.5-108.8,51.8c-11.9,67.5,61.3,65.6,89.8,36.2l-3.6,16.2h54.1L360,461.5C369.5,415.9,327.9,404.6,290.4,405.3L290.4,405.3z"/><path d="M383.6,408.2h54.1l8.7,95.7l53-95.7h55.9l-128.6,229h-60.5l39.6-67.3L383.6,408.2z"/><path d="M154,433.4c-3.6,15.6-18.8,28.1-33.9,28.1H92.3l12.7-56.2h29C148.5,405.3,158.2,417.7,154,433.4L154,433.4z M155.8,363.4h-101L10,568.9h59.3l14.5-68.1h42.4c40.5,0,74.4-25,83.5-67.5C219.9,385.3,185.5,363.4,155.8,363.4L155.8,363.4z"/></g>
</svg>