<?xml version="1.0" encoding="utf-8"?>
<!-- Svg Vector Icons : http://www.onlinewebfonts.com/icon -->
<!DOCTYPE svg PUBLIC "-//W3C//DTD SVG 1.1//EN" "http://www.w3.org/Graphics/SVG/1.1/DTD/svg11.dtd">
<svg version="1.1" xmlns="http://www.w3.org/2000/svg" xmlns:xlink="http://www.w3.org/1999/xlink" x="0px" y="0px" viewBox="0 0 1000 1000" enable-background="new 0 0 1000 1000" xml:space="preserve">
<metadata> Svg Vector Icons : http://www.onlinewebfonts.com/icon </metadata>
<g><path d="M326.9,504.2c0,10.5-3.6,19.2-10.8,26.1c-7.2,6.9-16.1,10.4-26.6,10.4c-8.2,0-14.8-2.3-19.8-6.8c-4.9-4.5-7.4-10.8-7.5-18.7c0-10.5,3.5-19.3,10.6-26.6c7.1-7.2,15.9-10.8,26.4-10.8c7.9,0,14.5,2.3,19.8,7C324.2,489.5,326.8,496,326.9,504.2L326.9,504.2z M660.8,440.9c0,11.9-3.1,20-9.4,24.2c-6.2,4.2-15.6,6.4-28.1,6.4l-13.6,0.4l7.2-45.5c0.6-3.1,2.4-4.7,5.6-4.7h7.7c6.2,0,11.2,0.3,14.9,0.9c3.7,0.6,7.2,2.4,10.6,5.3C659.1,430.9,660.8,435.2,660.8,440.9z M810.1,504.2c0,10.2-3.6,18.9-10.8,26c-7.2,7.1-15.9,10.7-26.1,10.6c-8.2,0-14.9-2.3-20-6.8c-5.1-4.5-7.6-10.8-7.7-18.7c0-10.5,3.5-19.3,10.6-26.6c7.1-7.2,15.9-10.8,26.4-10.8c7.9,0,14.5,2.3,19.8,7C807.4,489.6,810,496,810.1,504.2L810.1,504.2z M228.2,431.5c0-16.7-5.5-28.9-16.4-36.4c-10.9-7.5-25.2-11.3-42.7-11.3H101c-5.4,0-8.3,2.7-8.9,8.1L64.4,565.5c-0.3,1.7,0.1,3.3,1.3,4.7c1.1,1.4,2.5,2.1,4.2,2.1h32.3c5.7,0,8.8-2.7,9.4-8.1l7.7-46.8c0.3-2.3,1.3-4.1,3-5.6c1.7-1.5,3.8-2.4,6.4-2.8c2.5-0.4,5-0.6,7.2-0.7s5,0.1,8.1,0.4c3.1,0.3,5.1,0.5,5.9,0.4c24.4,0,43.5-6.9,57.4-20.6C221.3,475,228.2,455.9,228.2,431.5L228.2,431.5z M359.6,564.2l17.4-111c0.3-1.7-0.1-3.3-1.3-4.7c-1.1-1.4-2.5-2.1-4.2-2.1h-32.3c-4,0-6.4,4.7-7.2,14c-7.7-11.3-21.1-17-40.4-17c-20.4,0-37.8,7.7-52.1,23c-14.3,15.3-21.5,33.3-21.5,54c0,16.7,4.9,30.1,14.7,40c9.8,9.9,22.9,14.9,39.4,14.9c7.9,0,16.2-1.7,24.7-5.1s15.3-7.9,20.4-13.6c-1.1,3.4-1.7,6.4-1.7,8.9c0,4.5,1.9,6.8,5.6,6.8h29.3C355.7,572.3,358.8,569.6,359.6,564.2L359.6,564.2z M549.8,452.4c0-1.4-0.6-2.8-1.7-4c-1.1-1.3-2.4-1.9-3.8-1.9h-32.8c-3.1,0-5.7,1.4-7.7,4.2L458.7,517L440,453.2c-1.4-4.5-4.5-6.8-9.4-6.8h-31.9c-1.4,0-2.7,0.6-3.8,1.9c-1.1,1.3-1.7,2.6-1.7,4c0,0.6,2.8,8.9,8.3,25.1c5.5,16.2,11.5,33.6,17.9,52.3c6.4,18.7,9.7,28.7,10,29.8c-23.3,31.8-34.9,48.8-34.9,51c0,3.7,1.9,5.6,5.6,5.6h32.8c3.1,0,5.7-1.4,7.7-4.2l108.5-156.5C549.5,454.8,549.8,453.8,549.8,452.4L549.8,452.4z M711.4,431.5c0-16.7-5.5-28.9-16.4-36.4c-10.9-7.5-25.2-11.3-42.7-11.3h-67.6c-5.7,0-8.8,2.7-9.4,8.1l-27.7,173.6c-0.3,1.7,0.1,3.3,1.3,4.7c1.1,1.4,2.5,2.1,4.2,2.1H588c3.4,0,5.7-1.9,6.8-5.6l7.7-49.3c0.3-2.3,1.3-4.1,3-5.6s3.8-2.4,6.4-2.8c2.5-0.4,5-0.6,7.2-0.7s5,0.1,8.1,0.4c3.1,0.3,5.1,0.5,5.9,0.4c24.4,0,43.5-6.9,57.4-20.6C704.5,474.9,711.4,455.8,711.4,431.5L711.4,431.5z M842.8,564.2l17.4-111c0.3-1.7-0.1-3.3-1.3-4.7c-1.1-1.4-2.5-2.1-4.2-2.1h-32.3c-4,0-6.4,4.7-7.2,14c-7.4-11.3-20.8-17-40.4-17c-20.4,0-37.8,7.7-52.1,23c-14.3,15.3-21.5,33.3-21.5,54c0,16.7,4.9,30.1,14.7,40c9.8,9.9,22.9,14.9,39.4,14.9c8.2,0,16.6-1.7,25.1-5.1c8.5-3.4,15.2-7.9,20-13.6c0,0.3-0.3,1.6-0.9,3.8c-0.6,2.3-0.9,4-0.9,5.1c0,4.5,1.8,6.8,5.6,6.8h29.3C838.8,572.3,842,569.6,842.8,564.2L842.8,564.2z M935.6,390.2v-0.4c0-4-1.9-5.9-5.6-5.9h-31.5c-3.1,0-5,1.6-5.6,4.7l-27.7,176.9l-0.4,0.9c0,1.4,0.6,2.8,1.7,4c1.1,1.3,2.5,1.9,4.2,1.9h28.1c5.4,0,8.3-2.7,8.9-8.1L935.6,390.2z M176.8,447.2c-1.4,9.9-5.1,16.4-11.1,19.5c-6,3.1-14.5,4.7-25.5,4.7l-14,0.4l7.2-45.5c0.6-3.1,2.4-4.7,5.6-4.7h8.1c11.3,0,19.5,1.6,24.7,4.9C176.8,429.9,178.5,436.8,176.8,447.2z M990,227.8v544.4c0,14.7-5.4,27.5-16.2,38.3s-23.5,16.2-38.3,16.2H64.4c-14.7,0-27.5-5.4-38.3-16.2S10,787,10,772.2V227.8c0-14.7,5.4-27.5,16.2-38.3c10.8-10.8,23.5-16.2,38.3-16.2h871.1c14.7,0,27.5,5.4,38.3,16.2C984.6,200.3,990,213,990,227.8z"/></g>
</svg>