<svg xmlns="http://www.w3.org/2000/svg" viewBox="0 0 416.84 394.79"><g id="Capa_2" data-name="Capa 2"><g id="Capa_2-2" data-name="Capa 2"><path d="M416.74,72.9c0-6.35.44-12.8-.49-19-2.46-16.57-17.73-29-35.88-30.12-11.26-.69-22.6-.08-33.9-.12-6.68,0-8.16-1.6-8.24-8.14,0-3.6-.23-7.21-.51-10.8S334.67.35,331.85.1s-5.94,0-6.57,3.47a112.76,112.76,0,0,0-1.49,13.62c-.24,4-2.12,6.32-6.13,6.34q-27.15.11-54.32,0c-4.89,0-6.57-2-6.7-7.09-.09-3.18.14-6.38-.17-9.53-.53-5.25-2.57-7.08-7-6.86s-6.49,2.26-6.76,7.28c-.16,2.88,0,5.78,0,8.67-.08,5.66-1.59,7.48-7.09,7.52-18,.13-35.93.08-53.89.09-4,0-5.83-2.07-5.85-5.94,0-3.18.08-6.36,0-9.54-.18-4.43-3.54-8-7.49-8.08-4.69-.13-7.11,2.16-7.5,7.53-.23,3.3,0,6.64-.05,10,0,3.85-1.84,5.95-5.81,6q-27.6,0-55.2,0c-4,0-5.72-2.21-5.69-6.06,0-3.33.14-6.66-.08-10C93.59,2.63,90.61-.06,86.05,0,82,.12,79,3.22,78.72,7.66c-.11,1.72.13,3.47.15,5.2C79,23,78.36,23.27,68.2,23.62c-14.38.51-29-2.14-43.09,2.87A35.91,35.91,0,0,0,8.5,38.24C2.12,46.29,0,55.46,0,65.69Q.22,210.35,0,355a39.28,39.28,0,0,0,7.69,24.2c6.32,8.6,14.5,13.9,25.16,15a117.46,117.46,0,0,0,12.59.5q81.71,0,163.41,0v0h168.2c6.7,0,13.14-.68,19.29-4,12.33-6.71,20-16.32,20.36-30.69.27-10.25.08-20.52.08-30.78Q416.77,201.09,416.74,72.9ZM15.41,59.61c-.28-9.72,13-21.39,22.39-20.9,11.41.59,22.88.11,34.33.14,5.24,0,6.23,1,6.45,6.42.12,3,.28,6.08.1,9.1-.23,3.91,2.15,6.18,4.87,8.11,3.51,2.49,9.82-1.14,10.22-5.95.34-4,.26-8.09.29-12.14,0-3.75,1.76-5.52,5.59-5.51q27.38.06,54.76,0c3.91,0,5.94,1.74,6,5.68.09,3.32.18,6.65.31,10,.17,4.72,3.46,8.76,7.13,8.78s7.67-4.34,7.84-8.83c.13-3.46.07-6.94.23-10.4s1.91-5.23,5.53-5.24c18.11,0,36.21-.18,54.32-.15,4.71,0,6.52,1.93,6.78,6.66.2,3.61,0,7.23.15,10.84s3.6,7.07,6.85,7.13c3,.06,6.52-3.23,6.79-6.78s.06-6.93.25-10.4c.29-5.5,2.11-7.27,7.52-7.29q26.5-.11,53-.11c4.06,0,6,1.94,6.47,6.52.35,3.73.27,7.51.76,11.22s4.32,7.09,7.3,6.82,6.31-3.93,6.48-7.59c.16-3.47,0-6.94.17-10.41.19-5.21,1.46-6.52,6.91-6.62,5.21-.1,10.43.13,15.64.17,5.79,0,11.6.28,17.38,0,14.78-.83,25.12,13.34,24.91,26.47-.11,7.07-.17,14.15-.08,21.22.07,6.09-2.47,8.8-8.55,8.8h-186v0H27.78c-1.73,0-3.48,0-5.21,0-5.31-.23-7.21-1.86-7.26-7.05C15.21,78.68,15.68,69.13,15.41,59.61ZM403.3,351.72c-.07,9.88-2.67,19-11.68,24.13a34.1,34.1,0,0,1-16,4q-141.9.35-283.78.13c-18.39,0-36.78-.53-55.17-.45C26,379.61,15.06,368.15,15.29,358c.23-10.55-.13-21.1-.13-31.65q0-99.55,0-199.09c0-3.47.06-6.93.1-10.4.06-5.75,1.79-7.5,7.48-7.5H393.85c7.37,0,9.44,1.91,9.44,9.14q0,103.87,0,207.76C403.3,334.69,403.36,343.21,403.3,351.72Z"/></g><g id="Capa_3" data-name="Capa 3"><path d="M348.07,210.34a9.66,9.66,0,0,0-9.17-5.76c-7.35,0-14.7,0-22,0a3,3,0,0,1-3-1.63c-5.37-8.73-10.91-17.36-16.18-26.15-8-13.39-19.8-20.24-35.32-20.76-1.61-.06-2.23-.93-2.8-2.12-2.42-5.1-5-10.11-7.22-15.3s-5.9-7.38-11.5-7.32c-14.7.16-29.4.06-44.1.06-5.05,0-10.09,0-15.13,0a9.33,9.33,0,0,0-8.92,5.51q-4.12,8.4-8,16.91a3.3,3.3,0,0,1-3.47,2.25,33.7,33.7,0,0,0-12,2c-8.73,3.08-16,8.05-21,16q-9.06,14.4-18,28.89a3,3,0,0,1-3,1.62q-10.84-.07-21.68,0a11.46,11.46,0,0,0-3.75.53c-4.55,1.68-6.77,5.33-7.15,9.9-.43,5.26,1,7.69,5.91,9.49,3.62,1.32,7.34,2.42,11,3.51,2.2.65,2.58,1.23,1.45,3.15-1.84,3.14-4.09,6.09-5.54,9.39a135.32,135.32,0,0,0-4.82,13.64A84.7,84.7,0,0,0,79.22,279c-.17,24.6-.16,49.2-.18,73.79,0,4.14,2.68,6.85,6.86,6.88q14.49.09,29,0c4.21,0,6.84-2.83,6.87-7.08s0-8.74,0-13.12c0-3.33,0-3.34,3.43-3.34H273.36c8.93,0,17.86,0,26.78,0,1.75,0,2.35.58,2.31,2.33-.08,4.8-.06,9.6,0,14.39,0,3.93,2.66,6.78,6.56,6.82q14.85.15,29.71,0a6.34,6.34,0,0,0,6.43-6.7c0-24.78.09-49.57-.25-74.34-.1-7.3-1.49-14.59-2.39-21.87a35.81,35.81,0,0,0-1.28-4.14c-.48-1.84-.51-3.88-1.31-5.55-2.2-4.62-4.68-9.11-7.1-13.62-.67-1.27-1.49-2.47-2.46-4.06,3.51-1.11,6.62-2.08,9.73-3.09,2.86-.93,6-1.48,7.76-4.32C350.25,218.13,350,214.22,348.07,210.34Zm-114-70.26c0-1.73,1.25-1.65,2.43-1.66s2.42-.1,2.42,1.63v6c0,1.94,0,3.88,0,5.81,0,1.73-1.06,1.75-2.31,1.7s-2.56.22-2.55-1.67C234.09,148,234.08,144,234.08,140.08Zm-13.54,4.22c-1-1.36-1.89-2.81-2.81-4.23-.67-1-.33-1.55.86-1.66,2.07-.2,3.89,0,4.71,2.35a12.47,12.47,0,0,0,1.17,1.89c.65-1,1.19-1.8,1.7-2.61.91-1.45,3.49-2.29,4.89-1.45a1.52,1.52,0,0,1,.18,1.43,48.81,48.81,0,0,1-2.81,4.44,2,2,0,0,0,0,2.61c1.34,1.91,2.56,3.9,3.83,5.86l-.24.65c-1.55-.11-3.36.23-4.58-.46s-1.89-2.42-3-4c-1,1.44-1.63,3.17-2.85,3.89s-3.07.46-4.63.63l-.31-.7c1.27-2,2.48-4,3.83-5.88A2,2,0,0,0,220.54,144.3Zm-16.92-4.64c.47-1.27,1.49-1.31,2.53-1.24,1.2.09,2.74-.54,3.36,1.05,1.77,4.48,3.44,9,5.2,13.62-3,.95-4.16.62-5.49-1.36-.68-1-4.59-1-5.29,0-1.43,2-2.74,2.39-5.3,1.26.87-2.41,1.73-4.84,2.63-7.26C202,143.71,202.87,141.7,203.62,139.66Zm-16.25-1.24c1.7,0,3.4,0,5.1,0h0c1.75,0,3.51,0,5.27,0,1.41,0,1.73.75,1.71,2s-.25,2-1.69,2c-3,.13-3,.19-3,3.25,0,2.06-.05,4.13,0,6.18.06,1.59-.87,1.8-2.1,1.72s-2.72.46-2.69-1.66c0-2.42-.09-4.85,0-7.27.1-1.79-.61-2.41-2.32-2.25-1.11.1-2.22.11-2.42-1.46C185,139.1,185.53,138.45,187.37,138.42ZM146.28,276.26a10.9,10.9,0,0,1-10.41,9.44c-4.37.08-8.74,0-13.11,0h0c-4,0-8,0-12,0a14.51,14.51,0,0,1-13.27-7.81c-2.91-5.18-2.44-10.33.48-15.55,2.5-4.46,6.18-6.87,11-7.13,2.55-.14,5.24.74,7.76,1.51,3.65,1.11,7.19,2.56,10.78,3.85q5.76,2.06,11.54,4.07A11.1,11.1,0,0,1,146.28,276.26Zm103.29,39.07A4.51,4.51,0,0,1,245,320c-1,.06-1.94,0-2.91,0H180.54c-4.37,0-5.92-1.55-5.93-5.89v-4.91c0-4.29,1.42-5.72,5.65-5.73h63.57c4.34,0,5.76,1.43,5.75,5.81C249.58,311.32,249.61,313.33,249.57,315.33Zm8.71-85.89H220.56v0c-28.36,0-56.73-.19-85.09.16-5.4.06-10.86.56-16.3.58-4.48,0-7.31-3.79-5.93-7.9a14.91,14.91,0,0,1,1.74-2.7c7.45-12,15-23.93,22.3-36,6-10,14.6-14.82,26.16-14.81q48.65,0,97.3,0c11.4,0,20,4.69,26,14.49,7.69,12.64,15.56,25.17,23.36,37.75,2,3.26,1.7,6.22-1.12,7.72a8.9,8.9,0,0,1-4,.77C289.38,229.46,273.83,229.44,258.28,229.44Zm69.56,46.05a15.1,15.1,0,0,1-13.52,10.21c-4.36.11-8.74,0-13.1,0v0c-4.07,0-8.14,0-12.2,0a11,11,0,0,1-11.11-9.51c-.74-5,2.58-9.92,7.79-11.73,4-1.38,8-2.88,12-4.3,4.43-1.58,8.77-3.51,13.32-4.56a11.75,11.75,0,0,1,9.27,1.31c.85.57,1.72,1.13,2.54,1.75C327.85,262.43,329.82,269,327.84,275.49Z"/><path d="M206.18,143.87a21.26,21.26,0,0,0-.72,2.85c0,.29.5.91.81.93s1.27-.36,1.28-.58C207.56,146,207.72,144.67,206.18,143.87Z"/></g></g></svg>