<svg height='300px' width='300px' xmlns:x="http://ns.adobe.com/Extensibility/1.0/" xmlns:i="http://ns.adobe.com/AdobeIllustrator/10.0/" xmlns:graph="http://ns.adobe.com/Graphs/1.0/" xmlns="http://www.w3.org/2000/svg" xmlns:xlink="http://www.w3.org/1999/xlink" version="1.1" x="0px" y="0px" viewBox="0 0 100 100" enable-background="new 0 0 100 100" xml:space="preserve"><metadata><sfw xmlns="http://ns.adobe.com/SaveForWeb/1.0/"><slices></slices><sliceSourceBounds width="1449" height="1448" y="-1448.9" x="0.5" bottomLeftOrigin="true"></sliceSourceBounds></sfw></metadata><path d="M45.4,64.4v13.2H11.5c-2,0-3.7-1.7-3.7-3.7v-9.6c0-3.5,1.7-6.8,4.4-9c8-6.1,15.9-10.2,17.7-11c0.2-0.1,0.3-0.3,0.3-0.5  l0-4.9c-1.3-2.2-2-4.6-2.3-6.7c-0.8-0.1-1.7-1.1-2.8-4.9c-1.5-5.2,0.1-5.9,1.4-5.8c-1-2.7-1-5.4-0.3-7.8c0.7-2.9,2.2-5.2,4-7  c1.1-1.2,2.4-2.2,3.7-3.1c1.1-0.8,2.3-1.4,3.6-1.8l0,0c1-0.3,2.1-0.6,3.3-0.6C44.3,0.8,47,1.7,49,2.9c2.9,1.6,4,3.7,4,3.7  s7.3,0.5,4.1,15.8c1,0.3,1.7,1.7,0.5,5.7c-1.4,4.9-2.7,5.2-3.4,4.7c-0.3,1.7-0.8,3.6-1.7,5.3c0,2.5,0,4.8,0,5.7  c0,0.2,0.1,0.4,0.3,0.5c1.7,0.8,9.8,4.9,17.8,11.1c0.3,0.2,0.6,0.5,0.9,0.8h-18C49,56.3,45.4,59.9,45.4,64.4z M88.6,72.3l-5.2,3.5  c-0.4,0.3-0.6,0.7-0.6,1.2v10.7H59.7v-3.9c0-0.7-0.8-1.1-1.4-0.7l-10.6,7.1c-0.5,0.3-0.5,1.1,0,1.4l10.6,7.1c0.6,0.4,1.4,0,1.4-0.7  v-3.9h26.3c1.8,0,3.3-1.5,3.3-3.3V72.7C89.3,72.3,88.9,72,88.6,72.3z M81.2,56.6c-0.6-0.4-1.4,0-1.4,0.7v3.9H53.5  c-1.8,0-3.3,1.5-3.3,3.3v18.3c0,0.4,0.4,0.6,0.8,0.4l5.2-3.5c0.4-0.3,0.6-0.7,0.6-1.2V67.7h23.1v3.9c0,0.7,0.8,1.1,1.4,0.7l10.6-7.1  c0.5-0.3,0.5-1.1,0-1.4L81.2,56.6z"></path></svg>