<svg xmlns="http://www.w3.org/2000/svg" viewBox="0 0 495.47 495"><g id="Capa_2" data-name="Capa 2"><g id="Capa_3" data-name="Capa 3"><path d="M76.91,150.54c-5.9-11.73-10.44-24.45-18.07-34.92-7.87-10.82-9-19.24.65-28.76,6.42-6.34,12.17-13.37,18.75-19.52C99.5,47.47,99.6,47.57,124.49,63.06c34.08,21.21,76.88,2.82,82.4-37.56C209.71,5,218.91-.94,237.16.12a250.78,250.78,0,0,0,25.13.17c18.07-.8,26.24,6.6,28.22,25.6,4.33,41.64,50.56,62.16,84.09,36.64,16.75-12.75,28-12,40.78,2.79a169.08,169.08,0,0,0,15,15.06c14.6,13.1,17.53,24.57,3.45,42.28-24.29,30.56-6.51,73.83,31.78,83.18,29.21,7.13,29.32,7.13,29.85,36.75.16,9-.48,18-.76,27.06-.39,12.33-6.43,19.31-19.07,19.5-48.38.75-70.83,59-37.94,93.38,17.64,18.42-4.29,29.48-14.39,38.82-11.05,10.22-19.45,33.47-42,18.79-47.61-31-83.16-16.56-94.91,38-1.34,6.25-9.44,14.81-15.3,15.59-15.81,2.12-32.11,1-48.19.42-12.17-.43-15.45-9-17-19.64-7.46-50-49.81-67.91-90.33-37.89-10.74,7.95-19.19,9-28.68-.65-4.5-4.6-9.68-8.53-14.25-13.07-24.46-24.26-24.43-24.3-7.58-53.53,18.06-31.33,1.71-72.86-33.89-79.15C-3.78,284.1,1.37,275.55.07,250.2c-.32-6.42.56-12.89.44-19.33-.28-16.5,7.3-24,24.1-25.84C54.19,201.71,73.35,179.89,76.91,150.54ZM368.52,321.33c40.31-63.75,22.07-146.59-38.86-190.41-57.94-41.68-143.2-31.2-189.11,23.24-49.75,59-46.24,144.72,8,196.07,48.84,46.21,131.17,54.11,175.28,14.29-17-16-34.29-31.39-50.43-47.95-8.05-8.25-14.73-10.34-26.72-7.69-62.2,13.76-118.19-40.1-104.75-99.82,1.15-5.08,4.42-12.44,8.12-13.42,3.95-1,10.36,3.34,14.31,6.89,10.07,9,20.05,18.36,28.81,28.64,11.78,13.83,25.58,5.58,37.66,3.07,4.37-.92,9.07-13.47,8.73-20.48-.43-9.12-4.11-19.12-9.34-26.71-6.48-9.41-16.48-16.31-24-25.13-3.79-4.45-5.43-10.73-8-16.19,4.95-2.33,9.69-5.91,14.88-6.81,61.93-10.7,112.59,43.75,99.38,105.84-1.38,6.49-.85,16,3,20.53C331.86,284.26,349.83,301.86,368.52,321.33Z"/></g></g></svg>