<svg xmlns="http://www.w3.org/2000/svg" viewBox="0 0 434.87 434.38">
	<g id="Capa_2" data-name="Capa 2">
		<g id="Capa_2-2" data-name="Capa 2">
			<path d="M281.24,310.78C206,369.56,97.22,356.2,38,282.34c-54.48-67.94-49.93-167,10.76-229.24,61.77-63.35,160.23-71,230.33-17.56,38.27,29.2,60.87,68.05,67.19,115.71s-6.08,90.5-35.46,130a18.84,18.84,0,0,1,3.68,2.32q56.63,56.44,113.18,113c6.31,6.29,8.7,13.69,6.23,22.3-4.38,15.3-23.48,20.64-35.34,10-1-.9-1.95-1.89-2.91-2.85q-56-55.89-111.92-111.8A28.76,28.76,0,0,1,281.24,310.78ZM174.14,43.51c-72-.08-130.59,58.11-130.73,129.87A130.43,130.43,0,0,0,173.63,304.1c72,.08,130.59-58.11,130.73-129.87A130.41,130.41,0,0,0,174.14,43.51Z" />
			<path d="M142.67,172.62a42.78,42.78,0,0,1-4.54-3.4q-12.25-12.1-24.39-24.34c-9-9.08-9-22.76-.19-31.49s22.32-8.56,31.29.28c8.52,8.38,16.94,16.85,25.36,25.33a26.61,26.61,0,0,1,2.4,3.35c1.57-1.46,2.5-2.26,3.36-3.12q12.57-12.52,25.12-25.07c9.33-9.26,22.9-9.57,31.79-.79s8.76,22.56-.63,32q-12.41,12.45-24.88,24.82a29.81,29.81,0,0,1-3.23,2.42c1.43,1.54,2.24,2.47,3.11,3.34,8.36,8.36,16.76,16.7,25.1,25.09,9.24,9.29,9.51,22.88.67,31.74s-22.52,8.67-31.78-.51c-8.41-8.33-16.75-16.72-25.13-25.07-.88-.88-1.8-1.7-2.87-2.72-1.08,1-2,1.83-2.87,2.7-8.38,8.36-16.72,16.74-25.13,25.07-9.29,9.2-22.93,9.41-31.79.55s-8.6-22.47.64-31.74S132.48,182.75,142.67,172.62Z" />
		</g>
	</g>
</svg>