<?xml version="1.0" encoding="utf-8"?>
<!-- Generator: Adobe Illustrator 24.2.3, SVG Export Plug-In . SVG Version: 6.00 Build 0)  -->
<svg version="1.1" xmlns="http://www.w3.org/2000/svg" xmlns:xlink="http://www.w3.org/1999/xlink" x="0px" y="0px"
	 viewBox="0 0 64 64" style="enable-background:new 0 0 64 64;" xml:space="preserve">
<g id="Capa_1">
	<g id="Layer_2">
	</g>
	<g id="Layer_3">
	</g>
	<g id="Layer_4">
	</g>
	<g id="Layer_5">
	</g>
	<g id="Layer_6">
	</g>
	<g id="Layer_7">
	</g>
	<g id="Layer_8">
	</g>
	<g id="Layer_9">
	</g>
	<g id="Layer_10">
	</g>
	<g id="Layer_11">
	</g>
	<g id="Layer_12">
	</g>
	<g id="Layer_13">
	</g>
	<g id="Layer_15">
	</g>
	<g id="Layer_16">
	</g>
	<path d="M63.5,16c-0.3-0.2-0.7-0.3-1-0.1l-20.4,7.3L27.8,18c0.8-2,1.2-3.8,1.2-5.3c0-2.7-1-5.1-2.9-7s-4.4-2.9-7-2.9
		c-5.5,0-9.9,4.4-9.9,9.9c0,1.9,0.7,4.2,1.9,7L0.7,23.2c-0.4,0.2-0.7,0.6-0.7,1v36c0,0.4,0.2,0.7,0.5,0.9c0.2,0.1,0.4,0.2,0.6,0.2
		c0.1,0,0.3,0,0.4-0.1L21.9,54l19.8,7.3c0.2,0.1,0.5,0.1,0.7,0l20.8-7.4c0.4-0.2,0.7-0.6,0.7-1v-36C64,16.5,63.8,16.2,63.5,16z
		 M19.1,4.8c2.1,0,4,0.8,5.4,2.3l0,0c1.5,1.4,2.3,3.4,2.3,5.4c0,1.4-0.5,3.3-1.5,5.5c-1.8,4-4.8,8.2-6.2,10.1
		c-0.2-0.2-0.3-0.4-0.5-0.7c-1.3-1.8-3.4-4.8-4.9-7.9c-1.5-2.9-2.2-5.3-2.2-7.1C11.4,8.3,14.9,4.8,19.1,4.8z M61.8,52.1l-19.7,7
		l-19.8-7.3c-0.1,0-0.3-0.1-0.4-0.1s-0.3,0-0.4,0.1L2.2,58.7V25l10-3.5c0,0,0,0,0,0.1c0.1,0.1,0.1,0.2,0.2,0.3
		c0.1,0.2,0.2,0.4,0.3,0.6c0.1,0.1,0.1,0.2,0.2,0.3c0.1,0.2,0.2,0.4,0.3,0.6c0.1,0.1,0.1,0.2,0.2,0.3c0.1,0.2,0.2,0.4,0.3,0.5
		s0.1,0.2,0.2,0.3c0.1,0.2,0.2,0.3,0.3,0.5c0.1,0.1,0.1,0.2,0.2,0.3c0.1,0.2,0.2,0.3,0.3,0.5c0.1,0.1,0.1,0.2,0.2,0.3
		c0.1,0.2,0.2,0.3,0.3,0.5c0.1,0.1,0.1,0.2,0.2,0.3c0.1,0.2,0.2,0.3,0.3,0.5c0.1,0.1,0.1,0.2,0.2,0.2c0.1,0.2,0.2,0.3,0.3,0.4
		c0,0.1,0.1,0.1,0.1,0.2c0.1,0.2,0.2,0.3,0.3,0.4l0.1,0.1c0.1,0.1,0.2,0.3,0.3,0.4l0.1,0.1c0.1,0.1,0.2,0.3,0.3,0.4l0,0
		c0.1,0.1,0.2,0.2,0.3,0.3l0,0c0.2,0.3,0.4,0.5,0.4,0.6c0.2,0.3,0.5,0.4,0.9,0.4c0.3,0,0.6-0.2,0.9-0.4c0,0,0.1-0.1,0.3-0.3l0.1-0.1
		c0.1-0.1,0.1-0.1,0.2-0.2l0.1-0.1c0.1-0.1,0.1-0.2,0.2-0.3c0-0.1,0.1-0.1,0.1-0.2c0.1-0.1,0.2-0.2,0.2-0.3c0.1-0.1,0.1-0.2,0.2-0.3
		c0.1-0.1,0.2-0.2,0.3-0.4c0.1-0.1,0.1-0.2,0.2-0.3c0.1-0.1,0.2-0.2,0.3-0.4c0.1-0.1,0.2-0.2,0.2-0.3c0.1-0.1,0.2-0.3,0.3-0.4
		c0.1-0.1,0.2-0.3,0.3-0.4c0.1-0.1,0.2-0.3,0.3-0.4c0.1-0.1,0.2-0.3,0.3-0.4c0.1-0.2,0.2-0.3,0.3-0.5c0.1-0.1,0.2-0.3,0.3-0.4
		c0.1-0.2,0.2-0.3,0.3-0.5c0.1-0.2,0.2-0.3,0.3-0.5c0.1-0.2,0.2-0.3,0.3-0.5c0.1-0.2,0.2-0.3,0.3-0.5c0.1-0.2,0.2-0.3,0.3-0.5
		c0.1-0.2,0.2-0.3,0.3-0.5c0.1-0.2,0.2-0.3,0.3-0.5c0.1-0.2,0.2-0.3,0.3-0.5c0.1-0.2,0.2-0.4,0.3-0.5c0.1-0.2,0.2-0.3,0.2-0.5
		c0,0,0,0,0-0.1l14.8,5.4c0.2,0.1,0.5,0.1,0.7,0l19.3-6.9L61.8,52.1L61.8,52.1z"/>
	<path d="M15.2,42.2c0.2,0.1,0.5,0.1,0.7,0.1c0.6,0,1.2-0.2,1.7-0.5c0.7-0.5,1.2-1.2,1.4-2s0-1.7-0.4-2.4c-0.5-0.7-1.2-1.2-2-1.4
		c-1.7-0.4-3.5,0.7-3.9,2.4l0,0c-0.2,0.8,0,1.7,0.4,2.4C13.7,41.5,14.4,42,15.2,42.2z M14.9,38.8c0.1-0.6,0.7-0.9,1.2-0.8
		c0.3,0.1,0.5,0.2,0.6,0.5c0.1,0.2,0.2,0.5,0.1,0.8c-0.1,0.3-0.2,0.5-0.5,0.6c-0.2,0.1-0.5,0.2-0.8,0.1c-0.3-0.1-0.5-0.2-0.6-0.5
		C14.9,39.3,14.9,39.1,14.9,38.8z"/>
	<path d="M27.3,40.1c-1.3,0-3-0.2-4.1-0.5c-0.6-0.1-1.2,0.3-1.3,0.9c-0.1,0.6,0.3,1.2,0.9,1.3c1.1,0.2,2.9,0.5,4.5,0.5l0,0
		c0.6,0,1.1-0.5,1.1-1.1C28.4,40.6,27.9,40.1,27.3,40.1z"/>
	<path d="M19.1,15.2c1.9,0,3.4-1.5,3.4-3.4S21,8.4,19.1,8.4s-3.4,1.5-3.4,3.4S17.3,15.2,19.1,15.2z M19.1,10.6
		c0.6,0,1.2,0.5,1.2,1.2c0,0.6-0.5,1.2-1.2,1.2c-0.6,0-1.2-0.5-1.2-1.2C18,11.2,18.5,10.6,19.1,10.6z"/>
	<g id="Layer_18">
	</g>
	<g id="Layer_19">
	</g>
	<g id="Layer_20">
	</g>
	<g id="Layer_21">
	</g>
	<g id="Layer_22">
	</g>
	<g id="Layer_23">
	</g>
	<g id="Layer_24">
	</g>
	<g id="Layer_25">
	</g>
	<g id="Layer_26">
	</g>
	<g id="Layer_27">
	</g>
</g>
<g id="Capa_2">
	<path d="M58.1,35.2c-0.2-0.3-0.5-0.5-0.9-0.5c-0.7,0-1.4,0-2.1,0c-0.1,0-0.2,0-0.3-0.2c-0.5-0.8-1-1.6-1.5-2.5
		c-0.8-1.3-1.9-1.9-3.3-1.9c-0.2,0-0.2-0.1-0.3-0.2c-0.2-0.5-0.5-0.9-0.7-1.4c-0.2-0.5-0.6-0.7-1.1-0.7c-1.4,0-2.8,0-4.1,0
		c-0.5,0-0.9,0-1.4,0c-0.4,0-0.7,0.2-0.8,0.5c-0.3,0.5-0.5,1.1-0.8,1.6c-0.1,0.1-0.2,0.2-0.3,0.2c-0.4,0-0.8,0.1-1.1,0.2
		c-0.8,0.3-1.5,0.8-2,1.5c-0.6,0.9-1.1,1.8-1.7,2.7c-0.1,0.1-0.1,0.2-0.3,0.2c-0.7,0-1.4,0-2,0c-0.1,0-0.2,0-0.4,0
		c-0.4,0.2-0.6,0.5-0.7,0.9c0,0.5,0.1,0.7,0.6,0.9c0.3,0.1,0.7,0.2,1,0.3c0.2,0.1,0.2,0.1,0.1,0.3c-0.2,0.3-0.4,0.6-0.5,0.9
		c-0.2,0.4-0.3,0.8-0.5,1.3c-0.2,0.8-0.3,1.5-0.3,2.3c0,2.3,0,4.6,0,6.9c0,0.4,0.3,0.6,0.6,0.6c0.9,0,1.8,0,2.7,0
		c0.4,0,0.6-0.3,0.6-0.7c0-0.4,0-0.8,0-1.2c0-0.3,0-0.3,0.3-0.3c4.6,0,9.3,0,13.9,0c0.8,0,1.7,0,2.5,0c0.2,0,0.2,0.1,0.2,0.2
		c0,0.5,0,0.9,0,1.4c0,0.4,0.2,0.6,0.6,0.6c0.9,0,1.9,0,2.8,0c0.4,0,0.6-0.3,0.6-0.6c0-2.3,0-4.7,0-7c0-0.7-0.1-1.4-0.2-2.1
		c0-0.1-0.1-0.3-0.1-0.4c0-0.2,0-0.4-0.1-0.5c-0.2-0.4-0.4-0.9-0.7-1.3c-0.1-0.1-0.1-0.2-0.2-0.4c0.3-0.1,0.6-0.2,0.9-0.3
		c0.3-0.1,0.6-0.1,0.7-0.4C58.3,36,58.3,35.6,58.1,35.2z M47.4,28.6c0-0.2,0.1-0.2,0.2-0.2c0.1,0,0.2,0,0.2,0.2c0,0.2,0,0.4,0,0.6
		c0,0.2,0,0.4,0,0.5c0,0.2-0.1,0.2-0.2,0.2c-0.1,0-0.2,0-0.2-0.2C47.4,29.4,47.4,29,47.4,28.6z M46.1,29c-0.1-0.1-0.2-0.3-0.3-0.4
		c-0.1-0.1,0-0.1,0.1-0.2c0.2,0,0.4,0,0.4,0.2c0,0.1,0.1,0.1,0.1,0.2c0.1-0.1,0.1-0.2,0.2-0.2c0.1-0.1,0.3-0.2,0.5-0.1
		c0,0,0,0.1,0,0.1c-0.1,0.1-0.2,0.3-0.3,0.4c-0.1,0.1-0.1,0.2,0,0.2c0.1,0.2,0.2,0.4,0.4,0.5c0,0,0,0,0,0.1c-0.1,0-0.3,0-0.4,0
		c-0.1-0.1-0.2-0.2-0.3-0.4c-0.1,0.1-0.2,0.3-0.3,0.4c-0.1,0.1-0.3,0-0.4,0.1c0,0,0,0,0-0.1c0.1-0.2,0.2-0.4,0.4-0.6
		C46.2,29.2,46.2,29.1,46.1,29z M44.5,28.6c0-0.1,0.1-0.1,0.2-0.1c0.1,0,0.3-0.1,0.3,0.1c0.2,0.4,0.3,0.8,0.5,1.3
		c-0.3,0.1-0.4,0.1-0.5-0.1c-0.1-0.1-0.4-0.1-0.5,0c-0.1,0.2-0.3,0.2-0.5,0.1c0.1-0.2,0.2-0.5,0.2-0.7C44.4,29,44.5,28.8,44.5,28.6z
		 M43,28.5c0.2,0,0.3,0,0.5,0c0,0,0,0,0,0c0.2,0,0.3,0,0.5,0c0.1,0,0.2,0.1,0.2,0.2c0,0.1,0,0.2-0.2,0.2c-0.3,0-0.3,0-0.3,0.3
		c0,0.2,0,0.4,0,0.6c0,0.1-0.1,0.2-0.2,0.2c-0.1,0-0.3,0-0.3-0.2c0-0.2,0-0.5,0-0.7c0-0.2-0.1-0.2-0.2-0.2c-0.1,0-0.2,0-0.2-0.1
		C42.8,28.6,42.8,28.5,43,28.5z M39.2,41.4c-0.1,0.5-0.5,0.9-1,0.9c-0.4,0-0.8,0-1.2,0c0,0,0,0,0,0c-0.4,0-0.8,0-1.1,0
		c-0.6,0-1-0.3-1.2-0.7c-0.3-0.5-0.2-1,0-1.5c0.2-0.4,0.6-0.6,1-0.7c0.2,0,0.5,0.1,0.7,0.1c0.3,0.1,0.7,0.2,1,0.4
		c0.4,0.1,0.7,0.3,1.1,0.4C38.9,40.5,39.2,41,39.2,41.4z M48.9,45.1c0,0.3-0.2,0.4-0.4,0.4c-0.1,0-0.2,0-0.3,0c-1.9,0-3.9,0-5.8,0
		c-0.4,0-0.6-0.1-0.6-0.6c0-0.2,0-0.3,0-0.5c0-0.4,0.1-0.5,0.5-0.5c0.8,0,1.7,0,2.5,0c0.1,0,0.3,0,0.4,0c1,0,2,0,3,0
		c0.4,0,0.5,0.1,0.5,0.5C48.9,44.7,48.9,44.9,48.9,45.1z M49.7,37c-1.2,0-2.4,0-3.5,0c0,0,0,0,0,0c-2.7,0-5.3,0-8,0
		c-0.5,0-1,0.1-1.5,0.1c-0.4,0-0.7-0.4-0.6-0.7c0-0.1,0.1-0.2,0.2-0.3c0.7-1.1,1.4-2.2,2.1-3.4c0.6-0.9,1.4-1.4,2.5-1.4
		c3,0,6.1,0,9.1,0c1.1,0,1.9,0.4,2.4,1.4c0.7,1.2,1.5,2.4,2.2,3.5c0.2,0.3,0.2,0.6-0.1,0.7C54.3,37,54.2,37,54,37
		C52.6,37,51.1,37,49.7,37z M56.2,41.4c-0.2,0.5-0.7,0.9-1.3,1c-0.4,0-0.8,0-1.2,0c0,0,0,0,0,0c-0.4,0-0.8,0-1.1,0
		c-0.5,0-1-0.4-1-0.9c-0.1-0.5,0.2-0.9,0.7-1.1c0.4-0.1,0.7-0.3,1.1-0.4c0.4-0.1,0.8-0.3,1.3-0.4c0.3-0.1,0.6-0.1,0.9,0.1
		c0.1,0.1,0.2,0.1,0.2,0.2C56.2,40.1,56.4,40.7,56.2,41.4z"/>
</g>
</svg>
