<?xml version="1.0" encoding="utf-8"?>
<!-- Svg Vector Icons : http://www.onlinewebfonts.com/icon -->
<!DOCTYPE svg PUBLIC "-//W3C//DTD SVG 1.1//EN" "http://www.w3.org/Graphics/SVG/1.1/DTD/svg11.dtd">
<svg version="1.1" xmlns="http://www.w3.org/2000/svg" xmlns:xlink="http://www.w3.org/1999/xlink" x="0px" y="0px" viewBox="0 0 1000 1000" enable-background="new 0 0 1000 1000" xml:space="preserve">
<metadata> Svg Vector Icons : http://www.onlinewebfonts.com/icon </metadata>
<g><g transform="matrix(1 0 0 -1 0 1536)"><path d="M689.3,1033c0-19.6-3-34.6-8.9-45.1C675,978,667.6,973,658.2,973c-6.5,0-12.3,1.3-17.4,3.8v95.3c8.2,8.5,16.3,12.8,24.2,12.8C681.2,1084.9,689.3,1067.6,689.3,1033z M875.6,1048.3h-46.8c1.7,27.8,9.6,41.7,23.8,41.7C867.1,1090,874.7,1076.1,875.6,1048.3z M212.5,990.9c0,16.7-4.7,29.7-14,38.9c-9.4,9.2-23.7,17.4-43,24.5c-10.2,3.7-17.6,7.1-22.1,10.2s-6.8,6.7-6.8,10.6c0,7.4,5.4,11.1,16.2,11.1c16.4,0,34-4.7,52.7-14l7.7,47.6c-19,9.1-40.1,13.6-63.4,13.6c-21.8,0-39.3-5.4-52.3-16.2c-13.6-11.1-20.4-26.5-20.4-46.4c0-16.4,4.6-29.3,13.8-38.5s23.3-17.2,42.3-24c11.1-4,18.8-7.6,23.2-10.8c4.4-3.3,6.6-7.2,6.6-11.7c0-8.8-6.8-13.2-20.4-13.2c-8.2,0-18.1,1.8-29.8,5.3c-11.6,3.5-21.8,7.9-30.6,13l-7.7-48.1c20.4-11.6,44.2-17.4,71.5-17.4c23,0,41.3,5.2,54.9,15.7C205.2,952.8,212.5,969.4,212.5,990.9z M337.9,1082.4l8.1,47.2h-40.8v57.4l-54.9-8.9l-7.7-48.5l-19.6-3.4l-7.2-43.8h26.4v-93.2c0-23.8,6.2-40.8,18.7-51c10.8-8.5,26.5-12.8,47.2-12.8c9.1,0,20.3,1.6,33.6,4.7v50.2c-9.1-2-15.3-3-18.7-3c-11.9,0-17.9,7.1-17.9,21.3v83.8H337.9z M472.4,1071.7v59.1c-4.3,0.9-8.2,1.3-11.9,1.3c-9.1,0-16.9-2.3-23.6-6.8c-6.7-4.5-11.4-11.1-14.2-19.6l-4.3,23.8h-55.7V929.2h63.8v130.2c7.4,8.8,19,13.2,34.9,13.2C465.8,1072.6,469.5,1072.3,472.4,1071.7z M488.1,929.2h63.8v200.3h-63.8V929.2z M752.7,1035.1c0,34.6-6.4,60-19.1,76.1c-11.3,14.7-27.1,22.1-47.2,22.1c-18.1,0-34.7-7.9-49.8-23.8l-3.4,20H577V855.2l63.8,10.6v64.2c10.2-3.1,19.8-4.7,28.9-4.7c23.5,0,42.5,7.9,57,23.8C744,967.7,752.7,996.3,752.7,1035.1z M553.6,1183.2c0,9.4-3.3,17.3-9.8,23.8c-6.5,6.5-14.5,9.8-23.8,9.8c-9.4,0-17.3-3.3-23.8-9.8c-6.5-6.5-9.8-14.5-9.8-23.8s3.3-17.4,9.8-24c6.5-6.7,14.5-10,23.8-10c9.4,0,17.3,3.3,23.8,10C550.3,1165.8,553.6,1173.8,553.6,1183.2z M935.6,1031.3c0,32-6.8,57-20.4,74.9c-14.2,18.1-34.6,27.2-61.3,27.2c-27.2,0-48.7-9.4-64.4-28.1c-15.7-18.7-23.6-44.2-23.6-76.6c0-36.3,8.9-63,26.8-80c15.6-15.6,38.4-23.4,68.5-23.4c28.6,0,51.3,5.7,68.1,17l-6.8,43.8c-16.2-8.8-34.3-13.2-54.4-13.2c-12.2,0-21.1,2.7-26.8,8.1c-6.5,5.4-10.5,14.7-11.9,28.1h105.5C935.3,1013.2,935.6,1020.5,935.6,1031.3z M990,1308.2V763.8c0-14.7-5.4-27.5-16.2-38.3s-23.5-16.2-38.3-16.2H64.4c-14.7,0-27.5,5.4-38.3,16.2S10,749,10,763.8v544.4c0,14.7,5.4,27.5,16.2,38.3s23.5,16.2,38.3,16.2h871.1c14.7,0,27.5-5.4,38.3-16.2S990,1323,990,1308.2z"/></g></g>
</svg>