<svg xmlns="http://www.w3.org/2000/svg" viewBox="0 0 574.91 513.06"><g id="Capa_2" data-name="Capa 2"><g id="Capa_4" data-name="Capa 4"><path d="M57.71,183.29v28.39c0,88.3.18,176.61-.13,264.91C57.49,500.68,45.92,513.8,27.47,513,9.62,512.23.17,500.17.15,476.39Q-.06,267.61.22,58.81C.32,20.55,20.4.34,58.51.26q229-.52,458,0c38,.09,58.09,20.36,58.19,58.65q.51,208.8.06,417.59c0,23.68-9.56,35.81-27.37,36.53-18.5.74-30-12.28-30-36.44-.31-88.31-.13-176.61-.14-264.92V183.29Zm1.62-64.37c0,1.62,0,3.25.05,4.87H515.55v-4.87Zm456.45,37.32v-4.81H59.13v4.81Zm-1.13-65.07,0-3H60.48l0,3Z"/><path d="M133.27,280.73c1.45-2.56,3.54-5,4.24-7.71,13.26-51.74,47.47-69.31,98.9-65.34,38.64,3,77.69.57,116.56.59,47.19,0,60.85,9.28,79.34,53.54,2.58,6.18,5.51,12.22,8.85,19.6,4.13-.54,8.66-2.41,12.4-1.38,8.7,2.4,22.56,4.43,24.26,9.79,2.82,8.94,1.38,24.86-4.75,29.8-12.38,10-8.41,18.73-7.46,30.9,3.34,43.07,5,86.33,5.54,129.53.18,15.47-11.59,23.44-27.09,24.22-16.88.84-33.91,1.21-40.3-19.29-2.4-7.7-3-16-4.51-24.43-4.94-.42-9.35-1.11-13.76-1.12-69.47-.07-138.94,0-209.73,0-1.13,6.57-2.08,12.19-3.07,17.81C168.83,499,158,506.08,131.93,504.44c-20.33-1.28-30.09-12.44-29-32,2.41-43.81,5.8-87.57,8.49-131.37.29-4.72.3-12.05-2.46-13.94C95.42,317.83,87,304.25,96.41,291.38c6.39-8.75,22.75-10.23,34.65-15Zm154.21,51.35c38.11,0,76.23.38,114.33-.15,22.2-.32,26.59-7.34,18.6-28.18-6.14-16-13.78-31.47-19.49-47.62-7.54-21.34-22.13-30.47-44.32-30.14-30.63.46-61.27.15-91.91.1-91.42-.15-74.72-6.5-110.6,78-8.57,20.21-3.35,27.5,19,27.8C211.25,332.45,249.37,332.08,287.48,332.08Zm104.71,86.8c7.47,0,15.38,1.52,22.29-.46,6-1.72,15.09-7,15.51-11.37.9-9.52-1.74-27.52-4.91-28-20.19-2.82-40.94-2.18-61.47-1.6-2.34.07-5.56,6.56-6.57,10.53C351,411.8,359.27,418.94,392.19,418.88Zm-212,2.89c11.61-3.13,26.53-3.06,33.75-10.47,5.28-5.43,2.58-29.48-.25-30.17-18.24-4.47-37.5-5.79-56.42-5.76-4.67,0-12.29,8.26-13.45,13.79C138.49,414.63,144.19,418.94,180.21,421.77Z"/></g></g></svg>