<svg height='300px' width='300px'  xmlns="http://www.w3.org/2000/svg" xmlns:xlink="http://www.w3.org/1999/xlink" version="1.1" x="0px" y="0px" viewBox="0 0 100 100" enable-background="new 0 0 100 100" xml:space="preserve"><path fill-rule="evenodd" clip-rule="evenodd" d="M18.8905048,5h62.2184143c1.953537,0,3.7284546,0.7969766,5.0099869,2.0785055  c1.2815247,1.2815294,2.0785065,3.0564528,2.0785065,5.0099888V74.3069c0,1.9399796-0.7869568,3.660675-2.0519791,4.9292297  l-0.011795,0.011795c-1.2549973,1.2532349-2.9957352,2.046669-4.9027023,2.1350937l-28.8190727-0.0465698L37.3547783,92.2695313  L33.0285873,95l0.0070763-5.116684l0.0129662-8.4885101H18.8905048c-1.9529457,0-3.727869-0.7969742-5.0093985-2.0785065  c-1.2815285-1.2815247-2.0785055-3.0564499-2.0785055-5.0093994V12.0884943c0-1.953536,0.796977-3.7284594,2.0785055-5.0099888  S16.9375591,5,18.8905048,5L18.8905048,5z M81.1089172,10.6578264H18.8905048c-0.3908234,0-0.7498169,0.1621075-1.0091877,0.4208889  c-0.2587814,0.2593708-0.4208889,0.6183643-0.4208889,1.009779V74.3069c0,0.390831,0.1621075,0.7498245,0.4208889,1.0091934  c0.2593708,0.2587814,0.6183643,0.4208908,1.0091877,0.4208908h16.9787846h2.8224297l-0.004715,2.8289108l-0.0088425,6.1995544  l11.3563271-8.5975571l0.6266174-0.395546l0.7533569-0.0353622l29.5730171,0.0117874  c0.4509506-0.0200424,0.8635864-0.2039642,1.1577377-0.4898605l0.011795-0.0117874  c0.235199-0.240509,0.3825684-0.5712051,0.3825684-0.9402237V12.0884943c0-0.3914146-0.1621094-0.7504082-0.4208908-1.009779  C81.8593216,10.8199339,81.5003281,10.6578264,81.1089172,10.6578264z"></path><path fill-rule="evenodd" clip-rule="evenodd" d="M44.7120628,59.7838593  c5.4178963-1.1155815,8.4710312-4.3049469,10.211132-7.8648872c0.1916504-0.3915024,0.19804-0.8056259,0.0188026-1.202919  c-0.1798172-0.3968277-0.4939651-0.6661911-0.9142532-0.7816429l-2.2941704-0.6312675  c-0.6631813-0.1822205-1.3464012,0.1268425-1.6471672,0.745182c-1.1661873,2.3985443-3.4740982,4.3681526-6.3572807,4.9618187  c-4.4526024,0.9168205-8.5427818-0.8247757-10.9430923-4.3489685l11.0539932-2.2760887  c0.7627258-0.1570511,1.2566109-0.9074936,1.0996284-1.6698914l-0.0631027-0.3064613  c-0.1570511-0.7627258-0.9071655-1.2566795-1.6698914-1.0996284l-11.8802261,2.4462166  c-0.194994-0.4853668-0.3179798-1.0826492-0.4313068-1.6330376c-0.1229858-0.5972824-0.2005005-1.2029114-0.2680435-1.7634048  l11.8802242-2.4462166c0.7627258-0.1570511,1.2566147-0.9074936,1.0996323-1.6698952l-0.0629005-0.305481  c-0.1570511-0.7627258-0.9071693-1.2566795-1.6698952-1.0996284l-11.0077457,2.2665672  c0.8217049-4.1407814,3.9009686-7.3104019,8.3073254-8.217701c2.8812294-0.5932617,5.7862854,0.3355522,7.7993889,2.0567131  c0.52108,0.4450417,1.2672882,0.4567184,1.8018723,0.029232l1.8737984-1.4993248  c0.3397102-0.2709236,0.5220909-0.6415062,0.5299911-1.0763092c0.0087547-0.4339638-0.1595421-0.8111-0.487339-1.0956459  c-2.9835815-2.5862846-7.0825539-4.3029823-12.5004501-3.1874027c-7.3898449,1.5216198-12.5604115,7.0830326-13.154459,14.1908474  l-1.0014458,0.2062035c-0.7627258,0.1570511-1.2566795,0.9071655-1.0996284,1.6698952l0.0629005,0.305481  c0.1569824,0.7623978,0.9071655,1.2566795,1.6698933,1.0996284l0.4513817-0.0929413  c0.0767403,0.6068039,0.143755,1.1663895,0.2667408,1.7636719c0.113327,0.5503883,0.2363129,1.1476746,0.386364,1.642292  l-0.405138,0.0834198c-0.7627258,0.1570511-1.2566795,0.9071693-1.0996284,1.6698952l0.0631008,0.3064575  c0.1569843,0.7624016,0.9071674,1.2566795,1.6698933,1.0996284l1.0014439-0.2062035  C30.3296738,58.2475052,37.2759705,61.3149986,44.7120628,59.7838593z"></path><path fill-rule="evenodd" clip-rule="evenodd" d="M65.9148483,38.2927933  c3.4716034,0.6975708,6.0683441-0.4182739,7.984024-2.080864c0.2108459-0.1827736,0.3181763-0.4252052,0.3119202-0.7041435  c-0.0067215-0.2788086-0.1244736-0.5161018-0.3432617-0.6892433l-1.1940155-0.9457283  c-0.3452225-0.2732315-0.825119-0.2619743-1.1569901,0.0271759c-1.2870407,1.1217422-3.1396027,1.7051926-4.9870453,1.3339767  c-2.8530693-0.5732841-4.8277397-2.6224556-5.360817-5.2994461l7.0830078,1.423233  c0.4887314,0.0982018,0.9674377-0.2204952,1.0656052-0.7090149l0.0394516-0.1963692  c0.0982056-0.4887276-0.2202835-0.9673939-0.7090149-1.0655975l-7.6124268-1.5296116  c0.0064774-0.3347778,0.0833778-0.7174969,0.1542435-1.0701656c0.0769005-0.382719,0.1826859-0.7589836,0.2830582-1.1061573  l7.6124268,1.5296135c0.4887314,0.0982018,0.9674377-0.2204952,1.0655975-0.7090149l0.0393372-0.1957417  c0.0981979-0.4887295-0.2202911-0.9673958-0.7090149-1.0655994l-7.0533791-1.4172783  c1.5197639-2.234539,4.1269646-3.3322182,6.9504051-2.7648869c1.8461914,0.370966,3.3257675,1.6448059,4.0815887,3.162487  c0.195755,0.3925648,0.6325531,0.5860634,1.0544739,0.4678497l1.4791412-0.4148922  c0.2679367-0.074688,0.4680862-0.2474518,0.5814819-0.5016937c0.1136856-0.2535305,0.1088257-0.5178547-0.0131683-0.7675076  c-1.1113434-2.2701778-3.0974197-4.3068771-6.5690155-5.004446c-4.7351532-0.9514637-9.1728554,1.0326195-11.3004837,5.0724773  l-0.6416931-0.1289387c-0.4887276-0.0982037-0.967392,0.2202873-1.0655975,0.7090149l-0.0393295,0.1957417  c-0.0981636,0.4885197,0.2202835,0.9673958,0.7090149,1.0655994l0.2892303,0.058115  c-0.1065369,0.3767662-0.2069893,0.7232723-0.2838936,1.1059895c-0.0708618,0.3526688-0.1477661,0.7353878-0.1830406,1.0643787  l-0.2595978-0.0521622c-0.4887314-0.0982037-0.9673958,0.2202873-1.0656013,0.7090149l-0.0394554,0.1963673  c-0.0981636,0.4885197,0.2202873,0.9673958,0.7090149,1.0655994l0.6416893,0.1289387  C57.8239594,33.7906151,61.1500664,37.3353767,65.9148483,38.2927933z"></path><path fill-rule="evenodd" clip-rule="evenodd" d="M66.8444519,66.4139633  c2.7364197,0.9261932,4.9538879,0.293869,6.6772385-0.8518295c0.1896515-0.1259232,0.3017654-0.3109055,0.3257599-0.5372696  c0.0236206-0.2263031-0.046936-0.4305801-0.2059326-0.5934753l-0.8676147-0.8896713  c-0.2508698-0.257061-0.640358-0.2979584-0.9390259-0.098568c-1.1583176,0.7735634-2.7181473,1.052639-4.1743546,0.5597572  c-2.2488785-0.7611732-3.6331863-2.6250572-3.7855911-4.8467369l5.5830383,1.8896866  c0.385231,0.1303864,0.8057938-0.07761,0.9361267-0.462677l0.0523834-0.1547813  c0.130394-0.385231-0.077446-0.8057404-0.4626694-0.9361267l-6.0003433-2.0309296  c0.040123-0.2702179,0.1422272-0.571888,0.2363205-0.8498726c0.1021042-0.3016701,0.2269058-0.595108,0.3442993-0.8655701  l6.0003433,2.0309296c0.385231,0.1303902,0.8057938-0.07761,0.9361267-0.462677l0.0522232-0.1542892  c0.1303864-0.3852272-0.077446-0.8057365-0.462677-0.9361267l-5.5596771-1.8817787  c1.4625778-1.6497536,3.6866226-2.2662888,5.9121399-1.5130196c1.4552231,0.4925461,2.5197144,1.6774673,2.9731522,2.9842834  c0.1174927,0.338047,0.4507751,0.5401344,0.8045044,0.4884453l1.240097-0.181591  c0.2245865-0.0325165,0.404541-0.1514549,0.522789-0.3453636c0.1184082-0.1933022,0.1420288-0.407692,0.0693207-0.6224136  c-0.6627045-1.952755-2.0575485-3.8077354-4.7939606-4.7339287c-3.7323914-1.2632942-7.5299759-0.1202507-9.6725349,2.9269676  l-0.5058022-0.171196c-0.3852272-0.1303864-0.8057365,0.077446-0.9361267,0.462677l-0.0522194,0.1542892  c-0.1303329,0.3850632,0.077446,0.8057365,0.4626732,0.9361267l0.2279816,0.0771637  c-0.1254654,0.293766-0.2428551,0.5636787-0.3449593,0.8653488c-0.0940895,0.2779846-0.1961975,0.5796547-0.2590218,0.842186  l-0.2046242-0.0692596c-0.3852272-0.1303864-0.8057365,0.077446-0.9361267,0.462677l-0.0523872,0.1547813  c-0.1303329,0.385067,0.077446,0.8057404,0.4626732,0.9361267l0.5058022,0.1711998  C60.7667007,61.9278755,63.088707,65.1427612,66.8444519,66.4139633z"></path></svg>