<svg version="1.1" xmlns="http://www.w3.org/2000/svg" xmlns:xlink="http://www.w3.org/1999/xlink" x="0px" y="0px" viewBox="0 0 1000 1000" enable-background="new 0 0 1000 1000" xml:space="preserve">
<metadata> Svg Vector Icons : http://www.onlinewebfonts.com/icon </metadata>
<g><g transform="translate(0.000000,511.000000) scale(0.100000,-0.100000)"><path d="M702.3,3361.9c-155-41.7-258.4-101.4-363.8-208.7C163.6,2980.2,100,2791.4,100,2443.5v-224.6h4900h4900v218.7c0,119.3-9.9,264.4-21.9,322c-65.6,304.1-306.1,544.7-610.3,610.3c-75.5,15.9-1260.3,21.9-4283.8,19.9C1449.7,3389.7,789.8,3385.8,702.3,3361.9z"/><path d="M100-623.7c0-1262.3,6-1838.7,21.9-1912.3c65.6-304.1,306.1-544.7,610.3-610.3c149.1-31.8,8386.7-31.8,8535.7,0c304.1,65.6,544.7,306.1,610.3,610.3c15.9,73.6,21.9,650,21.9,1912.3v1808.9H5000H100V-623.7z M7089.2-2023.1c93.4-93.4,93.4-188.8,0-282.3l-67.6-67.6H4552.7H2083.8l-67.6,67.6c-51.7,51.7-67.6,83.5-67.6,141.1c0,57.7,15.9,89.5,67.6,141.1l67.6,67.6h2468.9h2468.9L7089.2-2023.1z M1580.9-1999.3c57.6-25.8,109.3-109.3,109.3-174.9s-51.7-149.1-109.3-174.9c-67.6-31.8-489-31.8-556.6,0c-137.2,61.6-141.1,272.3-7.9,345.9C1078-1969.5,1507.4-1965.5,1580.9-1999.3z"/></g></g>
</svg>