<svg xmlns="http://www.w3.org/2000/svg" viewBox="0 0 154.26 190.51"><g id="Capa_2" data-name="Capa 2"><g id="Capa_1-2" data-name="Capa 1"><path d="M75.78,141.5c-14.16,0-28.33.07-42.5,0C14.57,141.35.29,127.77,0,110-.29,91.66,13.23,77.48,32.09,76.75c9.15-.36,18.33-.19,27.5,0,5.66.09,9.27,3.66,9.1,8.48-.16,4.64-3.71,7.92-9.11,8-8.83.12-17.67,0-26.5.06-9.82.09-16.84,6.73-17,15.88-.12,9.38,7,16.31,17,16.34,29.34.06,58.68-.08,88,.06,19.21.1,33.41,14.53,33.12,33.23-.26,16.76-13.89,31.25-30.69,31.52-24.83.41-49.67.17-74.5.12-5.34,0-8.88-3.42-8.93-8.1-.05-4.87,3.49-8.17,9.29-8.19,22.5-.07,45,0,67.5,0,1.67,0,3.34.06,5,0,9.92-.55,16.47-7.21,16.33-16.56-.13-9.19-7.07-15.85-17-15.93C106.12,141.42,91,141.5,75.78,141.5Z"/><path d="M69.64,37.79c1-16.48,8-27.8,21.79-34.08,14-6.38,27.52-4.51,39.19,5.5,11.46,9.84,15.86,22.56,11.47,37.31-6.31,21.22-17.37,40.27-28.36,59.29a8.09,8.09,0,0,1-14.14-.21C88.88,87,78.3,68.3,71.7,47.72A80.89,80.89,0,0,1,69.64,37.79ZM106.19,54.4a17.12,17.12,0,1,0-16.9-17.3A17.17,17.17,0,0,0,106.19,54.4Z"/></g></g></svg>