<?xml version="1.0" encoding="utf-8"?>
<!-- Svg Vector Icons : http://www.onlinewebfonts.com/icon -->
<!DOCTYPE svg PUBLIC "-//W3C//DTD SVG 1.1//EN" "http://www.w3.org/Graphics/SVG/1.1/DTD/svg11.dtd">
<svg version="1.1" xmlns="http://www.w3.org/2000/svg" xmlns:xlink="http://www.w3.org/1999/xlink" x="0px" y="0px" viewBox="0 0 1000 1000" enable-background="new 0 0 1000 1000" xml:space="preserve">
<metadata> Svg Vector Icons : http://www.onlinewebfonts.com/icon </metadata>
<g><path d="M850.1,540h-58.7c4-10.5,13.3-35.9,28.1-76.1l1.3-3.8c1.1-2.8,2.6-6.5,4.2-11.1c1.7-4.5,3-8.2,3.8-11.1l5.1,23.4L850.1,540z M235.9,512.3l-24.7-125.5c-3.1-15.3-13.8-23-31.9-23h-114l-0.8,5.5C152.6,391.8,209.8,439.4,235.9,512.3L235.9,512.3z M312,363.9l-68.9,186.3l-7.2-37.9c-7.4-19.9-19.4-38.2-36.2-55.1c-16.7-16.9-35.3-29.4-55.7-37.6l57.4,216.9h74.4l111-272.7L312,363.9L312,363.9z M371.1,637h70.6L486,363.9h-70.6L371.1,637z M697.8,370.7c-19.6-7.7-40.7-11.5-63.4-11.5c-34.9,0-63.4,8.4-85.5,25.1s-33.3,38.4-33.6,65.1c-0.3,28.9,20.3,53.6,61.7,74c13.6,6.5,23.1,12.3,28.5,17.4c5.4,5.1,8.1,10.6,8.1,16.6c0,8.5-4.3,15-12.8,19.6c-8.5,4.5-18.3,6.8-29.3,6.8c-24.4,0-46.5-4.7-66.4-14l-9.4-4.7l-9.8,61.2c21,9.6,47.2,14.5,78.7,14.5c36.9,0.3,66.4-8.1,88.7-25.1c22.3-17,33.7-39.7,34.2-68.1c0-30.1-19.9-54.7-59.6-74c-13.9-7.1-24-13-30.2-17.9c-6.2-4.8-9.3-10.2-9.4-16.2c0-6.2,3.5-11.7,10.4-16.4s16.9-7,30-7c19.9-0.3,37.4,3.1,52.7,10.2l6.4,3.4L697.8,370.7z M878.6,363.9h-54.4c-18.4,0-30.8,7.7-37,23L682.5,637h74l14.9-40.8h90.2c1.4,6.2,4.3,19.9,8.5,40.8h65.5L878.6,363.9z M990,227.8v544.4c0,14.7-5.4,27.5-16.2,38.3s-23.5,16.2-38.3,16.2H64.4c-14.7,0-27.5-5.4-38.3-16.2S10,787,10,772.2V227.8c0-14.7,5.4-27.5,16.2-38.3c10.8-10.8,23.5-16.2,38.3-16.2h871.1c14.7,0,27.5,5.4,38.3,16.2C984.6,200.3,990,213,990,227.8z"/></g>
</svg>