<svg version="1.1" xmlns="http://www.w3.org/2000/svg" xmlns:xlink="http://www.w3.org/1999/xlink" x="0px" y="0px" viewBox="0 0 1000 1000" enable-background="new 0 0 1000 1000" xml:space="preserve">
<metadata> Svg Vector Icons : http://www.onlinewebfonts.com/icon </metadata>
<g><path d="M129.5,686.1L10,313.9h92.5l45.1,157.5c12.6,45,24.3,86.9,33.3,132.9h1.6c9.4-44.3,20.9-89.1,33.5-131.4l47.6-159.1h89.5L227.6,686.1H129.5z"/><path d="M435.8,600.2c22.2,11.7,57.6,22.9,93.3,22.9c38.7,0,59.1-16,59.1-40.8c0-22.2-17.7-36-62.2-52c-62-21.7-102.8-56.2-102.8-111c0-63.5,53.6-111.8,140.7-111.8c42.5,0,73,8.6,95,19L640.1,394c-14.3-7.5-41.3-17.6-77.3-17.6c-36.4,0-54.1,17-54.1,35.3c0,24,20.4,34.6,69,53.8C643.5,489.4,674,523.3,674,577c0,62-47.5,115.5-149.9,115.5c-42.5,0-84.5-12.2-105.4-23.4L435.8,600.2z"/><path d="M763.4,590.6l-26.1,95.5h-87l113.6-372.2h109.9L990,686.1h-90.5l-29-95.5H763.4z M857.9,527.5l-23.4-78.9c-5.8-21.8-12.5-49.9-17.9-71.7h-1.9c-4.7,22.4-11,50.3-16.4,71.7l-22.8,78.9H857.9z"/><path d="M353.1,313.9h-12v35.4L353.1,313.9z"/><path d="M382,313.9l-40.9,122.9v249.3h84.1V313.9H382z"/></g>
</svg>