<svg xmlns="http://www.w3.org/2000/svg" viewBox="0 0 416.84 394.79"><g id="Capa_2" data-name="Capa 2"><g id="Capa_2-2" data-name="Capa 2"><path d="M416.74,72.9c0-6.35.44-12.8-.49-19-2.46-16.57-17.73-29-35.88-30.12-11.26-.69-22.6-.08-33.9-.12-6.68,0-8.16-1.6-8.24-8.14,0-3.6-.23-7.21-.51-10.8S334.67.35,331.85.1s-5.94,0-6.57,3.47a112.76,112.76,0,0,0-1.49,13.62c-.24,4-2.12,6.32-6.13,6.34q-27.15.11-54.32,0c-4.89,0-6.57-2-6.7-7.09-.09-3.18.14-6.38-.17-9.53-.53-5.25-2.57-7.08-7-6.86s-6.49,2.26-6.76,7.28c-.16,2.88,0,5.78,0,8.67-.08,5.66-1.59,7.48-7.09,7.52-18,.13-35.93.08-53.89.09-4,0-5.83-2.07-5.85-5.94,0-3.18.08-6.36,0-9.54-.18-4.43-3.54-8-7.49-8.08-4.69-.13-7.11,2.16-7.5,7.53-.23,3.3,0,6.64-.05,10,0,3.85-1.84,5.95-5.81,6q-27.6,0-55.2,0c-4,0-5.72-2.21-5.69-6.06,0-3.33.14-6.66-.08-10C93.59,2.63,90.61-.06,86.05,0,82,.12,79,3.22,78.72,7.66c-.11,1.72.13,3.47.15,5.2C79,23,78.36,23.27,68.2,23.62c-14.38.51-29-2.14-43.09,2.87A35.91,35.91,0,0,0,8.5,38.24C2.12,46.29,0,55.46,0,65.69Q.22,210.35,0,355a39.28,39.28,0,0,0,7.69,24.2c6.32,8.6,14.5,13.9,25.16,15a117.46,117.46,0,0,0,12.59.5q81.71,0,163.41,0v0h168.2c6.7,0,13.14-.68,19.29-4,12.33-6.71,20-16.32,20.36-30.69.27-10.25.08-20.52.08-30.78Q416.77,201.09,416.74,72.9ZM15.41,59.61c-.28-9.72,13-21.39,22.39-20.9,11.41.59,22.88.11,34.33.14,5.24,0,6.23,1,6.45,6.42.12,3,.28,6.08.1,9.1-.23,3.91,2.15,6.18,4.87,8.11,3.51,2.49,9.82-1.14,10.22-5.95.34-4,.26-8.09.29-12.14,0-3.75,1.76-5.52,5.59-5.51q27.38.06,54.76,0c3.91,0,5.94,1.74,6,5.68.09,3.32.18,6.65.31,10,.17,4.72,3.46,8.76,7.13,8.78s7.67-4.34,7.84-8.83c.13-3.46.07-6.94.23-10.4s1.91-5.23,5.53-5.24c18.11,0,36.21-.18,54.32-.15,4.71,0,6.52,1.93,6.78,6.66.2,3.61,0,7.23.15,10.84s3.6,7.07,6.85,7.13c3,.06,6.52-3.23,6.79-6.78s.06-6.93.25-10.4c.29-5.5,2.11-7.27,7.52-7.29q26.5-.11,53-.11c4.06,0,6,1.94,6.47,6.52.35,3.73.27,7.51.76,11.22s4.32,7.09,7.3,6.82,6.31-3.93,6.48-7.59c.16-3.47,0-6.94.17-10.41.19-5.21,1.46-6.52,6.91-6.62,5.21-.1,10.43.13,15.64.17,5.79,0,11.6.28,17.38,0,14.78-.83,25.12,13.34,24.91,26.47-.11,7.07-.17,14.15-.08,21.22.07,6.09-2.47,8.8-8.55,8.8h-186v0H27.78c-1.73,0-3.48,0-5.21,0-5.31-.23-7.21-1.86-7.26-7.05C15.21,78.68,15.68,69.13,15.41,59.61ZM403.3,351.72c-.07,9.88-2.67,19-11.68,24.13a34.1,34.1,0,0,1-16,4q-141.9.35-283.78.13c-18.39,0-36.78-.53-55.17-.45C26,379.61,15.06,368.15,15.29,358c.23-10.55-.13-21.1-.13-31.65q0-99.55,0-199.09c0-3.47.06-6.93.1-10.4.06-5.75,1.79-7.5,7.48-7.5H393.85c7.37,0,9.44,1.91,9.44,9.14q0,103.87,0,207.76C403.3,334.69,403.36,343.21,403.3,351.72Z"/></g><g id="Capa_7" data-name="Capa 7"><path d="M72,217.83a13.9,13.9,0,0,1-13.18,13.53c-6.41.15-14-7.42-13.43-14.06.54-6,5.83-13.08,13.52-12.86S72,210.14,72,217.83Z"/><path d="M276.24,218.82c-.06-8.12,4.91-13.71,12.32-13.84,8-.13,13.2,5.14,13.48,13.29.29,8.6-6.85,13.29-12.91,13.57C282.44,232.15,276.3,225.61,276.24,218.82Z"/><path d="M225.35,218.36a13.92,13.92,0,0,1-13.19,13.54c-6.4.14-14-7.43-13.43-14.07.55-6,5.84-13.07,13.52-12.85S225.33,210.68,225.35,218.36Z"/><path d="M366.45,205a13.92,13.92,0,0,1,13.33,14c-.15,6.21-7.28,13-13.65,12.91-6.7-.06-13.69-7-13.58-13.49A13.84,13.84,0,0,1,366.45,205Z"/></g><g id="Capa_6" data-name="Capa 6"><path d="M122.87,218.28c-.07-8.12,4.91-13.71,12.31-13.83,8-.14,13.21,5.13,13.48,13.28.29,8.6-6.84,13.3-12.91,13.58C129.06,231.61,122.92,225.07,122.87,218.28Z"/></g></g></svg>